<svg
    xmlns="http://www.w3.org/2000/svg"
    width="120"
    height="120"
    viewBox="0 0 120 120"
    fill="none"
  >
    <g clipPath="url(#clip0_923_52072)">
      <path
        d="M111.713 83.1121C111.713 92.8861 111.713 102.66 111.713 112.456L8.28711 112.041L8.70256 83.0684L111.713 83.1121ZM10.7361 104.759V90.306H18.1268V91.1587H11.6982V96.4721H17.5801V97.3031H11.6982V104.759H10.7361ZM102.201 92.7331C103.076 92.6675 103.972 92.6456 104.891 92.6456C105.809 92.6456 106.596 92.8643 107.252 93.3235C107.93 93.7608 108.258 94.4168 108.258 95.2695C108.258 95.9036 108.083 96.5159 107.733 97.0625C107.383 97.6092 106.946 98.0246 106.465 98.3089C107.252 98.5494 107.93 98.9867 108.455 99.5771C109.001 100.189 109.264 100.867 109.264 101.632C109.264 102.682 108.936 103.491 108.28 104.038C107.602 104.584 106.684 104.869 105.525 104.869C104.366 104.869 103.251 104.825 102.201 104.716V92.7331ZM105.612 104.125C106.443 104.125 107.121 103.907 107.646 103.447C108.17 102.988 108.433 102.42 108.433 101.698C108.433 100.998 108.17 100.386 107.668 99.8614C107.143 99.3584 106.443 99.0086 105.568 98.8118C105.153 98.7243 104.672 98.6806 104.125 98.6806C103.579 98.6806 103.207 98.6806 103.01 98.6806V104.06C103.491 104.103 104.366 104.125 105.612 104.125ZM107.449 95.2477C107.449 94.6354 107.187 94.1544 106.684 93.8264C106.181 93.4765 105.612 93.3235 104.978 93.3235C104.322 93.3235 103.688 93.3453 103.01 93.3891V97.9809C103.141 97.9809 103.426 97.9809 103.819 97.9809C104.235 97.9809 104.825 98.0246 105.612 98.0902C106.115 97.806 106.552 97.4342 106.924 96.9313C107.274 96.4066 107.449 95.8599 107.449 95.2477ZM98.1559 103.579C97.3687 104.497 96.188 104.956 94.6136 104.956C93.0174 104.956 91.8367 104.497 91.0714 103.579C90.2842 102.66 89.8906 101.392 89.8906 99.7958V92.7112H90.6996V99.7958C90.6996 102.77 91.9897 104.256 94.5918 104.256C97.1938 104.256 98.5058 102.77 98.5058 99.7958V92.7112H99.3148V99.7958C99.3148 101.414 98.9212 102.66 98.1559 103.579ZM85.8673 104.759V97.5217H75.9402V104.759H74.9781V90.306H75.9402V96.6471H85.8673V90.306H86.8512V104.759H85.8673ZM66.4722 104.759V92.7112H67.2813V104.016H72.8133V104.759H66.4722ZM56.5451 100.583L54.8177 104.759H53.9649L59.0378 92.6238H59.497L64.5918 104.759H63.6734L61.946 100.583H56.5451ZM59.2128 93.9794C59.1909 93.9794 59.169 94.045 59.1472 94.1762C58.9941 94.6573 58.841 95.0727 58.688 95.4007L56.8294 99.8832H61.6617L59.8031 95.4226C59.4096 94.5698 59.2128 94.0888 59.2128 93.9794ZM42.4416 104.759V92.7549C43.4912 92.6894 44.3877 92.6456 45.1093 92.6456C46.2682 92.6456 47.2084 92.9299 47.9518 93.5203C48.6953 94.1106 49.067 94.9415 49.067 96.0348C49.067 96.7564 48.8483 97.4342 48.411 98.0684C47.9956 98.7025 47.5145 99.2054 46.9897 99.5771C47.4052 100.146 47.9081 100.823 48.5203 101.611C49.1326 102.398 49.5262 102.901 49.723 103.098C50.4008 103.841 51.1661 104.256 52.0407 104.344L52.0189 104.891C51.341 104.891 50.7725 104.781 50.3571 104.584C49.9198 104.388 49.5262 104.081 49.1326 103.688C48.739 103.272 47.7769 102.026 46.2463 99.9051C45.153 99.9051 44.1472 99.8614 43.2507 99.7958V104.759H42.4416ZM45.7652 99.2273C46.2463 99.2273 46.7711 98.8993 47.3396 98.2433C47.9081 97.6092 48.1705 96.8439 48.1705 95.9911C48.1705 95.1165 47.8862 94.4824 47.3177 94.0232C46.7273 93.5859 45.962 93.3672 45.0218 93.3672C44.497 93.3672 43.9285 93.3891 43.2507 93.4328V99.1398C44.1472 99.2054 44.9781 99.2273 45.7652 99.2273ZM29.3221 102.638C28.2069 101.436 27.6603 99.9707 27.6603 98.1996C27.6603 96.4503 28.2069 94.9853 29.3221 93.7826C30.4373 92.58 31.8585 91.9896 33.5641 91.9896C35.2696 91.9896 36.6909 92.58 37.8061 93.7826C38.9431 94.9853 39.4897 96.4503 39.4897 98.1996C39.4897 99.9707 38.9431 101.436 37.8061 102.638C36.6909 103.841 35.2696 104.453 33.5641 104.453C31.8585 104.453 30.4373 103.841 29.3221 102.638ZM29.9343 94.3074C28.9941 95.357 28.5349 96.6689 28.5349 98.1996C28.5349 99.752 28.9941 101.064 29.9343 102.114C30.8746 103.185 32.0772 103.71 33.5859 103.71C35.0728 103.71 36.2754 103.185 37.2157 102.114C38.1559 101.064 38.6151 99.752 38.6151 98.1996C38.6151 96.6689 38.1559 95.357 37.2157 94.3074C36.2754 93.2579 35.051 92.7331 33.5641 92.7331C32.0772 92.7331 30.8527 93.2579 29.9343 94.3074ZM20.0291 104.759V92.7112H20.8381V104.016H26.3921V104.759H20.0291Z"
        fill="#FEFEFE"
      />
      <path
        fillRule="evenodd"
        clipRule="evenodd"
        d="M120 120V0H0V120H120Z"
        fill="#B225DA"
      />
      <path
        d="M116.305 116.303V3.69405H3.69539V116.303H116.305ZM117.485 3.12554V117.484H2.5365V2.53516H117.485V3.12554Z"
        fill="white"
      />
      <path
        fillRule="evenodd"
        clipRule="evenodd"
        d="M75.3936 47.755C73.7755 50.7288 72.1137 53.4402 70.4519 55.9329C68.7683 58.4037 67.0627 60.634 65.3572 62.6457C67.8718 64.1107 70.1895 65.1822 72.3543 65.86C74.4971 66.5378 76.5962 66.8658 78.6516 66.8658C82.5875 66.8658 85.7362 65.86 88.0977 63.8702C90.4592 61.8585 91.64 59.169 91.64 55.7798C91.64 53.1122 90.7653 50.7507 88.9942 48.7171C87.2231 46.6836 85.3426 45.6778 83.3309 45.6778C82.828 45.6778 81.7347 46.0058 79.9855 46.6399C78.2799 47.274 76.7493 47.6457 75.3936 47.755ZM17.2741 50.4664C17.2085 50.204 17.1648 49.9416 17.1429 49.8323C16.9024 48.6515 16.9461 47.3833 17.2741 46.2244C17.7551 44.4752 18.4767 42.8789 19.3295 41.3265C19.6575 40.7361 20.0073 40.1676 20.3572 39.5991C20.379 39.5991 20.379 39.5772 20.379 39.5772C20.379 39.5772 20.379 39.5553 20.4009 39.5553C20.554 39.2929 20.7289 39.0306 20.9038 38.79V38.7682C20.9038 38.7682 20.9257 38.7682 20.9257 38.7463C21.6691 37.653 22.4563 36.5816 23.2435 35.532C22.2814 36.4066 21.363 37.3906 20.5102 38.4183C20.5102 38.4402 20.5102 38.4402 20.5102 38.4402C20.5102 38.4402 20.5102 38.462 20.4884 38.462C20.1604 38.8556 19.8324 39.2711 19.5263 39.6865C19.5044 39.6865 19.5044 39.6865 19.5044 39.7084L19.4825 39.7303C19.242 40.0364 19.0015 40.3644 18.761 40.6705C16.9898 42.9664 16.0715 45.6778 15.175 48.411C15.1531 48.5203 15.0875 48.5859 15.0219 48.6297C14.8032 48.7827 14.4753 48.6953 14.3878 48.411C13.6006 46.0714 13.4476 43.5131 13.9723 41.1078V41.0859V41.0641C14.3222 39.446 14.9782 37.9154 15.9621 36.5597C15.984 36.5597 15.984 36.5597 15.984 36.5378C15.984 36.5378 15.984 36.5378 16.0059 36.5378C16.1152 36.3629 16.2464 36.2099 16.3776 36.0568C16.3994 36.0131 16.4432 35.9693 16.465 35.9256C16.4869 35.9256 16.4869 35.9256 16.4869 35.9037C16.4869 35.9037 16.4869 35.9037 16.5088 35.9037C17.0336 35.2696 17.5802 34.7011 18.1706 34.1326C18.1706 34.1326 18.1706 34.1326 18.1925 34.1326V34.1107C19.9417 32.4708 21.9097 31.0714 23.812 29.6064C25.3645 28.4037 26.9388 26.9824 28.0102 25.2769C28.054 25.2332 28.0977 25.1894 28.1414 25.1457C28.4038 24.9708 28.8193 25.1676 28.7974 25.5393C28.4694 29.2346 29.4097 32.8425 28.7974 36.5378C28.2289 39.9271 26.742 43.1851 24.2274 45.5903C23.0467 46.7055 21.6691 47.5582 20.3572 48.4985C19.7012 48.9795 19.0452 49.4824 18.433 50.051C18.3018 50.1822 18.1706 50.3134 18.0613 50.4445C15.0438 58.4475 16.7056 64.4387 23.4403 70.0801C28.0321 73.9285 33.4548 75.8527 39.7085 75.8527C43.7755 75.8527 47.5802 74.9781 51.1006 73.2069C54.5992 71.4577 58.0102 68.7026 61.312 64.9635C56.1079 60.4154 52.1502 55.43 49.4607 50.0291C46.7493 44.6282 45.3936 39.0087 45.3936 33.1705C45.3936 27.704 46.793 23.4402 49.5919 20.3789C52.3907 17.2959 56.3047 15.7871 61.312 15.7871C64.2639 15.7871 69.3805 16.9241 76.6837 19.1982C78.7172 19.8104 80.2697 20.2915 81.3849 20.6413C83.8557 21.3629 86.0204 21.8877 87.879 22.1938C89.7376 22.5437 91.5088 22.6967 93.2143 22.6967H94.6793C96.4505 21.3848 98.1123 20.4008 99.7085 19.7011C101.305 19.0014 102.639 18.6515 103.732 18.6515C104.453 18.6515 105.087 18.8483 105.59 19.2419C106.093 19.6355 106.356 20.1384 106.356 20.7288C106.356 21.9096 105.459 22.8498 103.644 23.5495C101.851 24.2492 99.3805 24.5991 96.2318 24.5991H95.7289C92.7114 25.3206 89.8251 27.0699 87.0919 29.9125C84.3805 32.7332 81.5817 36.8221 78.7172 42.1792C79.8105 42.3979 80.7508 42.6166 81.5817 42.8571C82.4126 43.0757 83.156 43.2944 83.8339 43.5349C87.5292 42.4854 91.0059 40.7798 94.2858 38.4183C95.0729 37.8498 95.554 37.5655 95.7289 37.5655C95.8382 37.5655 95.9476 37.6093 96.035 37.7186C96.1006 37.8279 96.1443 37.9373 96.1443 38.0685C96.1443 38.7244 95.1604 39.6865 93.1487 40.9547C91.1371 42.223 88.6662 43.36 85.7362 44.4096C88.0977 45.6778 89.8907 47.2959 91.1371 49.3075C92.4053 51.2973 93.0394 53.5276 93.0394 55.9548C93.0394 59.8469 91.3557 63.3236 88.0102 66.4504C84.6866 69.5335 80.8382 71.1078 76.5088 71.1078C74.5408 71.1078 72.4417 70.6705 70.1677 69.8615C67.9155 69.0306 65.3572 67.7186 62.4927 65.9475C58.0102 70.6705 53.5933 74.169 49.1983 76.3994C44.8032 78.6297 40.1895 79.7448 35.3572 79.7448C29.5627 79.7448 24.7304 77.7332 20.8601 73.688C17.121 69.774 15.1968 64.8542 15.0656 58.9285C15.0219 56.6545 16.4213 52.6093 17.2741 50.4664ZM63.8703 61.6836C65.7508 59.1909 67.4126 56.8294 68.812 54.5553C70.2333 52.2813 71.414 50.1166 72.398 48.0174C70.0365 47.93 68.3747 47.6676 67.4126 47.2084C66.4286 46.7273 65.9476 46.0058 65.9476 44.9999C65.9476 43.9066 66.5598 43.0539 67.828 42.4416C69.0744 41.8294 70.8455 41.5451 73.1196 41.5451C73.2289 41.5451 73.5788 41.5889 74.1691 41.6545C74.7595 41.7201 75.3062 41.7638 75.8091 41.7857C78.7391 36.7565 81.4067 32.9956 83.7901 30.5247C86.1954 28.032 88.7974 26.239 91.5962 25.102C90.1968 25.1894 88.9942 25.2769 88.0102 25.3206C87.0481 25.3644 86.2391 25.3644 85.6487 25.3644C82.0846 25.3644 77.2085 24.7521 70.9986 23.5058C64.8324 22.2813 60.4592 21.6472 57.9228 21.6472C54.14 21.6472 51.3193 22.6093 49.4388 24.5553C47.5583 26.4795 46.6181 29.344 46.6181 33.1705C46.6181 37.9591 48.1487 42.9445 51.2537 48.1268C54.3586 53.309 58.5569 57.8134 63.8703 61.6836Z"
        fill="#FEFEFE"
      />
      <path
        d="M10.7362 104.758V90.3047H18.1269V91.1575H11.6983V96.4709H17.5802V97.3018H11.6983V104.758H10.7362ZM102.201 92.7318C103.076 92.6662 103.972 92.6443 104.891 92.6443C105.809 92.6443 106.596 92.863 107.252 93.3222C107.93 93.7595 108.258 94.4155 108.258 95.2682C108.258 95.9024 108.083 96.5146 107.733 97.0612C107.383 97.6079 106.946 98.0233 106.465 98.3076C107.252 98.5481 107.93 98.9854 108.455 99.5758C109.002 100.188 109.264 100.866 109.264 101.631C109.264 102.681 108.936 103.49 108.28 104.036C107.602 104.583 106.684 104.867 105.525 104.867C104.366 104.867 103.251 104.824 102.201 104.714V92.7318ZM105.612 104.124C106.443 104.124 107.121 103.905 107.646 103.446C108.171 102.987 108.433 102.418 108.433 101.697C108.433 100.997 108.171 100.385 107.668 99.8601C107.143 99.3572 106.443 99.0073 105.569 98.8105C105.153 98.7231 104.672 98.6793 104.125 98.6793C103.579 98.6793 103.207 98.6793 103.01 98.6793V104.058C103.491 104.102 104.366 104.124 105.612 104.124ZM107.449 95.2464C107.449 94.6341 107.209 94.1531 106.684 93.8251C106.181 93.4752 105.612 93.3222 104.978 93.3222C104.322 93.3222 103.688 93.344 103.01 93.3878V97.9796C103.141 97.9796 103.426 97.9796 103.819 97.9796C104.235 97.9796 104.825 98.0233 105.612 98.0889C106.115 97.8047 106.553 97.433 106.924 96.9301C107.274 96.4053 107.449 95.8586 107.449 95.2464ZM98.156 103.577C97.3689 104.496 96.1881 104.955 94.6138 104.955C93.0175 104.955 91.8368 104.496 91.0715 103.577C90.2843 102.659 89.8907 101.391 89.8907 99.7945V92.7099H90.6998V99.7945C90.6998 102.768 91.9899 104.255 94.5919 104.255C97.1939 104.255 98.5059 102.768 98.5059 99.7945V92.7099H99.3149V99.7945C99.3149 101.413 98.9213 102.659 98.156 103.577ZM85.8674 104.758V97.5204H75.9403V104.758H74.9782V90.3047H75.9403V96.6458H85.8674V90.3047H86.8514V104.758H85.8674ZM66.4724 104.758V92.7099H67.2814V104.015H72.8135V104.758H66.4724ZM56.5452 100.582L54.8178 104.758H53.9651L59.038 92.6225H59.4971L64.5919 104.758H63.6735L61.9461 100.582H56.5452ZM59.2129 93.9782C59.191 93.9782 59.1692 94.0438 59.1473 94.1749C58.9942 94.656 58.8412 95.0715 58.6881 95.3994L56.8295 99.8819H61.6619L59.8033 95.4213C59.4097 94.5685 59.2129 94.0875 59.2129 93.9782ZM42.4417 104.758V92.7537C43.4913 92.6881 44.3878 92.6443 45.1094 92.6443C46.2683 92.6443 47.2085 92.9286 47.9519 93.519C48.6954 94.1094 49.0671 94.9403 49.0671 96.0336C49.0671 96.7551 48.8485 97.433 48.4111 98.0671C47.9957 98.7012 47.5146 99.2041 46.9899 99.5758C47.4053 100.144 47.9082 100.822 48.5205 101.609C49.1327 102.397 49.5263 102.899 49.7231 103.096C50.4009 103.84 51.1662 104.255 52.0409 104.343L52.019 104.889C51.3412 104.889 50.7726 104.78 50.3572 104.583C49.9199 104.386 49.5263 104.08 49.1327 103.687C48.7391 103.271 47.777 102.025 46.2464 99.9038C45.1531 99.9038 44.1473 99.8601 43.2508 99.7945V104.758H42.4417ZM45.7654 99.226C46.2464 99.226 46.7712 98.898 47.3397 98.242C47.9082 97.6079 48.1706 96.8426 48.1706 95.9898C48.1706 95.1152 47.8864 94.4811 47.3178 94.0219C46.7275 93.5846 45.9622 93.3659 45.0219 93.3659C44.4971 93.3659 43.9286 93.3878 43.2508 93.4315V99.1385C44.1473 99.2041 44.9782 99.226 45.7654 99.226ZM29.3222 102.637C28.2071 101.434 27.6604 99.9694 27.6604 98.1983C27.6604 96.449 28.2071 94.984 29.3222 93.7814C30.4374 92.5787 31.8587 91.9884 33.5642 91.9884C35.2697 91.9884 36.691 92.5787 37.8062 93.7814C38.9432 94.984 39.4899 96.449 39.4899 98.1983C39.4899 99.9694 38.9432 101.434 37.8062 102.637C36.691 103.84 35.2697 104.452 33.5642 104.452C31.8587 104.452 30.4374 103.84 29.3222 102.637ZM29.9345 94.3061C28.9942 95.3557 28.535 96.6677 28.535 98.1983C28.535 99.7508 28.9942 101.063 29.9345 102.112C30.8747 103.184 32.0773 103.708 33.5861 103.708C35.0729 103.708 36.2756 103.184 37.2158 102.112C38.156 101.063 38.6152 99.7508 38.6152 98.1983C38.6152 96.6677 38.156 95.3557 37.2158 94.3061C36.2756 93.2566 35.0511 92.7318 33.5642 92.7318C32.0773 92.7318 30.8528 93.2566 29.9345 94.3061ZM20.0292 104.758V92.7099H20.8382V104.015H26.3922V104.758H20.0292Z"
        stroke="#FEFEFE"
        strokeWidth="0.673968"
        strokeLinecap="round"
        strokeLinejoin="round"
      />
      <path
        d="M10.7362 104.758V90.3047H18.1269V91.1575H11.6983V96.4709H17.5802V97.3018H11.6983V104.758H10.7362ZM102.201 92.7318C103.076 92.6662 103.972 92.6443 104.891 92.6443C105.809 92.6443 106.596 92.863 107.252 93.3222C107.93 93.7595 108.258 94.4155 108.258 95.2682C108.258 95.9024 108.083 96.5146 107.733 97.0612C107.383 97.6079 106.946 98.0233 106.465 98.3076C107.252 98.5481 107.93 98.9854 108.455 99.5758C109.002 100.188 109.264 100.866 109.264 101.631C109.264 102.681 108.936 103.49 108.28 104.036C107.602 104.583 106.684 104.867 105.525 104.867C104.366 104.867 103.251 104.824 102.201 104.714V92.7318ZM105.612 104.124C106.443 104.124 107.121 103.905 107.646 103.446C108.171 102.987 108.433 102.418 108.433 101.697C108.433 100.997 108.171 100.385 107.668 99.8601C107.143 99.3572 106.443 99.0073 105.569 98.8105C105.153 98.7231 104.672 98.6793 104.125 98.6793C103.579 98.6793 103.207 98.6793 103.01 98.6793V104.058C103.491 104.102 104.366 104.124 105.612 104.124ZM107.449 95.2464C107.449 94.6341 107.209 94.1531 106.684 93.8251C106.181 93.4752 105.612 93.3222 104.978 93.3222C104.322 93.3222 103.688 93.344 103.01 93.3878V97.9796C103.141 97.9796 103.426 97.9796 103.819 97.9796C104.235 97.9796 104.825 98.0233 105.612 98.0889C106.115 97.8047 106.553 97.433 106.924 96.9301C107.274 96.4053 107.449 95.8586 107.449 95.2464ZM98.156 103.577C97.3689 104.496 96.1881 104.955 94.6138 104.955C93.0175 104.955 91.8368 104.496 91.0715 103.577C90.2843 102.659 89.8907 101.391 89.8907 99.7945V92.7099H90.6998V99.7945C90.6998 102.768 91.9899 104.255 94.5919 104.255C97.1939 104.255 98.5059 102.768 98.5059 99.7945V92.7099H99.3149V99.7945C99.3149 101.413 98.9213 102.659 98.156 103.577ZM85.8674 104.758V97.5204H75.9403V104.758H74.9782V90.3047H75.9403V96.6458H85.8674V90.3047H86.8514V104.758H85.8674ZM66.4724 104.758V92.7099H67.2814V104.015H72.8135V104.758H66.4724ZM56.5452 100.582L54.8178 104.758H53.9651L59.038 92.6225H59.4971L64.5919 104.758H63.6735L61.9461 100.582H56.5452ZM59.2129 93.9782C59.191 93.9782 59.1692 94.0438 59.1473 94.1749C58.9942 94.656 58.8412 95.0715 58.6881 95.3994L56.8295 99.8819H61.6619L59.8033 95.4213C59.4097 94.5685 59.2129 94.0875 59.2129 93.9782ZM42.4417 104.758V92.7537C43.4913 92.6881 44.3878 92.6443 45.1094 92.6443C46.2683 92.6443 47.2085 92.9286 47.952 93.519C48.6954 94.1094 49.0671 94.9403 49.0671 96.0336C49.0671 96.7551 48.8484 97.433 48.4111 98.0671C47.9957 98.7012 47.5146 99.2041 46.9898 99.5758C47.4053 100.144 47.9082 100.822 48.5205 101.609C49.1327 102.397 49.5263 102.899 49.7231 103.096C50.4009 103.84 51.1662 104.255 52.0409 104.343L52.019 104.889C51.3412 104.889 50.7726 104.78 50.3572 104.583C49.9199 104.386 49.5263 104.08 49.1327 103.687C48.7391 103.271 47.777 102.025 46.2464 99.9038C45.1531 99.9038 44.1473 99.8601 43.2508 99.7945V104.758H42.4417ZM45.7654 99.226C46.2464 99.226 46.7712 98.898 47.3397 98.242C47.9082 97.6079 48.1706 96.8426 48.1706 95.9898C48.1706 95.1152 47.8864 94.4811 47.3178 94.0219C46.7275 93.5846 45.9622 93.3659 45.0219 93.3659C44.4971 93.3659 43.9286 93.3878 43.2508 93.4315V99.1385C44.1473 99.2041 44.9782 99.226 45.7654 99.226ZM29.3222 102.637C28.2071 101.434 27.6604 99.9694 27.6604 98.1983C27.6604 96.449 28.2071 94.984 29.3222 93.7814C30.4374 92.5787 31.8587 91.9884 33.5642 91.9884C35.2697 91.9884 36.691 92.5787 37.8062 93.7814C38.9432 94.984 39.4899 96.449 39.4899 98.1983C39.4899 99.9694 38.9432 101.434 37.8062 102.637C36.691 103.84 35.2697 104.452 33.5642 104.452C31.8587 104.452 30.4374 103.84 29.3222 102.637ZM29.9345 94.3061C28.9942 95.3557 28.535 96.6677 28.535 98.1983C28.535 99.7508 28.9942 101.063 29.9345 102.112C30.8747 103.184 32.0773 103.708 33.5861 103.708C35.0729 103.708 36.2756 103.184 37.2158 102.112C38.156 101.063 38.6152 99.7508 38.6152 98.1983C38.6152 96.6677 38.156 95.3557 37.2158 94.3061C36.2756 93.2566 35.0511 92.7318 33.5642 92.7318C32.0773 92.7318 30.8528 93.2566 29.9345 94.3061ZM20.0292 104.758V92.7099H20.8382V104.015H26.3922V104.758H20.0292Z"
        fill="#FEFEFE"
      />
    </g>
    <defs>
      <clipPath id="clip0_923_52072">
        <rect width="120" height="120" fill="white" />
      </clipPath>
    </defs>
  </svg>