<svg width="18" height="18" viewBox="0 0 18 18" fill="none" xmlns="http://www.w3.org/2000/svg">
<path d="M0.869004 5.71141L8.57484 1.09141C8.70435 1.01371 8.85255 0.972656 9.00359 0.972656C9.15463 0.972656 9.30282 1.01371 9.43234 1.09141L17.1307 5.71225C17.1924 5.74926 17.2436 5.80165 17.2791 5.8643C17.3145 5.92696 17.3332 5.99774 17.3332 6.06975V16.6664C17.3332 16.8874 17.2454 17.0994 17.0891 17.2557C16.9328 17.412 16.7209 17.4997 16.4998 17.4997H1.49984C1.27882 17.4997 1.06686 17.412 0.910582 17.2557C0.754301 17.0994 0.666504 16.8874 0.666504 16.6664V6.06891C0.666489 5.99691 0.685135 5.92612 0.720625 5.86347C0.756115 5.80081 0.807236 5.74843 0.869004 5.71141ZM14.2882 6.86975L9.05067 11.4022L3.70567 6.86475L2.62734 8.13475L9.06067 13.5972L15.3782 8.13058L14.2882 6.86975V6.86975Z" fill="#4B5563"/>
</svg>
