<svg width="127" height="170" viewBox="0 0 127 170" fill="none" xmlns="http://www.w3.org/2000/svg">
<g opacity="0.03">
<path fill-rule="evenodd" clip-rule="evenodd" d="M11.537 14.2905C-1.46464 61.0963 -17.0666 132.605 63.5434 169.01C141.553 135.205 127.251 68.8973 114.25 14.2905C114.25 14.2905 66.1437 -15.6132 11.537 14.2905Z" fill="url(#paint0_radial_2128_129407)"/>
<path fill-rule="evenodd" clip-rule="evenodd" d="M7.83951 93.8893C9.13968 95.1895 11.74 96.4896 9.13968 100.39C7.83951 101.69 3.93903 104.291 1.33871 105.591C1.33871 105.591 0.0385514 106.891 2.63887 105.591C6.53935 105.591 7.83951 101.69 10.4398 104.291C11.74 104.291 13.0402 106.891 14.3403 108.191C15.6405 108.191 16.9406 108.191 16.9406 108.191C26.0418 108.191 24.7416 114.692 23.4414 108.191C23.4414 106.891 20.8411 102.99 19.541 102.99C14.3403 100.39 9.13968 104.291 15.6405 105.591C16.9406 105.591 18.2408 105.591 20.8411 106.891C19.541 104.291 15.6405 104.291 14.3403 104.291C13.0402 102.99 14.3403 102.99 15.6405 102.99C18.2408 102.99 20.8411 104.291 22.1413 106.891C22.1413 106.891 22.1413 106.891 20.8411 106.891C10.4398 109.491 14.3403 102.99 9.13968 102.99C7.83951 101.69 11.74 101.69 11.74 97.7898V96.4896C14.3403 89.9888 15.6405 89.9888 16.9406 91.289C18.2408 91.289 18.2408 93.8893 18.2408 95.1895C16.9406 96.4896 20.8411 92.5891 18.2408 87.3885C18.2408 87.3885 19.541 92.5891 16.9406 89.9888C14.3403 88.6887 13.0402 91.289 11.74 95.1895C10.4398 96.4896 10.4398 96.4896 10.4398 95.1895C7.83951 93.8893 6.53935 92.5891 6.53935 89.9888C6.53935 88.6887 6.53935 87.3885 6.53935 86.0883C6.53935 84.7882 5.23919 83.488 7.83951 84.7882C10.4398 87.3885 11.74 95.1895 10.4398 92.5891C9.13968 91.289 10.4398 89.9888 9.13968 87.3885C9.13968 87.3885 6.53935 84.7882 7.83951 86.0883C7.83951 88.6887 9.13968 88.6887 9.13968 91.289C9.13968 92.5891 9.13968 93.8893 10.4398 93.8893C11.74 95.1895 11.74 92.5891 11.74 92.5891C11.74 88.6887 7.83951 83.488 5.23919 82.1879C3.93903 80.8877 2.63887 79.5875 3.93903 83.488C7.83951 88.6887 3.93903 91.289 7.83951 93.8893Z" fill="#FEFEFE"/>
<path fill-rule="evenodd" clip-rule="evenodd" d="M11.8509 96.3926C10.5508 96.3926 10.5508 101.593 10.5508 101.593C10.5508 101.593 10.5508 100.293 11.8509 100.293C11.8509 98.9929 11.8509 96.3926 11.8509 96.3926Z" fill="#FEFEFE"/>
<path fill-rule="evenodd" clip-rule="evenodd" d="M1.73242 109.48C3.03258 109.48 3.03258 112.081 4.33274 112.081C6.93306 114.681 10.8335 112.081 13.4339 115.981C14.734 115.981 14.734 117.281 14.734 115.981C13.4339 112.081 9.53339 105.58 3.03258 106.88C3.03258 108.18 3.03258 108.18 3.03258 109.48C4.33274 110.781 5.6329 110.781 6.93306 110.781H8.23322C9.53339 110.781 12.1337 112.081 10.8335 112.081C8.23322 110.781 8.23322 109.48 5.6329 109.48C4.33274 109.48 4.33274 109.48 4.33274 108.18C4.33274 106.88 9.53339 109.48 9.53339 109.48C10.8335 110.781 12.1337 110.781 12.1337 112.081C12.1337 112.081 8.23322 113.381 4.33274 112.081C3.03258 110.781 3.03258 109.48 1.73242 109.48C1.73242 108.18 1.73242 109.48 1.73242 109.48Z" fill="#FEFEFE"/>
<path fill-rule="evenodd" clip-rule="evenodd" d="M3.14648 99.0385C4.44664 97.7384 5.74681 95.1381 7.04697 96.4382C7.04697 97.7384 8.34713 99.0385 8.34713 100.339C7.04697 101.639 9.64729 97.7384 8.34713 93.8379C8.34713 93.8379 9.64729 97.7384 7.04697 95.1381C5.74681 93.8379 3.14648 97.7384 3.14648 97.7384V99.0385Z" fill="#FEFEFE"/>
<path fill-rule="evenodd" clip-rule="evenodd" d="M12.8061 37.9253C15.4064 39.2255 18.0067 40.5257 15.4064 47.0265C14.1063 48.3266 3.70497 54.8274 1.10465 53.5273C-0.195511 57.4277 12.8061 48.3266 16.7066 50.9269C18.0067 52.2271 19.3069 54.8274 20.6071 56.1276C21.9072 57.4277 23.2074 57.4277 24.5075 57.4277C36.209 57.4277 34.9088 65.2287 33.6087 58.7279C33.6087 56.1276 29.7082 50.9269 27.1079 49.6268C20.6071 45.7263 15.4064 52.2271 23.2074 53.5273C25.8077 53.5273 27.1079 54.8274 28.408 54.8274C27.1079 52.2271 23.2074 52.2271 21.9072 50.9269C20.6071 50.9269 20.6071 49.6268 23.2074 49.6268C27.1079 50.9269 29.7082 52.2271 31.0083 56.1276C31.0083 56.1276 31.0083 56.1276 29.7082 56.1276C16.7066 57.4277 21.9072 49.6268 15.4064 49.6268C12.8061 49.6268 16.7066 48.3266 18.0067 43.126V41.8258C23.2074 32.7247 23.2074 34.0248 24.5075 35.325C25.8077 35.325 27.1079 37.9253 27.1079 39.2255C25.8077 43.126 29.7082 36.6252 27.1079 31.4245C27.1079 31.4245 28.408 36.6252 24.5075 32.7247C21.9072 31.4245 20.6071 35.325 18.0067 40.5257C16.7066 41.8258 18.0067 40.5257 15.4064 39.2255C12.8061 37.9253 11.5059 36.6252 11.5059 32.7247C12.8061 31.4245 12.8061 30.1244 12.8061 28.8242C11.5059 26.2239 11.5059 24.9237 14.1063 27.524C18.0067 31.4245 18.0067 40.5257 16.7066 37.9253C15.4064 35.325 16.7066 32.7247 15.4064 30.1244C14.1063 30.1244 12.8061 27.524 12.8061 28.8242C14.1063 31.4245 14.1063 31.4245 14.1063 35.325C14.1063 36.6252 14.1063 37.9253 16.7066 39.2255C18.0067 39.2255 19.3069 37.9253 19.3069 36.6252C19.3069 31.4245 14.1063 26.2239 10.2058 23.6236C7.60545 22.3234 6.30529 19.7231 10.2058 24.9237C12.8061 31.4245 8.90561 35.325 12.8061 37.9253Z" fill="#FEFEFE"/>
<path fill-rule="evenodd" clip-rule="evenodd" d="M18.1869 41.7789C16.8867 40.4787 16.8867 49.5798 16.8867 48.2797C16.8867 48.2797 16.8867 46.9795 18.1869 45.6794C18.1869 44.3792 19.487 41.7789 18.1869 41.7789Z" fill="#FEFEFE"/>
<path fill-rule="evenodd" clip-rule="evenodd" d="M1.72461 58.7887C3.02477 58.7887 4.32493 61.389 5.62509 62.6892C8.22541 65.2895 13.4261 61.389 18.6267 66.5897C19.9269 67.8898 19.9269 69.19 18.6267 66.5897C17.3265 61.389 12.1259 53.5881 4.32493 56.1884C3.02477 56.1884 3.02477 57.4885 4.32493 57.4885C5.62509 60.0889 6.92525 60.0889 8.22541 60.0889C9.52557 60.0889 10.8257 60.0889 10.8257 60.0889C13.4261 61.389 16.0264 62.6892 13.4261 61.389C12.1259 60.0889 10.8257 58.7887 8.22541 58.7887C6.92525 58.7887 5.62509 57.4885 5.62509 57.4885C6.92525 56.1884 12.1259 58.7887 12.1259 58.7887C14.7262 60.0889 14.7262 61.389 16.0264 62.6892C16.0264 62.6892 10.8257 62.6892 6.92525 61.389C4.32493 61.389 4.32493 58.7887 3.02477 57.4885C1.72461 57.4885 3.02477 58.7887 1.72461 58.7887Z" fill="#FEFEFE"/>
<path fill-rule="evenodd" clip-rule="evenodd" d="M5.73313 41.8775C5.73313 43.1776 8.33345 34.0765 8.33345 40.5773C8.33345 40.5773 3.13281 50.9786 3.13281 45.778C3.13281 45.778 5.73313 43.1776 5.73313 41.8775Z" fill="#FEFEFE"/>
<path fill-rule="evenodd" clip-rule="evenodd" d="M48.2006 104.213C32.5986 101.612 61.2022 158.819 79.4044 161.42L84.6051 158.819C82.0047 160.12 74.2038 154.919 74.2038 154.919C58.6019 140.617 53.4012 118.515 52.1011 112.014C52.1011 109.413 50.8009 109.413 53.4012 109.413C63.8025 109.413 97.6067 102.913 113.209 88.6108C166.515 39.2047 49.5007 1.50005 28.6982 2.80021L18.2969 6.70069C44.3001 0.199888 163.915 48.3058 101.507 91.2111C93.7062 97.7119 61.2022 110.714 48.2006 104.213Z" fill="#FEFEFE"/>
<path fill-rule="evenodd" clip-rule="evenodd" d="M48.2418 22.3418C48.2418 22.3418 54.7426 26.2423 54.7426 28.8426C54.7426 32.7431 54.7426 40.544 59.9432 43.1444C66.444 45.7447 65.1439 49.6452 65.1439 49.6452C65.1439 49.6452 65.1439 54.8458 61.2434 57.4461C57.3429 61.3466 40.4408 88.65 40.4408 88.65L28.7394 106.852C28.7394 106.852 10.5371 138.056 10.5371 139.356L14.4376 144.557C22.2386 126.355 39.1406 97.7511 50.8421 80.849C52.1423 78.2487 52.1423 78.2487 53.4424 75.6484C59.9432 63.9469 75.5451 50.9453 67.7442 47.0448L66.444 48.345L65.1439 45.7447V44.4445C63.8437 43.1444 62.5435 41.8442 59.9432 40.544C53.4424 37.9437 58.6431 28.8426 54.7426 26.2423C54.7426 26.2423 61.2434 27.5424 62.5435 31.4429C65.1439 35.3434 65.1439 40.544 65.1439 40.544C65.1439 40.544 63.8437 41.8442 62.5435 37.9437C61.2434 34.0432 61.2434 32.7431 59.9432 31.4429C58.6431 30.1428 57.3429 28.8426 57.3429 30.1428C57.3429 30.1428 59.9432 32.7431 61.2434 35.3434C61.2434 37.9437 62.5435 40.544 62.5435 41.8442C62.5435 41.8442 66.444 44.4445 66.444 39.2439C67.7442 31.4429 56.0427 22.3418 48.2418 22.3418Z" fill="#FEFEFE"/>
<path fill-rule="evenodd" clip-rule="evenodd" d="M99.0742 148.425C97.774 148.425 96.4739 149.725 97.774 152.325C99.0742 153.625 102.975 156.226 104.275 156.226C104.275 156.226 104.275 157.526 102.975 156.226C100.374 156.226 99.0742 153.625 96.4739 154.926C96.4739 156.226 95.1737 157.526 93.8736 158.826H92.5734C86.0726 158.826 86.0726 164.027 87.3727 158.826C87.3727 157.526 89.9731 154.926 91.2732 154.926C95.1737 152.325 97.774 156.226 93.8736 156.226C92.5734 156.226 91.2732 157.526 89.9731 157.526C91.2732 156.226 93.8736 156.226 93.8736 156.226C95.1737 154.926 93.8736 154.926 93.8736 154.926C91.2732 154.926 89.9731 156.226 88.6729 157.526C88.6729 158.826 88.6729 158.826 88.6729 158.826C97.774 158.826 93.8736 154.926 97.774 154.926C99.0742 153.625 96.4739 153.625 96.4739 151.025V149.725C93.8736 144.524 92.5734 145.824 92.5734 145.824C91.2732 147.125 91.2732 148.425 91.2732 148.425C91.2732 151.025 89.9731 147.125 91.2732 143.224C91.2732 143.224 89.9731 147.125 92.5734 144.524C93.8736 144.524 95.1737 145.824 96.4739 148.425C96.4739 149.725 96.4739 149.725 97.774 148.425C99.0742 147.125 100.374 147.125 100.374 144.524C99.0742 144.524 99.0742 143.224 99.0742 141.924C100.374 140.624 100.374 139.324 99.0742 141.924C96.4739 143.224 96.4739 149.725 97.774 147.125C97.774 147.125 97.774 144.524 97.774 143.224L99.0742 141.924C99.0742 144.524 97.774 144.524 97.774 145.824C97.774 147.125 97.774 148.425 96.4739 148.425V147.125C95.1737 143.224 97.774 140.624 100.374 139.324C101.675 138.023 102.975 136.723 101.675 140.624C99.0742 144.524 101.675 145.824 99.0742 148.425Z" fill="#FEFEFE"/>
<path fill-rule="evenodd" clip-rule="evenodd" d="M96.1895 149.745L97.2729 152.996L96.1895 151.912V149.745Z" fill="#FEFEFE"/>
<path fill-rule="evenodd" clip-rule="evenodd" d="M104.124 160.138L102.824 161.438C100.224 164.038 97.6235 161.438 95.0232 164.038C95.0232 165.338 93.723 165.338 95.0232 164.038C95.0232 161.438 98.9236 156.237 102.824 157.537C104.124 158.837 104.124 158.837 102.824 158.837C102.824 160.138 101.524 160.138 101.524 160.138C100.224 160.138 100.224 160.138 98.9236 160.138C97.6235 161.438 96.3233 161.438 97.6235 161.438C98.9236 160.138 100.224 160.138 101.524 160.138L102.824 158.837C101.524 157.537 98.9236 160.138 98.9236 160.138C97.6235 160.138 96.3233 161.438 96.3233 161.438C96.3233 161.438 98.9236 162.738 102.824 161.438C102.824 161.438 102.824 160.138 104.124 158.837V160.138Z" fill="#FEFEFE"/>
<path fill-rule="evenodd" clip-rule="evenodd" d="M103.172 149.74C103.172 149.74 100.572 145.839 101.872 148.44C101.872 148.44 104.472 154.941 104.472 152.34C104.472 152.34 103.172 151.04 103.172 149.74Z" fill="#FEFEFE"/>
<path fill-rule="evenodd" clip-rule="evenodd" d="M116.076 106.851C113.476 108.152 109.575 109.452 113.476 114.652C114.776 117.253 121.277 119.853 123.877 121.153C123.877 121.153 125.177 122.453 121.277 121.153C117.376 121.153 114.776 117.253 112.176 119.853C109.575 119.853 109.575 123.754 106.975 125.054H104.375C92.6731 125.054 93.9733 132.855 95.2735 126.354C95.2735 123.754 99.1739 119.853 101.774 118.553C108.275 114.652 113.476 119.853 105.675 121.153C103.074 121.153 101.774 122.453 99.1739 122.453C100.474 119.853 105.675 119.853 106.975 119.853C108.275 118.553 106.975 117.253 105.675 118.553C101.774 118.553 99.1739 119.853 97.8738 123.754C112.176 126.354 106.975 118.553 113.476 117.253C116.076 117.253 110.875 115.953 110.875 112.052C110.875 110.752 110.875 110.752 110.875 110.752C110.875 110.752 109.575 110.752 109.575 109.452C105.675 101.651 105.675 101.651 103.074 102.951C101.774 104.251 100.474 106.851 101.774 108.152C103.074 110.752 99.1739 104.251 101.774 99.0505C100.474 99.0505 100.474 104.251 103.074 101.651C105.675 100.351 108.275 104.251 110.875 108.152C110.875 110.752 110.875 109.452 112.176 108.152C114.776 105.551 117.376 104.251 116.076 100.351C116.076 99.0505 116.076 97.7503 116.076 96.4502C116.076 95.15 117.376 92.5497 114.776 95.15C110.875 99.0505 110.875 109.452 112.176 105.551C113.476 104.251 112.176 101.651 113.476 97.7503C113.476 97.7503 116.076 95.15 114.776 97.7503C114.776 99.0505 113.476 100.351 113.476 102.951C113.476 104.251 113.476 106.851 112.176 106.851C109.575 108.152 109.575 105.551 109.575 104.251C109.575 99.0505 113.476 93.8499 118.676 91.2495C119.977 89.9494 121.277 87.3491 118.676 92.5497C114.776 99.0505 119.977 102.951 116.076 106.851Z" fill="#FEFEFE"/>
<path fill-rule="evenodd" clip-rule="evenodd" d="M110.875 109.453L112.175 117.254C112.175 117.254 112.175 114.654 110.875 114.654C110.875 113.354 109.575 109.453 110.875 109.453Z" fill="#FEFEFE"/>
<path fill-rule="evenodd" clip-rule="evenodd" d="M125.292 126.324C123.992 127.625 122.692 128.925 121.392 130.225C118.791 132.825 113.591 128.925 109.69 134.125C108.39 135.426 107.09 136.726 108.39 135.426C109.69 128.925 116.191 121.124 122.692 123.724C123.992 125.024 123.992 125.024 122.692 126.324C121.392 127.625 120.092 127.625 118.791 127.625C117.491 127.625 117.491 127.625 116.191 127.625C113.591 128.925 112.291 130.225 113.591 128.925C116.191 127.625 116.191 127.625 118.791 126.324C120.092 126.324 122.692 126.324 121.392 125.024C121.392 123.724 114.891 126.324 114.891 126.324C113.591 127.625 112.291 128.925 110.99 130.225C110.99 130.225 116.191 131.525 121.392 128.925C122.692 128.925 122.692 127.625 123.992 126.324C125.292 125.024 123.992 126.324 125.292 126.324Z" fill="#FEFEFE"/>
<path fill-rule="evenodd" clip-rule="evenodd" d="M122.707 109.566C122.707 110.866 118.807 103.065 120.107 108.266C120.107 108.266 124.008 118.667 124.008 114.767C124.008 114.767 121.407 110.866 122.707 109.566Z" fill="#FEFEFE"/>
<path fill-rule="evenodd" clip-rule="evenodd" d="M11.537 14.2905C-1.46464 61.0963 -17.0666 132.605 63.5434 169.01C141.553 135.205 127.251 68.8973 114.25 14.2905C114.25 14.2905 66.1437 -15.6132 11.537 14.2905Z" stroke="#FEFEFE" stroke-width="0.0827015"/>
</g>
<defs>
<radialGradient id="paint0_radial_2128_129407" cx="0" cy="0" r="1" gradientUnits="userSpaceOnUse" gradientTransform="translate(27.3798 33.2589) rotate(-179.013) scale(406.831 406.815)">
<stop stop-color="#FF0000"/>
<stop offset="0.901961" stop-color="#8F0F0F"/>
<stop offset="1" stop-color="#201E1E"/>
</radialGradient>
</defs>
</svg>
