<svg width="24" height="24" viewBox="0 0 24 24" fill="none" xmlns="http://www.w3.org/2000/svg">
<path d="M12 2C17.5228 2 22 6.47715 22 12C22 17.5228 17.5228 22 12 22C6.47715 22 2 17.5228 2 12C2 6.47715 6.47715 2 12 2Z" stroke="#4B5563" stroke-width="2" stroke-linecap="round" stroke-linejoin="round"/>
<path d="M12.5 16V18M10 16V12H13.5C14.0304 12 14.5391 12.2107 14.9142 12.5858C15.2893 12.9609 15.5 13.4696 15.5 14C15.5 14.5304 15.2893 15.0391 14.9142 15.4142C14.5391 15.7893 14.0304 16 13.5 16H12.5H10ZM10 16H8H10ZM10 16V18V16ZM10 16H12.5H10Z" stroke="#4B5563" stroke-width="2" stroke-linecap="round" stroke-linejoin="round"/>
<path d="M12.5 8V6M10 8V12H14.5C15.0304 12 15.5391 11.7893 15.9142 11.4142C16.2893 11.0391 16.5 10.5304 16.5 10C16.5 9.46957 16.2893 8.96086 15.9142 8.58579C15.5391 8.21071 15.0304 8 14.5 8H12.5H10ZM10 8V6V8ZM10 8H8H12.5H10ZM10 8H12.5H10Z" stroke="#4B5563" stroke-width="2" stroke-linecap="round" stroke-linejoin="round"/>
</svg>
