<svg width="24" height="24" viewBox="0 0 24 24" fill="none" xmlns="http://www.w3.org/2000/svg">
<g clip-path="url(#clip0_1120_45651)">
<path d="M23.6405 14.9029C22.0377 21.3315 15.5262 25.2435 9.09686 23.6407C2.67048 22.038 -1.24189 15.5265 0.361231 9.09823C1.96323 2.66885 8.47436 -1.2439 14.9019 0.358854C21.3309 1.9616 25.2429 8.47386 23.6401 14.9029H23.6405Z" fill="#F7931A"/>
<path d="M17.2914 10.2903C17.5299 8.69353 16.3142 7.83515 14.6518 7.26253L15.1911 5.09953L13.8741 4.7714L13.3491 6.8774C13.0033 6.79115 12.6478 6.70978 12.2946 6.62915L12.8233 4.50928L11.5074 4.18115L10.9678 6.3434C10.6813 6.27815 10.4001 6.21365 10.1271 6.14578L10.1286 6.13903L8.31282 5.68565L7.96257 7.0919C7.96257 7.0919 8.93945 7.31578 8.91882 7.32965C9.45207 7.46278 9.54882 7.81565 9.53232 8.0954L8.91807 10.5595C8.95482 10.5689 9.00244 10.5824 9.05494 10.6034L8.91619 10.5689L8.05482 14.0208C7.98957 14.1828 7.8242 14.4258 7.45145 14.3335C7.46457 14.3527 6.49445 14.0947 6.49445 14.0947L5.84082 15.6022L7.55457 16.0293C7.87332 16.1092 8.18569 16.1928 8.49282 16.2715L7.94795 18.4597L9.26307 18.7878L9.80307 16.6233C10.1619 16.7208 10.5107 16.8108 10.8519 16.8955L10.3142 19.0499L11.6308 19.378L12.1757 17.1944C14.4208 17.6193 16.1094 17.4479 16.8193 15.4177C17.3919 13.7827 16.7912 12.8395 15.6099 12.2242C16.4702 12.025 17.1182 11.4592 17.2911 10.2903H17.2914ZM14.2828 14.5087C13.8756 16.1437 11.1231 15.2602 10.2302 15.0382L10.9532 12.1398C11.8457 12.3625 14.7073 12.8035 14.2832 14.5087H14.2828ZM14.6897 10.2667C14.3184 11.7539 12.0272 10.9983 11.2836 10.813L11.9391 8.18428C12.6827 8.36953 15.0767 8.71528 14.6897 10.2667Z" fill="white"/>
</g>
<defs>
<clipPath id="clip0_1120_45651">
<rect width="24" height="24" fill="white"/>
</clipPath>
</defs>
</svg>
