<svg width="84" height="100" viewBox="0 0 84 100" fill="none" xmlns="http://www.w3.org/2000/svg">
<path fill-rule="evenodd" clip-rule="evenodd" d="M17.2399 47.574H66.7159V91.464C66.7159 94.789 67.3809 94.257 64.0559 95.454C49.0269 100.375 33.9979 102.104 19.1019 95.321C16.4419 94.257 17.2399 94.124 17.2399 91.464V47.574Z" fill="black" stroke="black" stroke-width="0.0208307"/>
<path fill-rule="evenodd" clip-rule="evenodd" d="M41.978 64.332C42.111 64.066 43.308 64.731 44.505 66.992C44.771 66.859 45.303 66.46 45.569 66.327C46.633 65.795 47.697 65.263 48.628 64.864C51.288 63.667 53.283 63.268 54.48 63.268C54.613 63.268 54.613 63.268 54.613 63.268C56.209 63.135 56.874 63.667 56.874 63.667V63.534C56.741 62.736 55.145 59.81 55.145 59.81C48.628 58.746 42.643 65.396 42.111 63.401C42.111 63.534 42.111 63.667 42.111 63.933C42.111 64.066 42.111 64.199 41.978 64.332Z" fill="white"/>
<path fill-rule="evenodd" clip-rule="evenodd" d="M44.9041 67.7899C45.1701 67.7899 45.7021 67.7899 45.8351 67.7899C47.2981 67.9229 55.2781 67.7899 56.8741 66.0609C57.8051 64.9969 57.6721 64.0659 56.8741 63.5339V63.6669C56.8741 63.6669 56.2091 63.1349 54.6131 63.2679C54.0811 63.7999 52.3521 65.1299 48.3621 64.9969C47.5641 65.3959 46.6331 65.7949 45.5691 66.3269C45.3031 66.4599 44.7711 66.8589 44.5051 66.9919C44.6381 67.2579 44.7711 67.5239 44.9041 67.7899Z" fill="white"/>
<path fill-rule="evenodd" clip-rule="evenodd" d="M57.14 65.795C57.14 65.795 64.721 63.933 68.179 62.071V59.145C66.716 59.677 58.204 63.002 56.741 63.268C56.741 63.401 56.874 63.534 56.874 63.534C57.672 63.933 57.805 64.731 57.14 65.795Z" fill="white"/>
<path d="M21.3628 12.1959C21.2298 9.93492 21.4958 8.07292 22.1608 6.60992C22.6928 5.14692 23.6238 4.08292 24.6878 3.41792C25.8848 2.88592 27.3478 2.75292 28.9438 3.15192C30.5398 3.41792 32.5348 4.34892 34.5298 5.81192C34.7958 5.94492 34.9288 6.07792 34.9288 6.07792C35.0618 6.21092 35.1948 6.34392 35.1948 6.34392C35.1948 6.34392 35.3278 6.34392 35.4608 6.34392C35.5938 6.21092 35.7268 6.21092 35.9928 6.21092C36.9238 6.21092 38.5198 6.21092 39.9828 6.47692C41.5788 6.74292 43.1748 7.27492 43.8398 8.33892C44.7708 9.80192 45.7018 11.6639 45.4358 13.5259C45.3028 15.5209 44.1058 17.6489 41.0468 19.3779C40.7808 19.5109 40.6478 19.6439 40.5148 19.7769C40.3818 19.7769 40.3818 19.7769 40.3818 19.7769C40.3818 19.7769 40.3818 19.7769 40.3818 19.9099C40.3818 20.0429 40.3818 20.1759 40.5148 20.4419C40.5148 21.1069 40.6478 22.1709 40.5148 23.2349C40.3818 24.0329 40.1158 24.8309 39.7168 25.6289L39.1848 25.3629C39.5838 24.6979 39.7168 23.8999 39.8498 23.2349C39.9828 22.1709 39.9828 21.2399 39.8498 20.5749C39.8498 20.3089 39.8498 20.1759 39.8498 20.0429C39.7168 19.7769 39.7168 19.6439 39.8498 19.5109C39.8498 19.3779 39.9828 19.2449 40.2488 19.2449C40.3818 19.1119 40.5148 19.1119 40.7808 18.9789C43.7068 17.2499 44.7708 15.2549 44.9038 13.5259C45.0368 11.6639 44.2388 10.0679 43.4408 8.73792C42.7758 7.67392 41.4458 7.27492 39.9828 7.00892C38.5198 6.74292 36.9238 6.74292 35.9928 6.87592C35.8598 6.87592 35.5938 6.87592 35.5938 6.87592C35.3278 6.87592 35.1948 6.87592 35.0618 6.87592C34.9288 6.87592 34.7958 6.74292 34.6628 6.60992C34.5298 6.47692 34.3968 6.47692 34.2638 6.34392C32.2688 4.88092 30.4068 4.08292 28.8108 3.68392C27.3478 3.28492 26.0178 3.41792 24.9538 3.94992C24.0228 4.48192 23.2248 5.54592 22.6928 6.87592C22.1608 8.20592 21.8948 10.0679 21.8948 12.1959H21.3628ZM37.5888 28.0229C37.4558 28.1559 37.1898 28.2889 36.9238 28.4219C36.7908 28.4219 36.5248 28.5549 36.2588 28.6879C33.5988 29.4859 31.4708 29.3529 29.8748 28.4219C28.1458 27.4909 26.9488 25.8949 26.1508 24.1659C26.0178 24.0329 26.1508 24.0329 26.1508 24.0329C26.0178 24.0329 26.0178 24.1659 25.8848 24.1659C25.7518 24.1659 25.4858 24.2989 25.3528 24.4319C25.2198 24.4319 24.9538 24.5649 24.8208 24.6979L24.5548 24.1659C24.6878 24.0329 24.9538 23.8999 25.0868 23.8999C25.3528 23.7669 25.4858 23.6339 25.7518 23.6339V23.5009C25.8848 23.5009 25.8848 23.5009 26.0178 23.5009C26.4168 23.3679 26.4168 23.3679 26.6828 23.8999C27.4808 25.6289 28.5448 27.0919 30.1408 27.8899C31.6038 28.6879 33.5988 28.9539 36.1258 28.1559C36.3918 28.0229 36.5248 27.8899 36.7908 27.8899C36.9238 27.7569 37.1898 27.6239 37.3228 27.4909L37.5888 28.0229Z" fill="black"/>
<path d="M3.40792 27.3579C1.94492 25.4959 1.01392 23.7669 0.481922 22.0379C0.0829221 20.5749 0.0829221 19.1119 0.614922 18.0479C1.27992 16.8509 2.21092 15.7869 3.80692 15.1219C5.40292 14.4569 7.39792 14.0579 10.0579 14.0579C10.3239 14.0579 10.4569 14.0579 10.5899 14.0579C10.7229 14.0579 10.8559 14.0579 10.8559 14.0579C10.8559 13.9249 10.9889 13.9249 11.1219 13.7919C11.1219 13.7919 11.2549 13.6589 11.3879 13.5259C12.1859 12.8609 13.3829 11.9299 14.8459 11.2649C16.1759 10.4669 17.7719 10.0679 19.1019 10.5999C20.6979 11.1319 22.4269 12.0629 23.4909 13.7919C24.4219 15.5209 24.6879 17.7819 23.3579 21.1069C23.2249 21.3729 23.0919 21.6389 22.9589 21.7719C22.9589 21.7719 22.9589 21.7719 22.9589 21.9049C22.9589 21.9049 22.9589 21.9049 23.0919 21.9049C23.0919 22.0379 23.2249 22.1709 23.4909 22.3039C24.1559 23.1019 25.2199 24.2989 25.7519 25.8949C26.2839 27.6239 26.2839 29.4859 24.9539 31.3479C23.2249 33.7419 21.4959 34.8059 19.6339 35.0719C17.7719 35.3379 15.9099 34.6729 14.0479 33.7419C13.9149 33.7419 13.9149 33.7419 13.9149 33.8749C11.9199 37.7319 9.39292 39.4609 7.13192 39.5939C6.20092 39.5939 5.26992 39.3279 4.47192 38.9289C3.67392 38.3969 3.00892 37.7319 2.47692 36.8009C1.41292 34.8059 1.54592 31.7469 3.54092 28.6879C3.67392 28.4219 3.67392 28.4219 3.80692 28.2889L3.93992 28.0229L3.80692 27.8899C3.67392 27.7569 3.54092 27.6239 3.40792 27.3579ZM1.01392 21.9049C1.54592 23.5009 2.47692 25.2299 3.93992 27.0919C4.07292 27.2249 4.20592 27.3579 4.20592 27.4909C4.47192 27.6239 4.60492 27.7569 4.60492 28.0229C4.60492 28.1559 4.47192 28.2889 4.33892 28.5549C4.20592 28.6879 4.07292 28.8209 4.07292 28.9539C2.07792 31.8799 2.07792 34.6729 3.00892 36.5349C3.40792 37.3329 4.07292 37.9979 4.73792 38.3969C5.40292 38.7959 6.20092 39.0619 7.13192 38.9289C9.12692 38.7959 11.5209 37.1999 13.3829 33.6089V33.4759C13.5159 33.4759 13.5159 33.3429 13.5159 33.3429C13.7819 33.0769 13.9149 33.0769 14.3139 33.2099C16.0429 34.1409 17.7719 34.6729 19.5009 34.4069C21.2299 34.2739 22.8259 33.2099 24.4219 31.0819C25.6189 29.3529 25.6189 27.6239 25.0869 26.1609C24.6879 24.6979 23.6239 23.3679 22.9589 22.7029C22.8259 22.5699 22.6929 22.4369 22.6929 22.3039C22.4269 22.1709 22.4269 22.0379 22.4269 21.9049C22.2939 21.7719 22.4269 21.6389 22.5599 21.5059C22.5599 21.3729 22.6929 21.1069 22.8259 20.9739C24.1559 17.7819 23.8899 15.6539 22.9589 14.0579C22.0279 12.5949 20.2989 11.6639 18.8359 11.1319C17.7719 10.7329 16.4419 11.1319 15.1119 11.7969C13.7819 12.4619 12.5849 13.3929 11.7869 13.9249C11.6539 14.0579 11.5209 14.1909 11.3879 14.1909C11.2549 14.4569 11.2549 14.4569 10.9889 14.5899C10.8559 14.5899 10.8559 14.5899 10.5899 14.5899C10.4569 14.5899 10.3239 14.5899 10.0579 14.5899C7.53092 14.5899 5.53592 14.9889 4.07292 15.6539C2.60992 16.3189 1.67892 17.1169 1.14692 18.1809C0.747922 19.2449 0.614922 20.5749 1.01392 21.9049Z" fill="black"/>
<path d="M58.071 26.56C57.539 26.294 57.14 26.028 56.608 25.762C56.076 25.363 55.544 24.964 55.012 24.565C54.879 24.299 54.746 24.166 54.613 24.166C54.48 24.033 54.48 24.033 54.48 24.033C54.48 24.033 54.48 24.033 54.347 24.033C54.214 24.166 54.081 24.299 53.948 24.299C53.017 24.698 51.421 25.363 49.692 25.363C47.963 25.363 46.234 24.831 44.771 22.969C44.106 21.905 43.574 20.974 43.175 20.043C42.909 19.112 42.776 18.314 42.909 17.516H43.441C43.441 18.314 43.441 19.112 43.84 19.91C44.106 20.708 44.505 21.639 45.303 22.57C46.5 24.299 48.229 24.831 49.692 24.831C51.288 24.698 52.751 24.166 53.682 23.767C53.815 23.767 53.948 23.634 54.081 23.634C54.347 23.501 54.48 23.368 54.613 23.368C54.746 23.501 54.879 23.501 55.012 23.767C55.145 23.767 55.278 23.9 55.411 24.166C55.943 24.565 56.475 24.964 56.874 25.23C57.406 25.629 57.805 25.762 58.337 26.028L58.071 26.56ZM42.111 7.54096C41.845 5.81196 42.377 4.21596 43.308 2.88596C43.973 2.08796 44.771 1.28996 45.835 0.757957C46.899 0.358957 48.096 0.225957 49.293 0.358957C50.889 0.624957 52.618 1.55596 54.081 3.41796C54.081 3.55096 54.214 3.68396 54.347 3.68396L54.48 3.94996C54.48 3.94996 54.613 3.94996 54.746 3.94996C54.879 3.81696 55.012 3.81696 55.278 3.68396C57.539 2.88596 59.534 2.48696 61.13 2.48696C62.726 2.61996 64.056 3.01896 64.987 3.94996C66.051 4.74796 66.583 6.07796 66.849 7.67396C66.982 9.40296 66.716 11.398 66.051 13.792L65.519 13.659C66.184 11.265 66.45 9.40296 66.184 7.80696C66.051 6.34396 65.519 5.14696 64.588 4.34896C63.79 3.55096 62.593 3.15196 61.13 3.15196C59.534 3.01896 57.672 3.41796 55.411 4.21596C55.278 4.34896 55.145 4.34896 55.012 4.48196C54.613 4.48196 54.48 4.61496 54.347 4.61496C54.081 4.48196 54.081 4.34896 53.815 4.08296C53.815 3.94996 53.682 3.94996 53.549 3.81696C52.219 2.08796 50.756 1.15696 49.16 0.890957C48.096 0.757957 47.032 0.890957 46.101 1.42296C45.17 1.82196 44.372 2.48696 43.707 3.28496C42.909 4.48196 42.51 5.94496 42.776 7.40796L42.111 7.54096Z" fill="black"/>
<path d="M75.0949 21.1069C77.4889 21.5059 79.4839 22.1709 80.8139 23.1019C82.2769 24.0329 83.0749 25.0969 83.4739 26.2939C83.8729 27.4909 83.7399 28.9539 82.9419 30.4169C82.2769 32.0129 80.9469 33.7419 79.0849 35.4709C78.9519 35.6039 78.8189 35.7369 78.6859 35.8699C78.5529 35.8699 78.5529 36.0029 78.5529 36.0029C78.4199 36.0029 78.4199 36.1359 78.4199 36.2689C78.4199 36.4019 78.4199 36.5349 78.4199 36.8009C78.2869 37.7319 77.8879 39.3279 77.3559 40.6579C76.6909 42.2539 75.8929 43.5839 74.5629 44.1159C73.0999 44.6479 71.1049 45.0469 69.2429 44.5149C67.3809 43.9829 65.5189 42.3869 64.4549 38.9289C64.3219 38.6629 64.3219 38.3969 64.3219 38.2639C64.1889 38.1309 64.3219 38.1309 64.1889 38.1309C64.1889 38.1309 64.1889 38.1309 64.0559 38.1309C63.9229 38.1309 63.7899 38.1309 63.5239 38.1309C62.5929 37.9979 60.8639 37.7319 59.4009 36.9339C57.9379 36.0029 56.6079 34.6729 56.4749 32.2789C56.0759 29.4859 56.7409 27.4909 58.0709 26.0279C59.2679 24.6979 60.9969 23.7669 62.9919 23.3679C62.9919 23.2349 62.9919 23.2349 62.9919 23.1019C61.9279 18.9789 62.7259 16.0529 64.3219 14.4569C64.9869 13.6589 65.9179 13.2599 66.8489 13.1269C67.6469 12.9939 68.7109 12.9939 69.6419 13.3929C71.7699 14.1909 73.7649 16.4519 74.2969 20.1759C74.2969 20.4419 74.2969 20.5749 74.2969 20.7079C74.2969 20.8409 74.2969 20.9739 74.2969 20.9739C74.2969 20.9739 74.4299 20.9739 74.5629 20.9739C74.6959 20.9739 74.9619 20.9739 75.0949 21.1069ZM80.5479 23.6339C79.2179 22.7029 77.3559 22.0379 75.0949 21.6389C74.8289 21.6389 74.6959 21.6389 74.5629 21.5059C74.1639 21.5059 74.0309 21.5059 73.8979 21.3729C73.7649 21.2399 73.7649 21.1069 73.7649 20.7079C73.7649 20.5749 73.6319 20.4419 73.6319 20.3089C73.2329 16.8509 71.3709 14.7229 69.3759 13.9249C68.5779 13.6589 67.6469 13.5259 66.8489 13.6589C66.0509 13.7919 65.3859 14.1909 64.7209 14.8559C63.2579 16.3189 62.5929 18.9789 63.6569 23.1019C63.6569 23.2349 63.6569 23.2349 63.6569 23.3679C63.6569 23.7669 63.6569 23.7669 63.1249 23.8999C61.2629 24.2989 59.5339 25.0969 58.4699 26.4269C57.2729 27.7569 56.7409 29.6189 57.0069 32.2789C57.2729 34.4069 58.3369 35.6039 59.7999 36.4019C61.1299 37.1999 62.7259 37.4659 63.6569 37.5989C63.7899 37.5989 64.0559 37.5989 64.0559 37.5989C64.3219 37.5989 64.4549 37.5989 64.5879 37.7319C64.7209 37.8649 64.7209 37.9979 64.8539 38.1309C64.8539 38.2639 64.8539 38.5299 64.9869 38.7959C66.0509 41.9879 67.6469 43.4509 69.3759 43.9829C71.1049 44.5149 72.9669 44.1159 74.4299 43.5839C75.4939 43.0519 76.2919 41.8549 76.8239 40.5249C77.3559 39.0619 77.6219 37.5989 77.7549 36.6679C77.8879 36.5349 77.8879 36.4019 77.8879 36.2689C77.8879 36.0029 77.8879 35.8699 78.0209 35.7369C78.0209 35.6039 78.1539 35.6039 78.2869 35.3379C78.4199 35.3379 78.5529 35.2049 78.6859 35.0719C80.5479 33.3429 81.7449 31.7469 82.4099 30.2839C83.0749 28.8209 83.2079 27.6239 82.9419 26.4269C82.5429 25.3629 81.7449 24.4319 80.5479 23.6339Z" fill="black"/>
<path d="M30.8059 40.2589C31.0719 38.5299 31.8699 37.1999 32.9339 36.2689C34.1309 35.2049 35.4609 34.6729 36.9239 34.2739C35.9929 30.2839 36.6579 27.4909 38.2539 26.0279C38.9189 25.3629 39.7169 24.8309 40.6479 24.6979C41.4459 24.5649 42.3769 24.6979 43.3079 24.9639C45.3029 25.7619 47.1649 28.0229 47.6969 31.4809C47.6969 31.6139 47.6969 31.7469 47.6969 31.8799C47.6969 32.0129 47.6969 32.0129 47.6969 32.1459C47.6969 32.1459 47.8299 32.1459 47.9629 32.1459C48.0959 32.1459 48.2289 32.1459 48.4949 32.1459C49.9579 32.4119 51.2879 32.8109 52.3519 33.3429C53.5489 33.8749 54.4799 34.4069 55.1449 35.0719L54.4799 35.6039C53.9479 35.0719 53.1499 34.5399 52.0859 34.0079C51.0219 33.6089 49.8249 33.2099 48.3619 32.9439C48.0959 32.9439 47.9629 32.9439 47.8299 32.8109C47.5639 32.8109 47.2979 32.8109 47.1649 32.6779C47.0319 32.5449 47.0319 32.2789 47.0319 32.0129C46.8989 31.8799 46.8989 31.7469 46.8989 31.6139C46.4999 28.4219 44.7709 26.4269 43.0419 25.7619C42.2439 25.4959 41.4459 25.3629 40.7809 25.4959C39.9829 25.6289 39.3179 26.0279 38.7859 26.5599C37.4559 27.8899 36.7909 30.4169 37.7219 34.1409V34.2739V34.4069C37.7219 34.8059 37.7219 34.9389 37.1899 35.0719C35.7269 35.3379 34.5299 36.0029 33.4659 36.8009C32.5349 37.5989 31.8699 38.7959 31.6039 40.3919L30.8059 40.2589ZM53.9479 43.9829C53.6819 44.2489 53.4159 44.6479 53.1499 44.9139C52.8839 45.1799 52.4849 45.5789 52.0859 45.8449C51.9529 45.9779 51.8199 46.1109 51.8199 46.1109C51.6869 46.2439 51.6869 46.2439 51.6869 46.3769C51.6869 46.3769 51.6869 46.3769 51.5539 46.5099C51.5539 46.6429 51.5539 46.7759 51.5539 47.0419C51.4209 47.8399 51.1549 49.3029 50.6229 50.7659C49.9579 52.0959 49.1599 53.4259 47.9629 53.9579C46.4999 54.4899 44.6379 54.8889 42.7759 54.3569C41.0469 53.8249 39.3179 52.2289 38.2539 49.0369C38.2539 48.7709 38.1209 48.5049 38.1209 48.3719C37.9879 48.3719 37.7219 48.3719 37.5889 48.3719C36.9239 48.2389 36.1259 48.1059 35.1949 47.8399C34.2639 47.5739 33.3329 47.0419 32.5349 46.3769L33.0669 45.8449C33.7319 46.5099 34.6629 46.9089 35.4609 47.1749C36.2589 47.4409 37.0569 47.5739 37.5889 47.5739C37.8549 47.5739 37.9879 47.5739 38.1209 47.5739C38.3869 47.5739 38.5199 47.5739 38.6529 47.7069C38.7859 47.8399 38.7859 47.9729 38.9189 48.2389C38.9189 48.3719 38.9189 48.5049 39.0519 48.7709C39.9829 51.6969 41.4459 53.1599 43.0419 53.5589C44.6379 54.0909 46.3669 53.6919 47.6969 53.1599C48.6279 52.7609 49.2929 51.6969 49.8249 50.3669C50.3569 49.1699 50.6229 47.7069 50.7559 46.9089C50.7559 46.7759 50.7559 46.5099 50.8889 46.5099C50.8889 46.2439 50.8889 46.1109 50.8889 45.9779C51.0219 45.8449 51.1549 45.7119 51.2879 45.5789C51.4209 45.4459 51.5539 45.4459 51.5539 45.3129C51.9529 45.0469 52.2189 44.6479 52.6179 44.3819C52.8839 44.1159 53.1499 43.7169 53.4159 43.4509L53.9479 43.9829Z" fill="black"/>
<path d="M71.77 44.2489C71.637 44.9139 71.371 45.8449 71.105 46.6429C70.972 47.4409 70.706 48.2389 70.44 48.7709C70.307 49.0369 70.307 49.1699 70.174 49.1699C70.174 49.3029 70.174 49.3029 70.174 49.3029C70.174 49.3029 70.174 49.4359 70.174 49.5689C70.174 49.7019 70.307 49.8349 70.307 49.9679C70.44 50.7659 70.839 51.9629 70.839 53.2929C70.839 54.6229 70.573 55.9529 69.775 56.8839C68.711 57.8149 67.381 58.8789 65.785 59.0119C64.056 59.1449 62.194 58.6129 60.066 56.2189C59.933 56.0859 59.8 55.9529 59.8 55.8199C59.667 55.8199 59.534 55.9529 59.401 55.9529C58.337 56.3519 56.608 56.7509 54.879 56.2189C53.682 55.9529 52.618 55.1549 51.82 53.8249C50.623 51.6969 50.49 49.9679 51.022 48.3719C51.421 46.9089 52.618 45.7119 53.948 44.6479C51.687 41.7219 51.288 39.1949 51.953 37.4659C52.352 36.6679 52.884 36.0029 53.549 35.6039C54.214 35.0719 55.012 34.9389 55.81 34.8059C57.805 34.8059 60.066 35.8699 61.795 38.6629C61.795 38.6629 61.928 38.7959 61.928 38.9289C61.928 39.0619 61.928 39.0619 61.928 39.0619C62.061 39.0619 61.928 39.0619 62.061 39.0619C62.194 38.9289 62.327 38.9289 62.593 38.9289C62.992 38.7959 63.391 38.6629 63.79 38.6629C64.322 38.5299 64.721 38.5299 65.12 38.5299V39.1949C64.721 39.3279 64.322 39.3279 63.923 39.4609C63.524 39.4609 63.125 39.5939 62.726 39.5939C62.46 39.7269 62.327 39.7269 62.327 39.7269C62.061 39.8599 61.928 39.8599 61.662 39.8599C61.529 39.7269 61.396 39.5939 61.263 39.3279C61.263 39.1949 61.13 39.1949 61.13 39.0619C59.534 36.5349 57.539 35.6039 55.81 35.6039C55.145 35.6039 54.48 35.8699 53.948 36.2689C53.416 36.5349 53.017 37.0669 52.751 37.7319C52.086 39.3279 52.485 41.5889 54.613 44.2489V44.3819C54.613 44.3819 54.613 44.3819 54.613 44.5149C54.879 44.9139 54.879 44.9139 54.48 45.1799C53.15 46.2439 52.219 47.3079 51.687 48.6379C51.288 49.9679 51.421 51.5639 52.485 53.4259C53.15 54.6229 54.081 55.1549 55.012 55.4209C56.608 55.9529 58.204 55.5539 59.135 55.2879C59.268 55.1549 59.401 55.1549 59.534 55.1549C59.8 55.0219 59.8 55.0219 60.066 55.0219C60.199 55.1549 60.332 55.1549 60.465 55.4209C60.465 55.4209 60.598 55.5539 60.731 55.6869C62.593 57.8149 64.189 58.3469 65.652 58.2139C67.115 58.0809 68.312 57.1499 69.243 56.3519C69.908 55.6869 70.041 54.4899 70.041 53.2929C70.041 52.0959 69.775 50.8989 69.509 50.1009C69.509 49.9679 69.509 49.8349 69.509 49.7019C69.376 49.5689 69.376 49.4359 69.376 49.3029C69.376 49.1699 69.376 49.0369 69.509 48.9039C69.642 48.7709 69.642 48.6379 69.642 48.5049C69.908 47.8399 70.174 47.1749 70.44 46.5099C70.706 45.5789 70.839 44.7809 70.972 44.1159L71.77 44.2489Z" fill="black"/>
<path d="M33.3329 28.8209C33.8649 30.0179 33.9979 31.6139 33.4659 33.3429C33.1999 34.6729 32.2689 36.2689 30.9389 37.7319C30.8059 37.8649 30.8059 37.9979 30.6729 37.9979C30.5399 38.1309 30.4069 38.2639 30.4069 38.2639C30.4069 38.2639 30.5399 38.2639 30.5399 38.3969C30.6729 38.5299 30.8059 38.6629 30.9389 38.9289C32.1359 41.1899 32.9339 43.3179 33.0669 45.0469C33.3329 46.7759 33.0669 48.2389 32.2689 49.4359C31.4709 50.6329 30.1409 51.4309 28.4119 51.8299C26.6829 52.3619 24.4219 52.4949 21.6289 52.0959C21.3629 51.9629 21.2299 51.9629 21.0969 51.9629C20.8309 51.9629 20.8309 51.9629 20.8309 51.9629C20.6979 51.9629 20.6979 51.9629 20.5649 52.0959C20.4319 52.0959 20.2989 52.2289 20.0329 52.3619C19.2349 52.8939 17.7719 53.6919 16.1759 54.2239C14.4469 54.7559 12.7179 54.8889 11.5209 54.2239C9.92487 53.2929 8.19587 51.9629 7.39787 49.9679C6.59987 48.1059 6.73287 45.4459 8.72787 42.2539C8.99387 41.9879 9.12687 41.7219 9.12687 41.5889C9.25987 41.5889 9.25987 41.5889 9.25987 41.5889C9.25987 41.4559 9.25987 41.5889 9.12687 41.4559C9.12687 41.4559 8.99387 41.1899 8.86087 41.0569C8.59487 40.7909 8.46187 40.5249 8.32887 40.1259C8.19587 39.8599 7.92987 39.5939 7.79687 39.1949L8.59487 38.9289C8.72787 39.1949 8.86087 39.4609 8.99387 39.7269C9.12687 40.1259 9.25987 40.3919 9.52587 40.5249C9.65887 40.7909 9.65887 40.9239 9.79187 41.0569C9.92487 41.1899 10.0579 41.3229 10.0579 41.5889C10.0579 41.7219 9.92487 41.8549 9.79187 42.1209C9.65887 42.2539 9.52587 42.3869 9.39287 42.6529C7.53087 45.5789 7.39787 47.9729 8.06287 49.7019C8.86087 51.4309 10.4569 52.6279 11.7869 53.4259C12.9839 54.0909 14.4469 53.9579 15.9099 53.4259C17.3729 52.8939 18.8359 52.2289 19.7669 51.6969C19.8999 51.5639 20.0329 51.4309 20.1659 51.4309C20.2989 51.2979 20.4319 51.1649 20.6979 51.1649C20.8309 51.1649 20.9639 51.1649 21.2299 51.1649C21.3629 51.1649 21.4959 51.2979 21.6289 51.2979C24.4219 51.6969 26.5499 51.5639 28.2789 51.1649C29.7419 50.7659 30.9389 49.9679 31.6039 49.0369C32.2689 47.9729 32.5349 46.6429 32.4019 45.1799C32.1359 43.4509 31.4709 41.4559 30.2739 39.3279C30.1409 39.0619 30.0079 38.9289 29.8749 38.7959C29.7419 38.5299 29.6089 38.3969 29.7419 38.1309C29.7419 37.8649 29.8749 37.7319 30.1409 37.4659C30.1409 37.4659 30.2739 37.3329 30.4069 37.1999C31.6039 35.8699 32.4019 34.4069 32.8009 33.0769C33.1999 31.6139 33.0669 30.1509 32.6679 29.0869L33.3329 28.8209Z" fill="black"/>
<path fill-rule="evenodd" clip-rule="evenodd" d="M22.028 51.697C29.077 52.628 32.801 50.367 32.801 46.111C32.801 44.382 32.269 42.52 31.205 40.259C30.939 39.993 30.806 39.594 30.54 39.062C29.875 37.998 29.875 38.397 30.673 37.466C33.466 34.407 33.865 31.215 32.934 28.954C29.742 28.954 27.747 26.693 26.417 24.033C26.151 23.634 26.284 23.767 25.885 23.9C25.486 24.033 25.087 24.166 24.688 24.432C25.752 26.161 26.55 28.688 24.688 31.215C23.89 32.412 22.959 33.21 22.028 33.875C19.501 35.471 16.708 34.806 14.181 33.476C13.915 33.343 13.915 33.343 13.649 33.742C12.053 36.934 10.058 38.53 8.19599 39.062C8.46199 39.727 8.86099 40.392 9.12699 40.791C9.79199 41.855 9.79199 41.323 9.12699 42.387C5.13699 48.771 8.72799 52.229 11.654 53.825C14.048 55.155 18.171 53.027 19.9 51.963C20.964 51.431 20.432 51.564 21.629 51.697C21.762 51.697 21.895 51.697 22.028 51.697Z" fill="white"/>
<path d="M22.0278 51.431C23.0918 51.564 23.8898 51.564 24.8208 51.564C27.2148 51.697 28.9438 51.165 30.2738 50.367C31.6038 49.569 32.2688 48.372 32.4018 46.909C32.5348 46.643 32.5348 46.377 32.5348 46.111C32.5348 45.313 32.4018 44.382 32.1358 43.451C31.8698 42.52 31.4708 41.456 30.9388 40.392C30.8058 40.259 30.8058 40.126 30.6728 39.86C30.5398 39.727 30.4068 39.461 30.2738 39.328C30.1408 39.062 30.1408 38.929 30.0078 38.796C29.8748 38.53 29.7418 38.397 29.7418 38.131C29.7418 37.998 29.8748 37.865 30.1408 37.599C30.2738 37.466 30.4068 37.333 30.5398 37.2C31.7368 35.87 32.5348 34.407 32.9338 33.077C33.1998 31.614 33.1998 30.284 32.8008 29.22C31.2048 29.22 29.8748 28.555 28.8108 27.757C27.6138 26.826 26.8158 25.496 26.1508 24.166C26.0178 24.033 26.1508 24.033 26.1508 24.033C26.0178 24.033 26.0178 24.166 25.8848 24.166C25.7518 24.166 25.4858 24.299 25.3528 24.432C25.2198 24.432 25.2198 24.432 25.0868 24.565C25.6188 25.496 26.0178 26.693 26.0178 28.023C26.0178 29.087 25.7518 30.284 24.9538 31.348C24.5548 32.013 24.0228 32.545 23.6238 32.944C23.0918 33.343 22.6928 33.742 22.1608 34.141C20.8308 34.939 19.5008 35.205 18.0378 35.072C16.7078 34.939 15.3778 34.407 14.0478 33.742C13.9148 33.742 13.9148 33.742 13.9148 33.875C13.1168 35.338 12.1858 36.535 11.3878 37.466C10.4568 38.397 9.52584 38.929 8.59484 39.195C8.72784 39.461 8.72784 39.594 8.86084 39.86C8.99384 40.126 9.25984 40.392 9.39284 40.658C9.52584 40.791 9.65884 40.924 9.65884 41.057C9.92484 41.323 9.92484 41.456 9.92484 41.589C9.92484 41.722 9.92484 41.855 9.65884 41.988C9.65884 42.121 9.52584 42.254 9.39284 42.52C7.39784 45.579 7.26484 47.973 8.06284 49.702C8.72784 51.564 10.3238 52.761 11.7868 53.559C12.8508 54.224 14.4468 53.958 15.9098 53.559C17.5058 53.027 18.8358 52.229 19.7668 51.83C19.8998 51.697 20.0328 51.564 20.1658 51.564C20.4318 51.431 20.5648 51.298 20.6978 51.298C20.8308 51.298 20.9638 51.298 21.2298 51.298C21.3628 51.298 21.4958 51.298 21.6288 51.431C21.7618 51.431 21.7618 51.431 21.8948 51.431C21.8948 51.431 21.8948 51.431 22.0278 51.431ZM24.6878 52.229C23.8898 52.229 22.9588 52.096 22.0278 51.963C22.0278 51.963 21.8948 51.963 21.7618 51.963H21.6288C21.3628 51.963 21.2298 51.963 21.0968 51.83C20.9638 51.83 20.8308 51.83 20.8308 51.83C20.6978 51.83 20.6978 51.963 20.5648 51.963C20.4318 52.096 20.2988 52.096 20.0328 52.229C19.2348 52.761 17.6388 53.559 16.1758 54.091C14.4468 54.623 12.8508 54.756 11.5208 54.091C9.92484 53.16 8.32884 51.963 7.53084 49.968C6.73284 47.973 6.73284 45.446 8.86084 42.254C8.99384 41.988 9.12684 41.855 9.25984 41.722C9.25984 41.589 9.39284 41.589 9.39284 41.589C9.39284 41.589 9.25984 41.589 9.25984 41.456C9.12684 41.323 8.99384 41.19 8.86084 40.924C8.72784 40.658 8.59484 40.392 8.32884 40.126C8.19584 39.86 8.06284 39.461 7.92984 39.195L7.79684 38.929L8.06284 38.796C8.99384 38.53 10.0578 37.998 10.9888 37.067C11.7868 36.136 12.5848 35.072 13.3828 33.609V33.476C13.5158 33.476 13.5158 33.343 13.5158 33.343C13.7818 33.077 13.9148 33.077 14.3138 33.21C15.5108 33.875 16.8408 34.407 18.1708 34.54C19.3678 34.54 20.6978 34.407 21.8948 33.609C22.2938 33.343 22.6928 32.944 23.2248 32.545C23.6238 32.146 24.0228 31.614 24.4218 31.082C25.2198 30.018 25.4858 28.954 25.4858 28.023C25.4858 26.693 24.9538 25.496 24.4218 24.565L24.1558 24.299L24.5548 24.166C24.6878 24.033 24.9538 23.9 25.0868 23.9C25.3528 23.767 25.4858 23.634 25.7518 23.634V23.501C25.8848 23.501 25.8848 23.501 26.0178 23.501C26.4168 23.368 26.4168 23.368 26.6828 23.9C27.3478 25.23 28.1458 26.427 29.0768 27.225C30.1408 28.156 31.4708 28.688 32.9338 28.688H33.1998V28.821C33.7318 30.151 33.8648 31.614 33.4658 33.21C33.0668 34.673 32.2688 36.136 30.9388 37.599C30.8058 37.732 30.6728 37.865 30.5398 37.998C30.4068 38.131 30.4068 38.264 30.4068 38.264C30.4068 38.264 30.4068 38.264 30.5398 38.53C30.5398 38.663 30.6728 38.796 30.8058 38.929C30.9388 39.195 31.0718 39.328 31.2048 39.594C31.2048 39.86 31.3378 39.993 31.4708 40.259C32.0028 41.323 32.4018 42.387 32.6678 43.318C32.9338 44.249 33.0668 45.18 33.0668 46.111C33.0668 46.377 33.0668 46.643 33.0668 46.909C32.8008 48.638 32.0028 49.968 30.5398 50.899C29.2098 51.697 27.2148 52.229 24.6878 52.229Z" fill="black"/>
<path fill-rule="evenodd" clip-rule="evenodd" d="M31.2048 40.259C32.2688 42.52 32.8008 44.382 32.8008 46.111C34.2638 47.441 36.3918 47.84 37.5888 47.973C38.6528 48.106 38.2538 47.84 38.6528 48.904C40.6478 55.155 45.0368 54.623 47.8298 53.559C50.0908 52.628 50.8888 48.638 51.1548 46.909C51.2878 45.978 51.1548 46.244 51.8198 45.579C52.6178 44.914 53.1498 44.382 53.6818 43.717C50.7558 39.328 52.2188 36.136 54.8788 35.338C53.5488 34.141 51.4208 33.077 48.3618 32.545C47.2978 32.412 47.4308 32.678 47.2978 31.481C46.4998 26.028 42.3768 24.033 39.4508 25.496C38.6528 25.895 37.9878 26.693 37.4558 27.757C36.7908 29.353 36.6578 31.481 37.3228 34.274C37.3228 34.54 37.4558 34.54 37.0568 34.673C34.1308 35.471 31.7368 36.934 31.2048 40.259Z" fill="white"/>
<path d="M31.471 40.259C32.003 41.323 32.402 42.387 32.668 43.318C32.934 44.249 33.067 45.18 33.067 45.978C33.732 46.51 34.663 46.909 35.461 47.175C36.259 47.441 37.057 47.574 37.589 47.707C37.855 47.707 37.988 47.707 38.121 47.707C38.387 47.707 38.387 47.707 38.52 47.84C38.653 47.973 38.786 48.106 38.786 48.239C38.786 48.372 38.786 48.505 38.919 48.771C39.85 51.83 41.446 53.16 43.042 53.692C44.638 54.224 46.367 53.825 47.697 53.293C48.761 52.894 49.426 51.697 49.958 50.5C50.49 49.17 50.756 47.707 50.889 46.909C50.889 46.776 50.889 46.51 50.889 46.51C51.022 46.244 51.022 46.111 51.022 45.978C51.155 45.845 51.155 45.845 51.421 45.712C51.421 45.579 51.554 45.446 51.687 45.313C51.953 45.047 52.352 44.781 52.618 44.382C52.884 44.249 53.15 43.983 53.283 43.717C52.751 42.786 52.219 41.855 52.086 40.924C51.687 39.727 51.687 38.663 51.953 37.732C52.219 36.934 52.884 36.136 53.549 35.604C53.815 35.471 54.081 35.338 54.214 35.338C53.682 34.806 53.017 34.274 52.086 34.008C51.022 33.476 49.825 33.077 48.362 32.811C48.096 32.811 47.963 32.811 47.83 32.811C47.564 32.678 47.431 32.678 47.298 32.545C47.165 32.412 47.165 32.279 47.032 32.013C47.032 31.88 47.032 31.747 47.032 31.614C46.899 30.417 46.5 29.353 46.101 28.555C45.436 27.358 44.638 26.427 43.707 25.895C42.776 25.496 41.845 25.23 40.914 25.363C40.515 25.363 39.983 25.496 39.584 25.762C39.185 26.028 38.919 26.294 38.52 26.693C38.254 26.959 37.988 27.358 37.722 27.89C37.456 28.688 37.19 29.619 37.19 30.683C37.19 31.747 37.323 32.811 37.722 34.141V34.274V34.407C37.722 34.806 37.722 34.806 37.19 34.939C35.727 35.338 34.397 35.87 33.466 36.668C32.402 37.599 31.737 38.663 31.471 40.259ZM32.136 43.451C31.87 42.52 31.471 41.456 30.939 40.392V40.259C31.205 38.53 32.003 37.2 33.067 36.269C34.131 35.338 35.461 34.806 37.057 34.407V34.274C36.791 32.944 36.658 31.747 36.658 30.683C36.658 29.486 36.791 28.555 37.19 27.624C37.456 27.092 37.722 26.693 38.121 26.294C38.52 25.762 38.919 25.496 39.318 25.23C39.85 24.964 40.249 24.831 40.781 24.831C41.845 24.698 42.909 24.831 43.973 25.496C45.037 26.028 45.968 26.959 46.633 28.289C47.032 29.22 47.431 30.284 47.564 31.481C47.564 31.614 47.564 31.747 47.697 31.88C47.697 32.146 47.697 32.146 47.697 32.146C47.697 32.146 47.697 32.146 47.963 32.146C48.096 32.279 48.229 32.279 48.362 32.279C49.958 32.545 51.288 32.944 52.352 33.343C53.416 33.875 54.347 34.54 55.012 35.205L55.411 35.604L54.879 35.737C54.48 35.737 54.214 36.003 53.948 36.136C53.283 36.535 52.751 37.2 52.485 37.998C52.352 38.796 52.352 39.727 52.618 40.791C52.884 41.589 53.283 42.52 53.948 43.584L54.081 43.717L53.948 43.85C53.682 44.249 53.416 44.515 53.017 44.781C52.751 45.18 52.485 45.446 52.086 45.845C51.953 45.978 51.82 45.978 51.687 46.111C51.687 46.244 51.554 46.244 51.554 46.244C51.554 46.244 51.554 46.377 51.554 46.51C51.554 46.643 51.421 46.776 51.421 47.042C51.288 47.84 51.022 49.303 50.49 50.633C49.958 52.096 49.16 53.293 47.83 53.825C46.5 54.357 44.638 54.756 42.909 54.224C41.047 53.692 39.451 52.229 38.387 49.037C38.254 48.771 38.254 48.505 38.254 48.372C38.121 48.372 38.254 48.239 38.254 48.239C38.121 48.239 38.121 48.239 38.121 48.239C37.988 48.239 37.855 48.239 37.589 48.239C36.924 48.239 36.126 48.106 35.195 47.84C34.264 47.441 33.333 47.042 32.535 46.244V46.111C32.535 45.313 32.402 44.382 32.136 43.451Z" fill="black"/>
<path fill-rule="evenodd" clip-rule="evenodd" d="M54.2139 44.9139C51.5539 46.9089 49.9579 49.5689 52.2189 53.6919C53.9479 56.8839 57.6719 56.0859 59.2679 55.5539C60.1989 55.2879 59.7999 55.1549 60.4649 55.9529C64.3219 60.3419 67.6469 58.4799 69.5089 56.6179C70.9719 55.0219 70.3069 51.5639 69.9079 49.9679C69.7749 49.1699 69.6419 49.5689 70.0409 48.6379C70.5729 47.3079 71.1049 45.5789 71.3709 44.5149C68.8439 44.5149 66.1839 43.4509 64.7209 38.9289C64.0559 38.9289 63.3909 39.0619 62.5929 39.3279C61.6619 39.4609 61.9279 39.7269 61.3959 38.7959C60.8639 37.9979 60.3319 37.1999 59.6669 36.6679C59.2679 36.5349 58.8689 36.2689 58.6029 35.8699C57.2729 35.2049 55.9429 35.0719 54.8789 35.3379C52.2189 36.1359 50.7559 39.3279 53.6819 43.7169C53.8149 43.9829 54.0809 44.2489 54.2139 44.5149C54.3469 44.7809 54.4799 44.7809 54.2139 44.9139Z" fill="white"/>
<path d="M54.3468 45.18C53.1498 46.111 52.0858 47.308 51.6868 48.638C51.1548 49.968 51.4208 51.564 52.4848 53.426C53.1498 54.623 54.0808 55.288 55.0118 55.554C56.6078 55.953 58.2038 55.687 59.1348 55.288C59.2678 55.288 59.4008 55.288 59.5338 55.155C59.7998 55.155 59.7998 55.022 60.0658 55.155C60.1988 55.155 60.1988 55.288 60.3318 55.421C60.3318 55.554 60.4648 55.687 60.5978 55.82C62.4598 57.948 64.1888 58.48 65.6518 58.347C67.1148 58.214 68.4448 57.283 69.2428 56.352C70.0408 55.687 70.1738 54.49 70.1738 53.293C70.0408 52.096 69.7748 50.899 69.6418 50.101C69.6418 49.968 69.5088 49.835 69.5088 49.702C69.5088 49.569 69.5088 49.436 69.5088 49.303C69.5088 49.17 69.5088 49.037 69.6418 48.904C69.6418 48.771 69.7748 48.638 69.7748 48.505C70.0408 47.973 70.3068 47.308 70.4398 46.643C70.7058 45.978 70.8388 45.313 70.9718 44.781C69.7748 44.781 68.5778 44.515 67.5138 43.717C66.3168 42.786 65.2528 41.456 64.5878 39.195C64.3218 39.195 64.0558 39.328 63.7898 39.328C63.3908 39.461 63.1248 39.461 62.7258 39.594C62.4598 39.594 62.3268 39.594 62.3268 39.727C62.0608 39.727 61.9278 39.727 61.7948 39.727C61.5288 39.594 61.5288 39.461 61.2628 39.328C61.2628 39.195 61.2628 39.062 61.1298 38.929C60.8638 38.53 60.5978 38.131 60.3318 37.865C60.0658 37.466 59.7998 37.2 59.4008 36.934C59.2678 36.801 59.1348 36.668 58.8688 36.535C58.7358 36.402 58.6028 36.269 58.3368 36.136C57.8048 35.87 57.2728 35.604 56.6078 35.604C56.0758 35.471 55.4108 35.471 54.8788 35.737C54.4798 35.737 54.2138 36.003 53.9478 36.136C53.2828 36.535 52.7508 37.2 52.4848 37.998C52.3518 38.796 52.3518 39.727 52.6178 40.791C52.8838 41.589 53.2828 42.52 53.9478 43.584C53.9478 43.717 54.0808 43.717 54.2138 43.983C54.3468 43.983 54.3468 44.116 54.4798 44.249V44.382L54.6128 44.515C54.7458 44.914 54.7458 44.914 54.3468 45.18ZM51.1548 48.372C51.5538 46.909 52.6178 45.712 54.0808 44.648V44.781C54.0808 44.648 53.9478 44.648 53.9478 44.648C53.9478 44.515 53.8148 44.382 53.6818 44.249C53.6818 44.116 53.5488 43.983 53.4158 43.85C52.7508 42.786 52.3518 41.855 52.0858 40.924C51.6868 39.727 51.6868 38.663 51.9528 37.732C52.2188 36.934 52.8838 36.136 53.5488 35.604C53.9478 35.471 54.3468 35.205 54.7458 35.072C55.4108 34.939 56.0758 34.939 56.7408 34.939C57.4058 35.072 58.0708 35.338 58.7358 35.737C58.8688 35.87 59.0018 36.003 59.2678 36.136C59.4008 36.269 59.5338 36.269 59.7998 36.402C60.1988 36.801 60.4648 37.067 60.8638 37.466C61.1298 37.865 61.3958 38.264 61.6618 38.663C61.6618 38.796 61.7948 38.929 61.7948 38.929C61.9278 39.062 61.9278 39.195 61.9278 39.195C61.9278 39.195 61.9278 39.195 62.0608 39.062C62.1938 39.062 62.3268 39.062 62.5928 38.929C62.9918 38.929 63.2578 38.796 63.6568 38.796C64.0558 38.663 64.3218 38.663 64.7208 38.663L64.9868 38.53V38.796C65.7848 41.057 66.7158 42.387 67.7798 43.185C68.9768 43.983 70.1738 44.249 71.2378 44.249H71.6368V44.515C71.5038 45.18 71.2378 45.978 70.9718 46.776C70.8388 47.441 70.5728 48.239 70.3068 48.771C70.1738 48.904 70.1738 49.037 70.1738 49.17C70.0408 49.303 70.0408 49.303 70.0408 49.303C70.0408 49.436 70.0408 49.436 70.1738 49.569C70.1738 49.702 70.1738 49.835 70.1738 49.968C70.4398 50.766 70.7058 51.963 70.7058 53.293C70.7058 54.623 70.5728 55.953 69.6418 56.751C68.7108 57.815 67.3808 58.746 65.6518 58.879C64.0558 59.145 62.1938 58.48 60.1988 56.219C60.0658 55.953 59.9328 55.82 59.7998 55.82C59.7998 55.687 59.7998 55.687 59.7998 55.687C59.6668 55.82 59.5338 55.82 59.2678 55.953C58.3368 56.219 56.6078 56.618 54.8788 56.086C53.8148 55.82 52.6178 55.155 51.9528 53.825C50.7558 51.697 50.6228 49.968 51.1548 48.372ZM54.0808 44.781V44.648C54.0808 44.781 54.0808 44.781 54.0808 44.781Z" fill="black"/>
<path fill-rule="evenodd" clip-rule="evenodd" d="M39.3178 63.401C39.0518 63.667 39.4508 63.933 38.9188 64.332C38.7858 64.332 38.6528 67.125 38.7858 67.391C39.4508 68.189 39.3178 67.258 40.1158 67.79C40.2488 67.923 41.1798 67.923 41.0468 67.524C41.1798 67.391 41.5788 68.189 42.2438 67.524C42.5098 67.391 41.9778 66.992 41.8448 66.593C41.7118 65.928 41.7118 65.928 41.8448 65.263C41.8448 64.864 41.9778 64.465 42.1108 63.933C42.1108 63.401 42.2438 63.002 41.3128 63.401C40.9138 63.534 40.5148 63.667 39.9828 63.401C39.4508 63.268 39.5838 63.534 39.3178 63.401Z" fill="white"/>
<path fill-rule="evenodd" clip-rule="evenodd" d="M40.116 67.79C40.781 67.125 39.451 68.189 38.919 67.524C38.919 67.524 38.387 66.46 37.456 66.46C37.456 66.46 33.998 70.583 35.062 73.11C36.126 75.637 37.722 76.568 37.722 76.568C37.057 75.105 38.919 69.12 40.116 67.79Z" fill="white"/>
<path fill-rule="evenodd" clip-rule="evenodd" d="M42.1109 66.9919C42.5099 67.2579 43.3079 68.0559 43.8399 71.7799C44.7709 77.6319 43.3079 78.6959 43.3079 78.6959C45.7019 77.3659 45.9679 77.4989 46.8989 76.0359C46.8989 70.7159 45.9679 70.1839 44.9039 67.7899C44.7709 67.5239 44.6379 67.2579 44.5049 66.9919C43.3079 64.7309 42.1109 64.0659 41.9779 64.3319C41.9779 64.5979 41.8449 64.9969 41.8449 65.2629C41.7119 65.9279 41.7119 65.9279 41.8449 66.5929C41.9779 66.7259 41.9779 66.8589 42.1109 66.9919Z" fill="white"/>
<path fill-rule="evenodd" clip-rule="evenodd" d="M28.013 63.002C24.821 63.534 25.087 67.391 38.919 67.391H38.786C38.786 67.258 38.786 66.992 38.786 66.593C38.387 66.593 35.195 66.327 33.067 64.731C30.141 64.199 28.412 63.268 28.013 63.002Z" fill="white"/>
<path fill-rule="evenodd" clip-rule="evenodd" d="M28.013 63.002C28.545 63.002 29.21 63.002 29.742 63.135C30.806 63.268 32.003 63.8 33.067 64.731C35.195 66.327 38.387 66.593 38.786 66.593C38.786 65.662 38.786 64.332 38.919 64.332C39.451 63.933 39.052 63.667 39.318 63.401C38.254 63.268 35.594 62.736 34.53 61.672C33.2 60.209 28.944 59.012 27.614 59.145C26.55 59.278 26.417 62.47 26.417 63.933C26.55 63.534 27.215 63.135 28.013 63.002Z" fill="white"/>
<path fill-rule="evenodd" clip-rule="evenodd" d="M38.9189 64.332C38.7859 64.332 38.7859 65.662 38.7859 66.593C38.7859 66.992 38.7859 67.258 38.7859 67.391H38.9189V67.524C39.4509 68.189 39.4509 67.258 40.1159 67.79C40.2489 67.923 41.1799 67.923 41.0469 67.524C41.1799 67.391 41.5789 68.189 42.2439 67.524C42.3769 67.524 42.2439 67.258 42.1109 66.992C41.9779 66.859 41.9779 66.726 41.8449 66.593C41.7119 65.928 41.7119 65.928 41.8449 65.263C41.8449 64.997 41.9779 64.598 41.9779 64.332C42.1109 64.199 42.1109 64.066 42.1109 63.933C42.1109 63.667 42.1109 63.534 42.1109 63.401C41.9779 63.268 41.8449 63.135 41.3129 63.401C41.0469 63.401 40.9139 63.534 40.6479 63.534C40.5149 63.933 40.6479 71.514 39.8499 65.662C39.7169 64.997 39.3179 63.933 39.3179 63.534V63.401C39.0519 63.667 39.4509 63.933 38.9189 64.332Z" fill="white"/>
<path fill-rule="evenodd" clip-rule="evenodd" d="M39.3179 63.5339C39.3179 63.9329 39.7169 64.9969 39.8499 65.6619C40.6479 71.5139 40.5149 63.9329 40.6479 63.5339C40.5149 63.5339 40.2489 63.5339 39.9829 63.4009C39.4509 63.2679 39.5839 63.5339 39.3179 63.4009V63.5339Z" fill="white"/>
<path fill-rule="evenodd" clip-rule="evenodd" d="M26.4169 63.9329C26.4169 63.6669 26.4169 63.1349 26.4169 62.7359C25.0869 62.2039 15.7769 58.8789 15.7769 58.8789V61.8049C15.7769 61.8049 25.3529 64.7309 26.8159 65.1299C26.2839 64.7309 26.2839 64.3319 26.4169 63.9329Z" fill="white"/>
<path d="M32.668 85.2129C32.668 85.7449 32.668 86.1439 32.668 86.4099C32.535 86.5429 32.535 86.6759 32.402 86.6759H32.269V86.8089C32.535 86.8089 32.801 86.8089 32.801 86.8089C32.934 86.8089 33.2 86.8089 33.599 86.8089V86.6759C33.599 86.6759 33.466 86.6759 33.333 86.6759C33.2 86.6759 33.2 86.5429 33.067 86.4099C33.067 86.1439 33.067 85.7449 33.067 85.2129V85.0799C33.067 84.9469 33.067 84.9469 33.2 84.9469H33.865C33.865 84.9469 33.865 84.9469 33.865 85.0799C33.998 85.2129 34.264 85.6119 34.53 85.8779C34.796 86.2769 35.062 86.5429 35.328 86.6759C35.461 86.8089 35.594 86.8089 35.86 86.8089H36.259C36.392 86.8089 36.525 86.8089 36.525 86.8089L36.392 86.6759C36.392 86.6759 36.259 86.6759 36.126 86.6759C35.993 86.6759 35.86 86.6759 35.461 86.2769C35.195 86.0109 34.796 85.4789 34.264 84.8139C34.796 84.4149 34.929 83.8829 34.929 83.4839C34.929 83.0849 34.796 82.8189 34.663 82.6859C34.264 82.5529 33.865 82.5529 33.599 82.5529C33.333 82.5529 32.934 82.5529 32.934 82.5529C32.801 82.5529 32.535 82.5529 32.269 82.5529C32.136 82.5529 32.136 82.5529 32.136 82.5529C32.269 82.5529 32.402 82.5529 32.402 82.5529C32.535 82.6859 32.668 82.6859 32.668 82.9519C32.668 83.0849 32.668 83.2179 32.668 84.1489V85.2129ZM33.067 82.8189C33.067 82.6859 33.067 82.6859 33.2 82.6859C33.2 82.6859 33.333 82.6859 33.466 82.6859C34.131 82.6859 34.53 83.0849 34.53 83.8829C34.53 84.2819 34.397 84.5479 34.131 84.6809C33.998 84.8139 33.865 84.8139 33.732 84.8139C33.466 84.8139 33.2 84.8139 33.2 84.6809C33.067 84.6809 33.067 84.6809 33.067 84.6809V82.8189ZM36.924 85.2129C36.924 85.7449 36.924 86.1439 36.924 86.4099C36.924 86.5429 36.924 86.6759 36.791 86.6759C36.658 86.6759 36.658 86.6759 36.525 86.6759V86.8089C36.525 86.8089 36.525 86.8089 36.658 86.8089C36.658 86.8089 36.791 86.8089 36.924 86.8089C37.057 86.8089 37.19 86.8089 37.19 86.8089C37.323 86.8089 37.456 86.8089 37.589 86.8089C37.855 86.8089 38.121 86.8089 38.653 86.8089C38.786 86.8089 38.919 86.8089 38.919 86.6759C38.919 86.5429 38.919 86.1439 38.919 86.1439V86.0109C38.919 86.0109 38.919 86.0109 38.919 86.1439C38.786 86.4099 38.786 86.5429 38.653 86.5429C38.52 86.5429 38.254 86.5429 38.121 86.5429C37.589 86.5429 37.456 86.5429 37.456 86.1439C37.456 86.0109 37.456 85.3459 37.456 85.2129V84.6809C37.589 84.6809 38.121 84.6809 38.254 84.6809C38.52 84.6809 38.52 84.8139 38.52 84.8139C38.653 84.9469 38.653 84.9469 38.653 85.0799C38.653 85.0799 38.653 85.0799 38.653 84.9469C38.653 84.9469 38.653 84.6809 38.653 84.5479C38.653 84.4149 38.786 84.2819 38.786 84.2819C38.786 84.2819 38.786 84.2819 38.653 84.2819C38.52 84.4149 38.52 84.4149 38.387 84.4149C38.254 84.4149 37.589 84.4149 37.456 84.4149V82.8189C37.456 82.6859 37.456 82.6859 37.456 82.6859C37.456 82.6859 38.121 82.6859 38.254 82.6859C38.52 82.8189 38.653 82.8189 38.653 82.9519V83.0849C38.653 83.2179 38.653 83.2179 38.786 83.2179C38.786 83.2179 38.786 83.2179 38.786 83.0849V82.8189C38.786 82.5529 38.786 82.5529 38.786 82.5529C38.786 82.4199 38.786 82.4199 38.786 82.4199C38.653 82.5529 38.653 82.5529 38.52 82.5529C38.387 82.5529 37.19 82.5529 37.19 82.5529H36.924C36.791 82.5529 36.658 82.5529 36.525 82.5529H36.392H36.525H36.658C36.924 82.6859 36.924 82.6859 36.924 82.9519C36.924 83.0849 36.924 83.2179 36.924 84.1489V85.2129ZM43.175 86.2769C43.175 86.4099 43.042 86.5429 43.042 86.5429C42.909 86.6759 42.643 86.6759 42.377 86.6759C41.845 86.6759 41.313 86.5429 40.914 86.0109C40.648 85.8779 40.249 85.2129 40.249 84.4149C40.249 83.7499 40.515 83.2179 40.781 82.9519C41.313 82.6859 41.712 82.6859 42.111 82.6859C42.776 82.6859 43.308 82.8189 43.441 83.0849C43.441 83.2179 43.574 83.3509 43.574 83.4839V83.6169V83.4839C43.574 82.8189 43.707 82.6859 43.707 82.6859C43.707 82.5529 43.707 82.5529 43.574 82.5529C43.441 82.5529 43.175 82.5529 43.175 82.5529C43.042 82.5529 42.643 82.4199 42.244 82.4199C41.845 82.4199 41.18 82.4199 40.781 82.8189C40.249 83.0849 39.717 83.7499 39.717 84.6809C39.717 85.3459 40.116 86.0109 40.515 86.2769C41.047 86.8089 41.845 86.9419 42.377 86.9419C42.643 86.9419 43.175 86.8089 43.574 86.6759C43.574 86.5429 43.574 86.5429 43.574 86.2769V85.7449C43.574 85.4789 43.574 85.2129 43.574 85.0799C43.707 84.9469 43.707 84.8139 43.84 84.8139C43.973 84.8139 43.973 84.8139 43.973 84.8139V84.6809C43.707 84.6809 43.441 84.6809 43.441 84.6809C43.308 84.6809 43.042 84.6809 42.776 84.6809C42.643 84.6809 42.643 84.6809 42.643 84.6809V84.8139C42.776 84.8139 42.776 84.8139 42.909 84.8139C43.175 84.8139 43.175 84.9469 43.175 85.3459V86.2769ZM44.904 86.1439C44.771 86.4099 44.638 86.6759 44.372 86.6759H44.239V86.8089C44.505 86.8089 44.904 86.8089 44.904 86.8089C45.037 86.8089 45.303 86.8089 45.436 86.8089V86.6759H45.303C45.303 86.6759 45.17 86.6759 45.17 86.5429C45.17 86.4099 45.17 86.2769 45.17 86.1439L45.569 85.2129V85.0799H46.899C46.899 85.0799 46.899 85.0799 46.899 85.2129L47.431 86.5429C47.431 86.6759 47.431 86.6759 47.431 86.6759C47.298 86.6759 47.298 86.6759 47.298 86.8089C47.298 86.8089 47.431 86.8089 47.564 86.8089C47.963 86.8089 48.362 86.8089 48.362 86.8089C48.495 86.8089 48.495 86.8089 48.495 86.8089C48.495 86.6759 48.495 86.6759 48.495 86.6759C48.362 86.6759 48.362 86.6759 48.229 86.6759C48.096 86.6759 47.963 86.5429 47.697 86.0109C47.431 85.2129 46.5 82.8189 46.367 82.6859C46.367 82.4199 46.367 82.4199 46.234 82.4199C46.234 82.4199 46.234 82.4199 46.234 82.6859L44.904 86.1439ZM45.702 84.9469L46.101 83.3509C46.234 83.2179 46.234 83.2179 46.234 83.3509L46.766 84.9469H45.702ZM49.825 84.1489C49.825 83.2179 49.825 83.0849 49.825 82.9519C49.825 82.6859 49.958 82.6859 50.091 82.5529H50.224H50.357H50.224C50.091 82.5529 49.559 82.5529 49.559 82.5529C49.559 82.5529 49.16 82.5529 48.894 82.5529H49.027C49.293 82.6859 49.293 82.6859 49.293 82.9519C49.293 83.0849 49.293 83.2179 49.293 84.1489V85.2129C49.293 85.7449 49.293 86.1439 49.293 86.4099C49.293 86.5429 49.293 86.6759 49.16 86.6759H49.027C48.894 86.6759 48.894 86.8089 48.894 86.8089H49.027C49.16 86.8089 49.293 86.8089 49.293 86.8089C49.426 86.8089 49.559 86.8089 49.559 86.8089C49.692 86.8089 49.958 86.8089 50.224 86.8089C50.357 86.8089 50.756 86.8089 51.155 86.8089C51.421 86.8089 51.421 86.8089 51.421 86.6759C51.554 86.5429 51.554 86.1439 51.554 86.1439C51.554 86.0109 51.554 86.0109 51.554 86.0109C51.554 86.0109 51.421 86.0109 51.421 86.1439C51.421 86.1439 51.421 86.4099 51.288 86.4099C51.155 86.5429 50.889 86.5429 50.623 86.5429C50.224 86.5429 50.091 86.5429 49.958 86.5429C49.825 86.4099 49.825 86.0109 49.825 85.2129V84.1489Z" fill="white"/>
<path d="M32.535 88.8039C32.535 88.9369 32.535 89.0699 32.402 89.2029C32.402 89.2029 32.402 89.2029 32.402 89.3359H32.535C32.535 89.3359 32.668 89.3359 32.801 89.3359C32.801 89.3359 32.801 89.3359 32.668 89.3359C32.668 89.2029 32.668 89.2029 32.668 89.2029C32.668 89.0699 32.668 88.9369 32.668 88.8039V88.5379H32.934C33.067 88.5379 33.067 88.6709 33.067 88.6709V88.5379V88.4049C33.067 88.5379 33.067 88.5379 32.934 88.5379H32.668C32.668 88.5379 32.668 88.5379 32.668 88.4049V87.8729H32.934C33.067 87.8729 33.067 88.0059 33.067 88.0059V88.1389L33.2 88.0059C33.2 88.0059 33.2 88.0059 33.2 87.8729C33.2 87.8729 33.2 87.8729 33.067 87.8729C32.934 87.8729 32.535 87.8729 32.535 87.8729C32.402 87.8729 32.402 87.8729 32.402 87.8729C32.269 87.8729 32.269 87.8729 32.269 87.8729C32.402 87.8729 32.402 87.8729 32.402 87.8729C32.402 87.8729 32.535 87.8729 32.535 88.0059C32.535 88.0059 32.535 88.1389 32.535 88.4049V88.8039ZM33.732 88.4049C33.732 88.1389 33.732 88.0059 33.732 88.0059C33.865 87.8729 33.865 87.8729 33.865 87.8729C33.865 87.8729 33.865 87.8729 33.998 87.8729C33.998 87.8729 33.998 87.8729 33.865 87.8729H33.732C33.732 87.8729 33.599 87.8729 33.466 87.8729C33.466 87.8729 33.466 87.8729 33.599 87.8729C33.599 87.8729 33.599 87.8729 33.599 88.0059C33.599 88.0059 33.599 88.1389 33.599 88.4049V88.8039C33.599 88.9369 33.599 89.0699 33.599 89.2029C33.599 89.2029 33.599 89.2029 33.599 89.3359H33.466C33.599 89.3359 33.599 89.3359 33.599 89.3359C33.732 89.3359 33.732 89.3359 33.732 89.3359H33.865C33.998 89.3359 34.131 89.3359 34.264 89.3359C34.397 89.3359 34.397 89.3359 34.397 89.2029V89.0699L34.264 89.2029H34.131C33.865 89.2029 33.865 89.2029 33.865 89.2029C33.865 89.2029 33.732 89.0699 33.732 88.8039V88.4049ZM34.53 88.5379C34.53 88.9369 34.796 89.3359 35.328 89.3359C35.727 89.3359 35.993 88.9369 35.993 88.5379C35.993 88.1389 35.727 87.8729 35.328 87.8729C34.796 87.8729 34.53 88.2719 34.53 88.5379ZM34.663 88.5379C34.663 88.1389 34.929 87.8729 35.328 87.8729C35.594 87.8729 35.86 88.1389 35.86 88.5379C35.86 89.2029 35.461 89.2029 35.328 89.2029C34.929 89.2029 34.663 88.9369 34.663 88.5379ZM37.323 87.8729H37.19L36.791 89.0699C36.791 88.9369 36.525 88.2719 36.525 88.1389C36.525 88.0059 36.525 88.0059 36.525 87.8729H36.658C36.525 87.8729 36.392 87.8729 36.392 87.8729C36.392 87.8729 36.259 87.8729 36.126 87.8729H36.259C36.259 87.8729 36.259 87.8729 36.392 88.0059L36.658 89.2029C36.791 89.3359 36.791 89.3359 36.791 89.3359C36.791 89.3359 36.791 89.3359 36.791 89.2029C36.924 89.0699 37.19 88.2719 37.19 88.1389L37.589 89.2029C37.589 89.3359 37.589 89.3359 37.722 89.3359C37.722 89.3359 37.722 89.3359 37.722 89.2029C37.855 88.9369 37.988 88.2719 38.121 88.1389C38.121 88.0059 38.121 87.8729 38.254 87.8729H38.387H38.254H38.121H37.988C37.855 87.8729 37.855 87.8729 37.855 87.8729C37.855 87.8729 37.855 87.8729 37.988 87.8729C37.988 88.0059 37.988 88.0059 37.988 88.0059C37.988 88.2719 37.722 88.8039 37.722 89.0699L37.323 87.8729ZM38.653 88.8039C38.653 88.9369 38.653 89.0699 38.653 89.2029C38.653 89.2029 38.653 89.2029 38.52 89.3359H38.653C38.653 89.3359 38.653 89.3359 38.786 89.3359C38.786 89.3359 38.786 89.3359 38.919 89.3359C38.919 89.3359 39.052 89.3359 39.185 89.3359C39.318 89.3359 39.318 89.3359 39.318 89.2029V89.0699C39.318 89.2029 39.318 89.2029 39.185 89.2029H39.052C38.786 89.2029 38.786 89.2029 38.786 89.0699V88.8039V88.5379H39.052C39.185 88.5379 39.185 88.6709 39.185 88.6709V88.5379L39.318 88.4049H39.185C39.185 88.5379 39.185 88.5379 39.185 88.5379C39.052 88.5379 38.786 88.5379 38.786 88.5379C38.786 88.5379 38.786 88.5379 38.786 88.4049V87.8729H39.052C39.185 87.8729 39.185 88.0059 39.185 88.0059V88.1389C39.318 88.1389 39.318 88.0059 39.318 88.0059C39.318 88.0059 39.318 88.0059 39.318 87.8729C39.318 87.8729 39.318 87.8729 39.185 87.8729H38.786H38.653H38.52C38.653 87.8729 38.653 87.8729 38.653 88.0059C38.653 88.0059 38.653 88.1389 38.653 88.4049V88.8039ZM39.85 88.8039C39.85 88.9369 39.85 89.0699 39.85 89.2029C39.85 89.2029 39.85 89.2029 39.717 89.3359H39.85C39.85 89.3359 39.983 89.3359 40.116 89.3359C39.983 89.2029 39.983 89.2029 39.983 89.2029C39.983 89.0699 39.983 88.9369 39.983 88.8039V88.6709H40.249C40.249 88.8039 40.382 88.9369 40.515 88.9369C40.515 89.0699 40.648 89.2029 40.781 89.2029C40.781 89.3359 40.781 89.3359 40.914 89.3359H41.047H41.18C41.18 89.3359 41.18 89.3359 41.047 89.3359C41.047 89.2029 40.914 89.2029 40.781 89.0699C40.648 89.0699 40.515 88.8039 40.382 88.6709C40.515 88.5379 40.648 88.2719 40.648 88.1389C40.648 88.0059 40.515 88.0059 40.515 87.8729C40.382 87.8729 40.249 87.8729 40.116 87.8729C40.116 87.8729 39.983 87.8729 39.85 87.8729H39.717C39.85 87.8729 39.85 87.8729 39.85 88.0059C39.85 88.0059 39.85 88.1389 39.85 88.4049V88.8039ZM39.983 87.8729H40.116C40.382 87.8729 40.515 88.0059 40.515 88.2719C40.515 88.4049 40.382 88.5379 40.382 88.5379C40.249 88.6709 40.249 88.6709 40.249 88.6709C40.116 88.6709 39.983 88.6709 39.983 88.5379V87.8729ZM41.446 89.3359C41.446 89.3359 41.579 89.3359 41.712 89.2029C41.845 89.2029 41.845 89.0699 41.845 88.9369C41.845 88.8039 41.845 88.6709 41.579 88.4049C41.313 88.2719 41.313 88.2719 41.313 88.1389C41.313 88.0059 41.446 87.8729 41.579 87.8729C41.712 87.8729 41.712 88.0059 41.712 88.0059C41.845 88.0059 41.845 88.0059 41.845 88.1389C41.845 88.1389 41.845 88.1389 41.845 88.0059C41.845 87.8729 41.845 87.8729 41.845 87.8729C41.845 87.8729 41.845 87.8729 41.712 87.8729H41.579C41.313 87.8729 41.18 88.0059 41.18 88.1389C41.18 88.2719 41.18 88.4049 41.446 88.5379V88.6709C41.712 88.8039 41.712 88.8039 41.712 88.9369C41.712 89.0699 41.579 89.2029 41.446 89.2029C41.313 89.2029 41.18 89.2029 41.18 89.0699C41.18 89.0699 41.18 89.0699 41.18 88.9369C41.18 89.0699 41.18 89.0699 41.18 89.2029C41.18 89.2029 41.18 89.2029 41.18 89.3359C41.18 89.3359 41.313 89.3359 41.446 89.3359ZM42.244 89.3359C42.377 89.3359 42.377 89.2029 42.377 89.2029C42.377 89.0699 42.377 89.0699 42.244 89.0699L42.111 89.2029L42.244 89.3359ZM43.574 89.3359C43.707 89.3359 43.84 89.3359 43.84 89.3359L43.973 89.2029V88.9369C43.973 89.0699 43.84 89.0699 43.84 89.2029C43.84 89.2029 43.707 89.2029 43.574 89.2029C43.042 89.2029 42.776 88.9369 42.776 88.5379C42.776 88.2719 42.909 88.1389 43.042 88.0059C43.042 88.0059 43.175 87.8729 43.441 87.8729C43.574 87.8729 43.707 87.8729 43.84 88.0059L43.973 88.1389C43.973 88.2719 43.973 88.2719 43.973 88.2719C43.973 88.2719 43.973 88.2719 43.973 88.1389V88.0059C43.973 87.8729 43.973 87.8729 43.973 87.8729C43.84 87.8729 43.84 87.8729 43.707 87.8729C43.574 87.8729 43.574 87.8729 43.441 87.8729C43.175 87.8729 43.042 87.8729 42.909 88.0059C42.643 88.1389 42.643 88.4049 42.643 88.5379C42.643 88.6709 42.643 88.9369 42.909 89.0699C43.042 89.2029 43.175 89.3359 43.574 89.3359ZM44.239 88.5379C44.239 88.9369 44.372 89.3359 44.904 89.3359C45.436 89.3359 45.702 88.9369 45.702 88.5379C45.702 88.1389 45.436 87.8729 44.904 87.8729C44.372 87.8729 44.239 88.2719 44.239 88.5379ZM44.372 88.5379C44.372 88.1389 44.638 87.8729 44.904 87.8729C45.303 87.8729 45.569 88.1389 45.569 88.5379C45.569 89.2029 45.17 89.2029 45.037 89.2029C44.638 89.2029 44.372 88.9369 44.372 88.5379ZM47.431 87.8729L46.899 89.0699L46.234 87.8729L46.101 89.0699C46.101 89.2029 46.101 89.2029 45.968 89.3359H46.101H46.234C46.367 89.3359 46.367 89.3359 46.367 89.3359C46.367 89.3359 46.234 89.3359 46.234 89.2029C46.234 89.2029 46.234 89.2029 46.234 89.0699V88.2719C46.367 88.2719 46.5 88.6709 46.5 88.8039C46.5 88.8039 46.766 89.0699 46.766 89.2029C46.766 89.3359 46.766 89.3359 46.766 89.3359C46.899 89.3359 46.899 89.3359 46.899 89.2029L47.431 88.1389V89.2029C47.431 89.2029 47.431 89.2029 47.431 89.3359C47.564 89.3359 47.83 89.3359 47.83 89.3359C47.83 89.3359 47.83 89.3359 47.697 89.2029L47.564 89.0699L47.431 87.8729ZM48.096 89.3359C48.229 89.3359 48.229 89.2029 48.229 89.2029C48.229 89.0699 48.229 89.0699 48.096 89.0699L47.963 89.2029L48.096 89.3359ZM48.761 88.1389C48.761 88.1389 49.027 88.4049 49.293 88.6709C49.426 88.9369 49.692 89.2029 49.692 89.2029C49.825 89.3359 49.825 89.3359 49.825 89.3359C49.958 89.3359 49.958 89.3359 49.958 89.2029V88.0059C49.958 87.8729 49.958 87.8729 49.958 87.8729C50.091 87.8729 50.091 87.8729 50.091 87.8729C50.091 87.8729 50.091 87.8729 49.958 87.8729H49.825H49.692C49.559 87.8729 49.559 87.8729 49.559 87.8729C49.692 87.8729 49.692 87.8729 49.692 87.8729C49.825 87.8729 49.825 87.8729 49.825 88.0059V89.0699C49.692 88.9369 49.559 88.8039 49.293 88.5379C49.027 88.2719 48.761 87.8729 48.761 87.8729H48.628V89.0699C48.628 89.2029 48.628 89.2029 48.628 89.2029C48.495 89.3359 48.495 89.3359 48.495 89.3359C48.628 89.3359 48.628 89.3359 48.761 89.3359C48.761 89.3359 48.761 89.3359 48.894 89.3359C48.894 89.3359 48.894 89.3359 48.761 89.2029C48.761 89.2029 48.761 89.2029 48.761 89.0699V88.1389ZM51.421 89.2029C51.288 89.2029 51.288 89.2029 51.155 89.2029C51.022 89.2029 50.756 89.2029 50.623 89.0699C50.623 88.9369 50.49 88.8039 50.49 88.5379C50.49 88.2719 50.49 88.1389 50.623 88.0059C50.756 87.8729 50.889 87.8729 51.022 87.8729C51.288 87.8729 51.421 88.0059 51.554 88.0059C51.554 88.1389 51.554 88.1389 51.554 88.1389C51.554 88.0059 51.554 87.8729 51.554 87.8729H51.421C51.421 87.8729 51.288 87.8729 51.155 87.8729C51.022 87.8729 50.756 87.8729 50.623 87.8729C50.49 88.0059 50.224 88.2719 50.224 88.5379C50.224 88.8039 50.357 89.0699 50.49 89.0699C50.756 89.3359 51.022 89.3359 51.155 89.3359C51.288 89.3359 51.421 89.3359 51.554 89.2029V88.9369C51.554 88.8039 51.554 88.8039 51.554 88.6709C51.554 88.6709 51.554 88.6709 51.687 88.6709V88.5379H51.554C51.554 88.5379 51.421 88.5379 51.288 88.5379V88.6709C51.421 88.6709 51.421 88.6709 51.421 88.8039V89.2029Z" fill="white"/>
<path fill-rule="evenodd" clip-rule="evenodd" d="M32.0028 14.191C31.8698 14.191 31.7368 14.191 31.4708 14.191C30.1408 14.324 29.3428 15.92 30.4068 16.984C31.4708 17.915 31.0718 18.314 30.1408 17.516C29.0768 16.585 28.9438 15.122 30.2738 14.058C30.6728 13.659 31.4708 13.526 32.2688 13.659C33.4658 13.925 33.3328 14.457 32.0028 14.191Z" fill="black"/>
<path fill-rule="evenodd" clip-rule="evenodd" d="M16.176 24.8309C16.176 24.6979 16.176 24.4319 16.176 24.2989C16.176 22.8359 14.713 21.7719 13.383 22.8359C12.319 23.7669 11.92 23.3679 12.851 22.5699C14.048 21.5059 15.511 21.6389 16.442 22.9689C16.841 23.5009 16.974 24.2989 16.708 25.2299C16.309 26.2939 15.777 26.2939 16.176 24.8309Z" fill="black"/>
<path fill-rule="evenodd" clip-rule="evenodd" d="M42.909 41.3229C42.909 41.1899 42.909 40.9239 42.909 40.7909C42.909 39.5939 41.579 38.6629 40.382 39.5939C39.451 40.3919 39.185 39.9929 39.983 39.3279C40.914 38.3969 42.377 38.3969 43.175 39.5939C43.441 40.1259 43.574 40.7909 43.308 41.5889C43.042 42.6529 42.51 42.5199 42.909 41.3229Z" fill="black"/>
<path fill-rule="evenodd" clip-rule="evenodd" d="M20.1658 41.456C20.0328 41.323 19.8998 41.19 19.7668 41.057C18.4368 40.392 16.7078 41.323 16.9738 43.052C17.3728 44.515 16.8408 44.515 16.4418 43.318C16.0428 41.855 16.8408 40.392 18.5698 40.259C19.3678 40.126 20.0328 40.392 20.6978 41.057C21.6288 41.988 21.3628 42.387 20.1658 41.456Z" fill="black"/>
<path fill-rule="evenodd" clip-rule="evenodd" d="M71.3709 29.619C71.2379 29.353 71.2379 29.22 71.1049 29.22C70.5729 28.289 69.1099 27.89 68.7109 28.821C68.3119 29.752 67.9129 29.486 68.1789 28.821C68.5779 27.757 69.6419 27.491 70.7059 28.156C71.2379 28.555 71.6369 28.954 71.7699 29.619C72.0359 30.55 71.6369 30.55 71.3709 29.619Z" fill="black"/>
<path fill-rule="evenodd" clip-rule="evenodd" d="M54.6128 12.7279C54.6128 12.5949 54.6128 12.3289 54.6128 12.1959C54.6128 11.1319 53.4158 10.0679 52.4848 10.7329C51.6868 11.3979 51.5538 10.9989 52.0858 10.3339C53.0168 9.66891 54.0808 9.93491 54.7458 11.1319C55.0118 11.6639 55.1448 12.3289 55.0118 12.9939C54.7458 13.9249 54.3468 13.7919 54.6128 12.7279Z" fill="black"/>
<path fill-rule="evenodd" clip-rule="evenodd" d="M58.603 48.5049C58.736 48.5049 58.869 48.5049 59.002 48.5049C59.933 48.6379 61.13 47.9729 60.598 47.0419C60.199 46.2439 60.598 46.1109 60.997 46.6429C61.529 47.5739 61.13 48.5049 59.933 48.9039C59.401 49.0369 58.869 49.0369 58.204 48.7709C57.539 48.3719 57.672 48.1059 58.603 48.5049Z" fill="black"/>
</svg>
