<svg xmlns="http://www.w3.org/2000/svg" width="32" height="32" viewBox="0 0 32 32" fill="none">
  <path d="M2.66699 26.6665H29.3337V29.3332H2.66699V26.6665ZM5.33366 15.9998H8.00033V25.3332H5.33366V15.9998ZM12.0003 15.9998H14.667V25.3332H12.0003V15.9998ZM17.3337 15.9998H20.0003V25.3332H17.3337V15.9998ZM24.0003 15.9998H26.667V25.3332H24.0003V15.9998ZM2.66699 9.33317L16.0003 2.6665L29.3337 9.33317V14.6665H2.66699V9.33317ZM16.0003 10.6665C16.3539 10.6665 16.6931 10.526 16.9431 10.276C17.1932 10.0259 17.3337 9.68679 17.3337 9.33317C17.3337 8.97955 17.1932 8.64041 16.9431 8.39036C16.6931 8.14031 16.3539 7.99984 16.0003 7.99984C15.6467 7.99984 15.3076 8.14031 15.0575 8.39036C14.8075 8.64041 14.667 8.97955 14.667 9.33317C14.667 9.68679 14.8075 10.0259 15.0575 10.276C15.3076 10.526 15.6467 10.6665 16.0003 10.6665Z" fill="#B240DA"/>
</svg>