<svg width="20" height="20" viewBox="0 0 20 20" fill="none" xmlns="http://www.w3.org/2000/svg">
<path d="M5 2H1C0.734783 2 0.480429 2.10536 0.292892 2.29289C0.105356 2.48043 0 2.73478 0 3V19C0 19.2652 0.105356 19.5196 0.292892 19.7071C0.480429 19.8946 0.734783 20 1 20H19C19.2652 20 19.5196 19.8946 19.7071 19.7071C19.8946 19.5196 20 19.2652 20 19V3C20 2.73478 19.8946 2.48043 19.7071 2.29289C19.5196 2.10536 19.2652 2 19 2H15V0H13V2H7V0H5V2ZM18 8V18H2V8H18ZM16 10H14V12H16V10ZM11 10H9V12H11V10ZM6 10H4V12H6V10Z" fill="#4B5563"/>
</svg>
