<svg width="200" height="200" viewBox="0 0 200 200" fill="none" xmlns="http://www.w3.org/2000/svg">
<path d="M43.1989 44.9527L43.8349 43.9047C49.1989 35.0687 58.9069 29.7407 69.1269 30.4007C70.4423 30.483 71.7498 30.6621 73.0389 30.9367C82.3309 32.9367 90.4189 39.9527 93.7709 48.9367C95.7389 54.2287 96.2909 60.3247 100.031 64.5367C104.899 70.0047 113.163 70.1767 120.431 69.9487C127.699 69.7207 135.967 69.9167 140.811 75.4047C143.843 78.8447 144.811 83.7327 144.563 88.3367C143.915 100.525 135.423 111.425 124.623 116.841C113.823 122.257 101.103 122.745 89.2789 120.361C72.7189 117.021 56.9709 107.853 47.5029 93.6927C38.0349 79.5327 35.6429 60.2327 43.1989 44.9527Z" fill="#F5F5F5"/>
<path d="M144.063 142.189C151.077 142.189 156.763 136.503 156.763 129.489C156.763 122.475 151.077 116.789 144.063 116.789C137.049 116.789 131.363 122.475 131.363 129.489C131.363 136.503 137.049 142.189 144.063 142.189Z" fill="#F5F5F5"/>
<path d="M43.185 27.6475C44.2442 21.3314 39.9827 15.3525 33.6666 14.2933C27.3505 13.2341 21.3716 17.4957 20.3124 23.8117C19.2532 30.1278 23.5147 36.1067 29.8308 37.1659C36.1469 38.2251 42.1258 33.9636 43.185 27.6475Z" fill="#F5F5F5"/>
<path d="M184.4 189.497C184.4 189.553 146.8 189.601 100.4 189.601C54.0004 189.601 16.4004 189.553 16.4004 189.497C16.4004 189.441 54.0004 189.393 100.4 189.393C146.8 189.393 184.4 189.437 184.4 189.497Z" fill="#263238"/>
<path d="M183.536 98.7998C178.8 101.232 175.2 105.448 172.58 110.088C169.96 114.728 168.296 119.824 166.632 124.888L165.176 150.964C170.676 141.608 175.088 130.612 176.28 119.824L172.624 119.496C175.076 119.124 177.136 117.344 178.448 115.236C179.76 113.128 180.448 110.696 181.088 108.304L176.624 108.968C180.148 106.591 182.622 102.951 183.536 98.7998Z" fill="#455A64"/>
<g opacity="0.3">
<path d="M183.536 98.7998C178.8 101.232 175.2 105.448 172.58 110.088C169.96 114.728 168.296 119.824 166.632 124.888L165.176 150.964C170.676 141.608 175.088 130.612 176.28 119.824L172.624 119.496C175.076 119.124 177.136 117.344 178.448 115.236C179.76 113.128 180.448 110.696 181.088 108.304L176.624 108.968C180.148 106.591 182.622 102.951 183.536 98.7998Z" fill="black"/>
</g>
<path d="M164.361 157.068C164.361 157.068 152.425 142.8 152.561 129.14H157.385C157.385 129.14 152.145 125.696 152.561 123.768C152.977 121.84 153.113 114.536 153.113 114.536L157.513 115.636C157.513 115.636 154.209 113.984 153.793 111.368C153.377 108.752 154.757 96.624 154.757 96.624C154.757 96.624 160.133 102.272 161.785 108.06C163.437 113.848 167.785 120.596 166.505 138.232C165.225 155.868 164.361 157.068 164.361 157.068Z" fill="#455A64"/>
<path d="M170.4 158.4C170.4 158.4 183.332 149.784 186.208 138.8L182.332 137.744C182.332 137.744 187.296 136.124 187.384 134.48C187.472 132.836 188.96 126.94 188.96 126.94L185.172 126.86C185.172 126.86 188.196 126.256 189.1 124.24C190.004 122.224 191.548 112.176 191.548 112.176C191.548 112.176 185.992 115.544 183.396 119.832C180.8 124.12 175.836 128.604 172.996 143.06C170.156 157.516 170.4 158.4 170.4 158.4Z" fill="#455A64"/>
<path d="M158.029 109.08C158.046 109.13 158.06 109.18 158.069 109.232C158.097 109.34 158.129 109.484 158.173 109.672C158.261 110.072 158.389 110.64 158.549 111.364C158.709 112.088 158.909 113.004 159.117 114.056C159.325 115.108 159.577 116.3 159.817 117.628C160.329 120.276 160.865 123.444 161.417 126.968C161.969 130.492 162.493 134.38 162.969 138.468C163.445 142.556 163.801 146.468 164.081 150.024C164.361 153.58 164.545 156.788 164.653 159.484C164.717 160.832 164.749 162.052 164.785 163.124C164.821 164.196 164.841 165.124 164.849 165.872C164.857 166.62 164.849 167.2 164.849 167.608V168.06C164.854 168.111 164.854 168.161 164.849 168.212C164.845 168.161 164.845 168.111 164.849 168.06C164.849 167.948 164.849 167.8 164.829 167.608C164.829 167.208 164.797 166.616 164.769 165.872C164.741 165.128 164.721 164.196 164.673 163.128C164.625 162.06 164.585 160.836 164.509 159.492C164.381 156.796 164.169 153.592 163.893 150.04C163.617 146.488 163.233 142.584 162.769 138.492C162.305 134.4 161.757 130.524 161.233 127C160.709 123.476 160.165 120.308 159.673 117.656C159.441 116.328 159.201 115.132 159.001 114.08C158.801 113.028 158.625 112.12 158.473 111.384C158.321 110.648 158.213 110.08 158.133 109.68L158.049 109.236C158.038 109.185 158.031 109.133 158.029 109.08Z" fill="#263238"/>
<path d="M162.705 165.816C162.705 165.816 151.781 153.416 148.389 145.928L150.949 144.836C149.093 145.14 147.193 144.344 145.749 143.132C144.305 141.92 143.253 140.332 142.217 138.756L145.589 138.188C142.491 137.302 139.853 135.258 138.221 132.48C142.201 133.132 145.801 135.32 148.769 138.052C151.169 140.264 153.209 142.852 155.169 145.46C156.124 146.739 156.956 148.105 157.653 149.54C159.485 153.336 162.713 161.264 162.705 165.816Z" fill="#455A64"/>
<path d="M186.401 119.396C186.387 119.439 186.37 119.48 186.349 119.52L186.181 119.88C186.021 120.208 185.801 120.68 185.513 121.256C184.929 122.456 184.097 124.176 183.093 126.324C182.089 128.472 180.925 131.044 179.681 133.924C178.437 136.804 177.129 139.992 175.821 143.364C174.513 146.736 173.349 149.984 172.325 152.964C171.301 155.944 170.437 158.616 169.737 160.884C169.037 163.152 168.485 164.988 168.137 166.26C167.953 166.888 167.809 167.38 167.705 167.728C167.657 167.884 167.617 168.008 167.589 168.104C167.579 168.149 167.563 168.192 167.541 168.232C167.544 168.187 167.552 168.143 167.565 168.1C167.593 168.004 167.625 167.876 167.665 167.7C167.757 167.348 167.889 166.856 168.065 166.224C168.409 164.94 168.937 163.096 169.621 160.824C170.305 158.552 171.161 155.86 172.169 152.888C173.177 149.916 174.349 146.672 175.649 143.288C176.949 139.904 178.281 136.724 179.529 133.844C180.777 130.964 181.957 128.4 182.985 126.244C184.013 124.088 184.857 122.384 185.465 121.204L186.169 119.848L186.353 119.496C186.365 119.432 186.401 119.392 186.401 119.396Z" fill="#263238"/>
<path d="M163.633 171.128C163.606 171.055 163.589 170.978 163.581 170.9C163.553 170.728 163.521 170.5 163.477 170.244C163.433 169.988 163.381 169.608 163.309 169.204C163.237 168.8 163.165 168.336 163.053 167.832C162.857 166.816 162.577 165.62 162.221 164.3C161.865 162.98 161.397 161.552 160.845 160.076C160.293 158.6 159.677 157.228 159.085 156C158.493 154.772 157.885 153.688 157.377 152.8C157.125 152.348 156.873 151.956 156.661 151.6C156.449 151.244 156.261 150.952 156.101 150.708C155.941 150.464 155.841 150.308 155.745 150.144C155.7 150.081 155.662 150.013 155.633 149.94C155.687 149.996 155.737 150.056 155.781 150.12L156.181 150.664C156.349 150.9 156.553 151.192 156.773 151.54C156.993 151.888 157.257 152.276 157.517 152.74C158.057 153.624 158.657 154.704 159.269 155.94C159.881 157.176 160.489 158.552 161.053 160.032C161.617 161.512 162.057 162.956 162.417 164.276C162.777 165.596 163.033 166.812 163.217 167.832C163.321 168.34 163.381 168.804 163.441 169.212C163.501 169.62 163.549 169.972 163.577 170.26C163.605 170.548 163.625 170.748 163.645 170.924C163.648 170.993 163.644 171.061 163.633 171.128Z" fill="#263238"/>
<path d="M178.045 168.212H154.137V173.088H178.045V168.212Z" fill="#9B0000"/>
<path d="M156.416 173.092L159 189.496H173.448L175.86 173.092H156.416Z" fill="#9B0000"/>
<path d="M176.581 173.092C176.581 173.148 172.057 173.196 166.481 173.196C160.905 173.196 156.377 173.148 156.377 173.092C156.377 173.036 160.901 172.988 166.481 172.988C172.061 172.988 176.581 173.032 176.581 173.092Z" fill="#263238"/>
<path d="M61.9994 48.7681C62.3994 46.8201 63.7714 45.7801 65.5994 45.0121C66.5246 44.6379 67.5263 44.4919 68.5199 44.5866C69.5134 44.6813 70.4695 45.0138 71.3074 45.5561C72.4194 46.2921 73.3074 47.4041 74.6074 47.7561C76.7194 48.3401 79.0394 46.6321 81.0794 47.4281C81.6884 47.6671 82.1957 48.1099 82.5149 48.681C82.834 49.2521 82.9453 49.9163 82.8297 50.5602C82.7141 51.2042 82.3789 51.7881 81.881 52.2126C81.3832 52.6371 80.7535 52.8758 80.0994 52.8881C81.4834 53.2881 82.0274 55.1881 81.3194 56.4401C80.6114 57.6921 79.0234 58.2521 77.5954 58.0841C76.1674 57.9161 74.8794 57.1401 73.7514 56.2481C72.6234 55.3561 71.5914 54.3401 70.3914 53.5441C69.1914 52.7481 67.7674 52.1801 66.3394 52.3441C64.4074 52.5761 62.8354 54.1481 62.0874 55.9441C61.3394 57.7401 61.2874 59.7401 61.2874 61.6881C61.2874 63.6361 61.4034 65.6081 60.9514 67.5041C60.9408 67.618 60.9034 67.7278 60.8422 67.8244C60.781 67.921 60.6978 68.0018 60.5994 68.0601C60.2914 68.1761 59.9994 67.8601 59.8234 67.5801C57.8351 64.4062 56.4896 60.8726 55.8634 57.1801C55.5034 55.0441 55.4234 53.0041 56.4874 51.1201C57.5514 49.2361 60.4474 47.7001 61.9874 48.7441" fill="#263238"/>
<path d="M58.828 58.02L59.228 77.904C59.304 81.616 61.168 85.456 67.032 85.068C72.096 84.348 72.232 80.796 72.204 76.392C72.204 76.392 77.752 75.756 78.04 70.248C78.176 67.584 78.016 62.08 77.816 57.1C77.7105 54.5198 76.6374 52.074 74.8104 50.2492C72.9833 48.4244 70.5362 47.3543 67.956 47.252H67.424C61.684 47.34 58.564 52.28 58.828 58.02Z" fill="#FFBE9D"/>
<path d="M72.2111 76.4C69.6665 76.2936 67.2055 75.4608 65.1191 74C65.1191 74 66.6831 78.344 72.2031 78.068L72.2111 76.4Z" fill="#EB996E"/>
<path d="M75.871 62.636C75.8617 62.8419 75.7734 63.0363 75.6243 63.1786C75.4753 63.3209 75.2771 63.4002 75.071 63.4C74.9708 63.4043 74.8707 63.3884 74.7768 63.3533C74.6828 63.3181 74.5969 63.2644 74.5242 63.1954C74.4514 63.1263 74.3933 63.0434 74.3532 62.9514C74.3131 62.8594 74.292 62.7603 74.291 62.66C74.3003 62.4542 74.3887 62.2598 74.5377 62.1175C74.6867 61.9751 74.8849 61.8958 75.091 61.896C75.1911 61.8923 75.2909 61.9086 75.3846 61.9439C75.4783 61.9793 75.564 62.033 75.6367 62.102C75.7093 62.1709 75.7675 62.2536 75.8077 62.3453C75.848 62.4371 75.8695 62.5359 75.871 62.636Z" fill="#263238"/>
<path d="M76.5314 59.7565C76.4314 59.8565 75.8514 59.3885 75.0034 59.3565C74.1554 59.3245 73.5194 59.7245 73.4314 59.6165C73.3874 59.5685 73.4954 59.3885 73.7714 59.2165C74.1476 58.9761 74.5894 58.8587 75.0354 58.8805C75.472 58.8993 75.8917 59.0546 76.2354 59.3245C76.4994 59.5245 76.5794 59.7125 76.5314 59.7565Z" fill="#263238"/>
<path d="M68.0238 62.2923C68.0146 62.4982 67.9262 62.6925 67.7772 62.8349C67.6281 62.9772 67.4299 63.0565 67.2238 63.0563C67.1221 63.0628 67.0201 63.0486 66.9241 63.0145C66.828 62.9804 66.7399 62.9271 66.6651 62.8579C66.5903 62.7887 66.5303 62.705 66.4888 62.6119C66.4474 62.5188 66.4252 62.4182 66.4238 62.3163C66.4331 62.1104 66.5215 61.9161 66.6705 61.7738C66.8195 61.6314 67.0177 61.5521 67.2238 61.5523C67.3255 61.5458 67.4275 61.56 67.5236 61.5941C67.6196 61.6283 67.7077 61.6815 67.7825 61.7507C67.8574 61.8199 67.9173 61.9036 67.9588 61.9967C68.0003 62.0898 68.0224 62.1904 68.0238 62.2923Z" fill="#263238"/>
<path d="M68.1992 59.6C68.0992 59.7 67.5192 59.236 66.6712 59.2C65.8232 59.164 65.1872 59.568 65.0992 59.46C65.0112 59.352 65.1632 59.232 65.4432 59.06C65.8184 58.8206 66.2585 58.7033 66.7032 58.724C67.1398 58.7428 67.5595 58.8981 67.9032 59.168C68.1672 59.348 68.2472 59.536 68.1992 59.6Z" fill="#263238"/>
<path d="M71.023 66.0001C71.4747 65.8797 71.9395 65.8152 72.407 65.8081C72.623 65.8081 72.831 65.7601 72.875 65.6121C72.9013 65.3903 72.8595 65.1656 72.755 64.9681C72.571 64.4361 72.383 63.8801 72.179 63.2961C71.379 60.8961 70.819 58.9601 70.915 58.9281C71.011 58.8961 71.735 60.8001 72.515 63.1841C72.703 63.7681 72.887 64.3281 73.059 64.8641C73.1856 65.1297 73.2139 65.4316 73.139 65.7161C73.1048 65.7914 73.0539 65.858 72.9901 65.9106C72.9264 65.9633 72.8514 66.0008 72.771 66.0201C72.6488 66.0466 72.524 66.0587 72.399 66.0561C71.9398 66.0961 71.4774 66.0773 71.023 66.0001Z" fill="#263238"/>
<path d="M68.5515 56.2722C68.4595 56.4962 67.6155 56.3562 66.6195 56.4362C65.6235 56.5162 64.8035 56.7522 64.6835 56.5442C64.6275 56.4402 64.7755 56.2282 65.1075 56.0202C65.5493 55.7589 66.047 55.6067 66.5595 55.5762C67.0697 55.5365 67.5822 55.6174 68.0555 55.8122C68.3995 55.9762 68.5915 56.1642 68.5515 56.2722Z" fill="#263238"/>
<path d="M76.3204 57.2922C76.1604 57.4802 75.5884 57.2562 74.8844 57.2202C74.1804 57.1842 73.5844 57.2962 73.4564 57.0882C73.4004 56.9882 73.5004 56.8003 73.7684 56.6283C74.1225 56.4175 74.534 56.3237 74.9444 56.3602C75.3573 56.3837 75.7528 56.5347 76.0764 56.7922C76.3164 57.0002 76.4004 57.2002 76.3204 57.2922Z" fill="#263238"/>
<path d="M59.1159 62.1196C59.0239 62.0756 55.3719 60.8476 55.3439 64.6236C55.3159 68.3996 59.1079 67.6476 59.1159 67.5396C59.1239 67.4316 59.1159 62.1196 59.1159 62.1196Z" fill="#FFBE9D"/>
<path d="M57.9713 66.1001C57.9713 66.1001 57.9073 66.1481 57.7953 66.1961C57.6371 66.2579 57.4614 66.2579 57.3033 66.1961C56.9033 66.0441 56.5753 65.3961 56.5633 64.7281C56.556 64.4043 56.6216 64.083 56.7553 63.7881C56.7918 63.671 56.8559 63.5645 56.9422 63.4775C57.0285 63.3905 57.1345 63.3255 57.2513 63.2881C57.3289 63.2654 57.4121 63.2716 57.4856 63.3054C57.5591 63.3392 57.6179 63.3984 57.6513 63.4721C57.6993 63.5801 57.6753 63.6521 57.6953 63.6601C57.7153 63.6681 57.7793 63.5961 57.7473 63.4401C57.7287 63.3447 57.6761 63.2594 57.5993 63.2001C57.4955 63.1208 57.365 63.085 57.2353 63.1001C57.0801 63.1298 56.9351 63.1987 56.814 63.3002C56.6929 63.4017 56.5997 63.5325 56.5433 63.6801C56.3797 64.0061 56.2986 64.3674 56.3073 64.7321C56.3273 65.4921 56.7073 66.2041 57.2553 66.3681C57.3561 66.3982 57.4623 66.4052 57.5662 66.3885C57.6701 66.3719 57.7689 66.3321 57.8553 66.2721C57.9633 66.1921 57.9993 66.1081 57.9713 66.1001Z" fill="#EB996E"/>
<path d="M78.0954 51.9678C77.6001 50.8787 76.8413 49.9301 75.8874 49.2078C73.9008 47.5571 71.4444 46.5745 68.8674 46.3998C66.278 46.2361 63.7264 47.0852 61.7514 48.7678C60.2283 50.1606 59.1453 51.9679 58.6354 53.9678C58.1386 55.9666 58.0434 58.044 58.3554 60.0798C58.4794 60.9718 58.6834 61.8998 59.2794 62.5758C59.6514 62.9998 60.3114 63.2918 60.7674 62.9758C61.0173 62.7534 61.185 62.4533 61.2434 62.1238C62.0834 59.2438 62.9234 56.1478 61.9714 53.3038C62.7008 52.3653 63.6176 51.5889 64.6634 51.0238C65.1858 50.7422 65.7592 50.5678 66.3499 50.5107C66.9406 50.4537 67.5368 50.5153 68.1034 50.6918C69.7634 51.2758 70.7314 52.9518 72.0274 54.1398C72.965 54.9823 74.0891 55.5902 75.3074 55.9136C76.5258 56.237 77.8034 56.2665 79.0354 55.9998L78.0954 51.9678Z" fill="#263238"/>
<path d="M71.4398 68.3444C71.3536 68.6897 71.2189 69.021 71.0398 69.3284C70.945 69.4807 70.8189 69.6111 70.67 69.7111C70.5211 69.8111 70.3526 69.8783 70.1758 69.9084C69.9851 69.921 69.7944 69.8855 69.621 69.8051C69.4477 69.7247 69.2973 69.6021 69.1838 69.4484C68.9611 69.1354 68.8422 68.7605 68.8438 68.3764C68.8438 68.0324 68.9678 67.6124 69.3078 67.5524C69.451 67.5355 69.5961 67.5576 69.7278 67.6164L71.5678 68.2244" fill="#EB996E"/>
<path d="M70.8191 69.868C70.4971 69.9109 70.1699 69.8918 69.8551 69.812C69.5343 69.7102 69.2623 69.4937 69.0911 69.204C68.9931 69.0266 68.9335 68.8306 68.9163 68.6287C68.8991 68.4267 68.9245 68.2234 68.9911 68.032C69.025 67.9348 69.0707 67.8421 69.1271 67.756C69.1951 67.676 69.1791 67.68 69.2591 67.684C69.3391 67.688 69.4551 67.748 69.5551 67.78L69.8551 67.88C70.2551 68.008 70.6071 68.124 70.9071 68.212C71.2255 68.339 71.5613 68.4172 71.9031 68.444C71.6219 68.2481 71.3114 68.0982 70.9831 68C70.6911 67.88 70.3431 67.748 69.9551 67.6L69.6551 67.492C69.5471 67.456 69.4631 67.412 69.3191 67.376C69.2304 67.355 69.1373 67.3649 69.0551 67.404C68.9789 67.4427 68.9141 67.5006 68.8671 67.572C68.7922 67.6811 68.7317 67.7994 68.6871 67.924C68.6046 68.1588 68.5752 68.409 68.6007 68.6566C68.6263 68.9041 68.7063 69.143 68.8351 69.356C69.0529 69.6996 69.3982 69.9427 69.7951 70.032C70.0522 70.0948 70.3215 70.0879 70.5751 70.012C70.7511 69.952 70.8271 69.884 70.8191 69.868Z" fill="#263238"/>
<path d="M82.2078 48.3599C82.2306 48.4422 82.244 48.5267 82.2478 48.6119C82.2559 48.8598 82.2289 49.1076 82.1678 49.3479C82.0421 49.7881 81.8303 50.199 81.5447 50.5567C81.259 50.9144 80.9053 51.2119 80.5038 51.4319C79.4918 52.0279 78.0078 52.1159 76.5558 51.6799C75.1038 51.2439 73.6798 50.3279 72.1998 49.4559C70.7198 48.5839 69.1678 47.9239 67.6838 47.9839C66.3694 48.0494 65.1141 48.5504 64.1158 49.4079C63.434 49.973 62.8525 50.6492 62.3958 51.4079C62.0758 51.9519 61.9438 52.2799 61.9238 52.2679C61.9401 52.1848 61.967 52.1042 62.0038 52.0279C62.0934 51.7995 62.1962 51.5764 62.3118 51.3599C62.746 50.5657 63.319 49.8558 64.0038 49.2639C65.0226 48.3576 66.3184 47.8233 67.6798 47.7479C69.2278 47.6719 70.8358 48.3599 72.3198 49.2319C73.8038 50.1039 75.1918 51.0359 76.6198 51.4519C78.0478 51.8679 79.4478 51.8159 80.4198 51.2679C81.2053 50.8543 81.7991 50.1514 82.0758 49.3079C82.1601 48.9989 82.2045 48.6803 82.2078 48.3599Z" fill="#455A64"/>
<path d="M56.2949 56.212C56.3252 55.8614 56.4244 55.5202 56.5869 55.208C56.9235 54.429 57.4116 53.7247 58.0229 53.136C58.3593 52.8121 58.7294 52.5251 59.1269 52.28C59.4513 52.0566 59.827 51.919 60.2189 51.88C60.4868 51.8611 60.7536 51.9299 60.9789 52.076C61.1349 52.184 61.1829 52.28 61.1709 52.288C60.8941 52.1034 60.5621 52.0201 60.2309 52.052C59.6309 52.116 58.8869 52.652 58.1949 53.3C57.6057 53.873 57.1151 54.5393 56.7429 55.272C56.4509 55.844 56.3349 56.224 56.2949 56.212Z" fill="#455A64"/>
<path d="M56.8281 59.5563C56.8822 59.2077 57.0016 58.8725 57.1801 58.5683C57.5688 57.8132 58.0921 57.1355 58.7241 56.5683C59.3606 55.9972 60.0951 55.5459 60.8921 55.2363C61.214 55.0917 61.5598 55.0077 61.9121 54.9883C61.6005 55.1379 61.2814 55.2714 60.9561 55.3883C60.2037 55.7358 59.5068 56.1927 58.8881 56.7443C58.2766 57.3016 57.7521 57.9474 57.3321 58.6603C57.0121 59.2003 56.8641 59.5723 56.8281 59.5563Z" fill="#455A64"/>
<path d="M84.5755 114.04L104.643 122.124L101.444 127.856L78.6875 124.364L84.5755 114.04Z" fill="#FFBE9D"/>
<path d="M84.6158 90.6846C84.7198 96.3286 84.5358 109.929 84.5358 109.929L87.7358 114.985L82.1078 122.585L75.6038 123.501L74.9598 128.545C74.9598 128.545 63.5638 133.645 54.4478 130.545C47.3558 128.145 39.0678 136.229 39.0678 136.229C39.0678 136.229 38.3078 134.909 39.5398 123.501C40.7118 112.625 42.7398 94.6765 42.7398 94.6765L49.2958 78.2766L59.1998 76.5605C63.3238 83.5685 71.5678 83.6085 72.2318 79.3605L78.7798 82.0846C80.5032 82.7728 81.9815 83.9604 83.0249 85.4949C84.0684 87.0294 84.6294 88.8409 84.6358 90.6966L84.6158 90.6846Z" fill="#9B0000"/>
<path d="M78.9398 92.4004C78.9958 92.4004 78.3038 98.8844 77.3958 106.864C76.4878 114.844 75.6998 121.312 75.6438 121.304C75.5878 121.296 76.2758 114.824 77.1878 106.84C78.0998 98.8564 78.8838 92.4004 78.9398 92.4004Z" fill="#263238"/>
<path d="M75.6917 107.02C75.7237 107.068 72.4917 109.192 68.4917 111.764C64.4917 114.336 61.2437 116.4 61.1997 116.332C61.1557 116.264 64.3997 114.16 68.3997 111.588C72.3997 109.016 75.6597 106.972 75.6917 107.02Z" fill="#263238"/>
<path d="M64.1842 189.496H60.4002L58.2402 164.068H64.1842V189.496Z" fill="#263238"/>
<path d="M34.7232 189.496H30.9432L28.7832 164.068H34.7232V189.496Z" fill="#263238"/>
<path d="M105.975 189.496H102.195L100.035 164.068H105.975V189.496Z" fill="#263238"/>
<path d="M45.0916 141.408L48.6916 86.2803H14.6916C14.0844 86.2807 13.4849 86.4147 12.9353 86.6727C12.3857 86.9307 11.8997 87.3064 11.5115 87.7732C11.1233 88.24 10.8425 88.7865 10.6891 89.3739C10.5357 89.9613 10.5133 90.5753 10.6236 91.1723L24.3076 165.016C28.6596 164.956 107.968 165.016 107.968 165.016V141.416L45.0916 141.408Z" fill="#455A64"/>
<path d="M95.5232 156.892C95.5232 156.952 87.9872 156.996 78.6952 156.996C69.4032 156.996 61.8672 156.952 61.8672 156.892C61.8672 156.832 69.3992 156.788 78.6952 156.788C87.9912 156.788 95.5232 156.836 95.5232 156.892Z" fill="#263238"/>
<path d="M125.628 169.721L128.072 181.393C128.072 181.393 140.76 182.825 141.42 184.937L118.96 190.493L114.4 172.465L125.628 169.721Z" fill="#9B0000"/>
<path d="M120.887 182.136C120.688 182.256 120.54 182.444 120.471 182.665C120.402 182.886 120.416 183.125 120.511 183.336C120.62 183.545 120.806 183.704 121.03 183.778C121.254 183.853 121.498 183.838 121.711 183.736C121.924 183.61 122.083 183.41 122.157 183.173C122.231 182.937 122.214 182.681 122.111 182.456C121.973 182.255 121.762 182.116 121.523 182.068C121.284 182.019 121.036 182.065 120.831 182.196" fill="#E0E0E0"/>
<path d="M119.063 190.972L118.619 189.224L140.251 184.024C140.251 184.024 141.359 184.212 141.419 184.944L119.063 190.972Z" fill="#E0E0E0"/>
<path d="M128.399 181.2C128.423 181.308 127.887 181.496 127.435 181.98C126.983 182.464 126.811 183 126.699 182.98C126.587 182.96 126.595 182.288 127.151 181.708C127.707 181.128 128.399 181.08 128.399 181.2Z" fill="#263238"/>
<path d="M131.008 181.576C131.056 181.676 130.628 181.976 130.372 182.536C130.116 183.096 130.128 183.612 130.016 183.632C129.904 183.652 129.684 183.052 130.016 182.368C130.348 181.684 130.976 181.472 131.008 181.576Z" fill="#263238"/>
<path d="M133.039 184.068C132.947 184.112 132.639 183.604 132.791 182.932C132.943 182.26 133.379 181.896 133.447 181.976C133.515 182.056 133.279 182.456 133.179 183.008C133.079 183.56 133.147 184.028 133.039 184.068Z" fill="#263238"/>
<path d="M127.555 178.588C127.535 178.7 126.995 178.672 126.383 178.868C125.771 179.064 125.339 179.38 125.259 179.3C125.179 179.22 125.547 178.712 126.267 178.5C126.987 178.288 127.599 178.488 127.555 178.588Z" fill="#263238"/>
<g opacity="0.3">
<path d="M125.628 169.721L128.072 181.393C128.072 181.393 140.76 182.825 141.42 184.937L119.064 190.973L114.4 172.465L125.628 169.721Z" fill="black"/>
</g>
<path d="M113.692 134.528L127.912 175.804L115.632 180.344L93.0082 135.1L55.4082 129.22L78.0002 123.148L110.176 131.28C110.986 131.487 111.731 131.893 112.345 132.46C112.959 133.027 113.422 133.738 113.692 134.528Z" fill="#263238"/>
<path d="M125.235 165.136L133.355 174.052C133.355 174.052 145.143 168.8 146.799 170.296L130.079 186.66L116.859 173.284L125.235 165.136Z" fill="#9B0000"/>
<path d="M127.472 178.4C127.359 178.607 127.327 178.847 127.381 179.076C127.435 179.305 127.571 179.506 127.764 179.64C127.965 179.761 128.205 179.8 128.435 179.749C128.664 179.697 128.865 179.56 128.996 179.364C129.115 179.146 129.149 178.891 129.091 178.649C129.034 178.406 128.888 178.194 128.684 178.052C128.26 177.844 127.572 178.032 127.432 178.48" fill="#E0E0E0"/>
<path d="M130.399 187.024L129.119 185.728L145.303 170.092C145.303 170.092 146.363 169.692 146.795 170.296L130.399 187.024Z" fill="#E0E0E0"/>
<path d="M133.54 173.7C133.62 173.788 133.248 174.224 133.104 174.88C132.96 175.536 133.08 176.08 132.972 176.128C132.864 176.176 132.524 175.58 132.716 174.788C132.908 173.996 133.488 173.6 133.54 173.7Z" fill="#263238"/>
<path d="M135.999 172.713C136.095 172.773 135.875 173.257 135.935 173.873C135.995 174.489 136.275 174.937 136.191 175.013C136.107 175.089 135.599 174.677 135.539 173.909C135.479 173.141 135.927 172.637 135.999 172.713Z" fill="#263238"/>
<path d="M139.055 173.836C138.999 173.924 138.487 173.628 138.255 172.976C138.023 172.324 138.255 171.776 138.335 171.808C138.415 171.84 138.435 172.312 138.627 172.844C138.819 173.376 139.131 173.748 139.055 173.836Z" fill="#263238"/>
<path d="M131.464 171.876C131.504 171.984 131.02 172.236 130.588 172.72C130.156 173.204 129.94 173.7 129.828 173.672C129.716 173.644 129.78 173.012 130.296 172.452C130.812 171.892 131.444 171.772 131.464 171.876Z" fill="#263238"/>
<path d="M51.372 146.608L84.148 146.472L120.524 180.344L131.832 169.812C131.832 169.812 100.944 134.956 97.376 131.36C93.808 127.764 59.424 125.36 59.424 125.36L38.752 134.348L39.224 136.692C39.7837 139.498 41.3018 142.022 43.5181 143.831C45.7345 145.64 48.511 146.622 51.372 146.608Z" fill="#263238"/>
<path d="M83.3834 142.164C83.5683 142.817 83.6862 143.487 83.7354 144.164C83.8536 144.832 83.9018 145.51 83.8794 146.188C83.6962 145.535 83.5783 144.865 83.5274 144.188C83.4115 143.52 83.3632 142.842 83.3834 142.164Z" fill="#455A64"/>
<path d="M128.055 165.6C127.934 165.768 127.8 165.928 127.655 166.076C127.383 166.372 126.983 166.796 126.483 167.312C125.483 168.348 124.083 169.756 122.483 171.272C120.883 172.788 119.423 174.124 118.339 175.076C117.799 175.552 117.359 175.932 117.047 176.188C116.894 176.335 116.73 176.468 116.555 176.588C116.687 176.426 116.834 176.277 116.995 176.144C117.315 175.844 117.735 175.452 118.243 174.984C119.299 174.004 120.751 172.652 122.339 171.14C123.927 169.628 125.347 168.232 126.371 167.224L127.591 166.024C127.731 165.867 127.887 165.725 128.055 165.6Z" fill="#455A64"/>
<path d="M108.487 169.136C108.487 169.136 108.563 169.196 108.703 169.324L109.327 169.892L111.727 172.1L120.575 180.292H120.475L131.767 169.744V169.876C127.003 164.316 121.295 158.232 115.315 151.76C112.671 148.904 110.115 146.108 107.627 143.388C105.139 140.668 102.827 138.02 100.663 135.412C99.668 134.112 98.5287 132.93 97.2666 131.888C96.6534 131.412 95.9811 131.019 95.2666 130.716C94.5654 130.429 93.8398 130.205 93.0986 130.048C91.6386 129.736 90.1986 129.552 88.8226 129.328L84.8666 128.712L72.9306 126.844L69.6866 126.324L68.8466 126.184C68.6546 126.152 68.5586 126.128 68.5586 126.128C68.5586 126.128 68.6586 126.128 68.8466 126.164L69.6946 126.284L72.9426 126.764L84.8906 128.568L88.8506 129.168C90.2226 129.388 91.6506 129.568 93.1346 129.88C93.8867 130.037 94.623 130.262 95.3346 130.552C96.0717 130.858 96.7645 131.262 97.3946 131.752C98.6706 132.799 99.8221 133.99 100.827 135.3C102.975 137.896 105.331 140.54 107.795 143.26C110.259 145.98 112.799 148.76 115.459 151.62C121.459 158.092 127.143 164.18 131.903 169.752L131.963 169.82L131.895 169.884C127.639 173.836 123.791 177.408 120.575 180.4L120.523 180.444L120.475 180.4L111.675 172.156L109.303 169.924C109.039 169.668 108.835 169.476 108.691 169.34C108.547 169.204 108.487 169.136 108.487 169.136Z" fill="#455A64"/>
<path d="M79.7202 120.4L69.8322 123.732L51.6282 116.328L41.9082 125.364L67.8762 130.024C68.7535 130.168 69.6524 130.104 70.5002 129.836L78.1562 127.436C78.1562 127.436 80.6562 130.264 81.1802 130.304C81.7042 130.344 82.7562 130.276 82.2522 129.34C81.7113 128.451 81.1141 127.597 80.4642 126.784C80.4642 126.784 83.9802 129.684 84.3802 129.296C84.7802 128.908 84.6202 128.008 83.9802 127.276C83.3402 126.544 81.2882 124.172 81.2882 124.172C81.2882 124.172 85.6202 127.772 86.0322 127.216C86.4442 126.66 86.6482 125.812 84.9122 124.148C83.7722 123.056 82.0202 121.496 81.0962 120.684C80.9116 120.521 80.6874 120.409 80.446 120.359C80.2046 120.309 79.9544 120.323 79.7202 120.4Z" fill="#FFBE9D"/>
<path d="M69.5636 123.824C69.2917 124.246 68.9752 124.638 68.6196 124.992C68.319 125.39 67.9771 125.755 67.5996 126.08C67.8191 125.625 68.1155 125.211 68.4756 124.856C68.7787 124.454 69.1463 124.106 69.5636 123.824Z" fill="#EB996E"/>
<path d="M84.1469 127.464C83.8276 127.225 83.547 126.937 83.3149 126.612C82.8349 126.052 82.2029 125.256 81.4909 124.396C80.7789 123.536 80.1509 122.636 79.3589 122.796C79.0764 122.808 78.8013 122.891 78.5589 123.036C78.4745 123.1 78.3864 123.159 78.2949 123.212C78.2949 123.212 78.3469 123.1 78.5149 122.968C78.7563 122.788 79.0428 122.677 79.3429 122.648C79.5524 122.629 79.7636 122.646 79.9669 122.7C80.0863 122.731 80.1988 122.784 80.2989 122.856C80.3869 122.932 80.4909 123.008 80.5749 123.096C80.9549 123.467 81.3128 123.86 81.6469 124.272C82.3629 125.136 82.9789 125.944 83.4229 126.528L83.9589 127.2C84.0829 127.368 84.1589 127.452 84.1469 127.464Z" fill="#EB996E"/>
<path d="M77.1309 124.928C77.1309 124.928 77.1909 124.828 77.3629 124.72C77.6049 124.577 77.882 124.505 78.1629 124.512C78.3645 124.512 78.5643 124.552 78.7509 124.628C78.96 124.732 79.1401 124.886 79.2749 125.076C79.4229 125.264 79.5469 125.476 79.6749 125.68C79.8029 125.884 79.9789 126.08 80.1349 126.296C81.4229 127.988 82.3789 129.436 82.2949 129.496C82.2949 129.496 82.2189 129.412 82.1029 129.256L81.6109 128.6L79.9989 126.42C79.8429 126.204 79.6829 126.02 79.5349 125.792C79.3869 125.564 79.2749 125.372 79.1349 125.192C79.0203 125.026 78.8682 124.889 78.6909 124.792C78.5259 124.721 78.35 124.679 78.1709 124.668C77.8059 124.648 77.4434 124.739 77.1309 124.928Z" fill="#EB996E"/>
<path d="M85.1747 124.4C84.8878 124.215 84.6198 124.002 84.3747 123.764C83.8987 123.364 83.2467 122.772 82.5387 122.124L81.5427 121.204C81.2989 120.938 81.0106 120.716 80.6907 120.548C80.3873 120.412 80.0521 120.364 79.7227 120.408C79.7227 120.408 79.8067 120.34 79.9867 120.312C80.2444 120.279 80.5063 120.313 80.7467 120.412C80.9127 120.479 81.0698 120.567 81.2147 120.672C81.3707 120.788 81.5147 120.92 81.6707 121.072L82.6787 121.98C83.3867 122.632 84.0227 123.228 84.4747 123.668C84.7341 123.886 84.9689 124.131 85.1747 124.4Z" fill="#EB996E"/>
<path d="M40.9882 125.6C40.9882 125.6 37.2922 121.448 37.5242 115.912C37.7562 110.376 39.3442 94.3522 40.0522 89.9562C40.7602 85.5602 44.0522 79.5562 49.3322 78.2522C53.2002 77.3122 54.0002 88.9642 54.0002 88.9642L51.0922 114.688L56.8922 118.056L51.4802 127.224L40.9882 125.6Z" fill="#9B0000"/>
<path d="M53.4788 87.6795C53.4388 87.6795 53.3908 87.1195 53.1468 86.2435C53.0036 85.7312 52.8204 85.231 52.5988 84.7475C52.3183 84.161 51.9892 83.599 51.6148 83.0675C51.2288 82.5455 50.7978 82.0583 50.3268 81.6115C49.9382 81.2477 49.5208 80.916 49.0788 80.6195C48.3228 80.1155 47.7988 79.8915 47.8148 79.8555C47.9452 79.8833 48.0716 79.9277 48.1908 79.9875C48.3382 80.0451 48.4812 80.1133 48.6188 80.1915C48.8042 80.2828 48.9845 80.3843 49.1588 80.4955C49.6196 80.7793 50.0534 81.1046 50.4548 81.4675C50.9452 81.9158 51.39 82.4116 51.7828 82.9475C52.1673 83.4873 52.4982 84.0634 52.7708 84.6675C52.991 85.1624 53.1651 85.6766 53.2908 86.2035C53.3421 86.4051 53.3821 86.6094 53.4108 86.8155C53.4413 86.9686 53.4614 87.1236 53.4708 87.2795C53.4937 87.4116 53.4964 87.5465 53.4788 87.6795Z" fill="#263238"/>
<path d="M51.0597 114.708C50.767 114.906 50.461 115.084 50.1437 115.24C49.4052 115.659 48.6919 116.121 48.0077 116.624C47.3296 117.135 46.6806 117.684 46.0637 118.268C45.8144 118.524 45.547 118.762 45.2637 118.98C45.4566 118.68 45.6849 118.405 45.9437 118.16C46.5369 117.54 47.1805 116.97 47.8677 116.456C48.5564 115.943 49.2901 115.493 50.0597 115.112C50.3736 114.934 50.7099 114.798 51.0597 114.708Z" fill="#263238"/>
<path d="M89.4597 108.844L83.0957 131.948H112.8L120.04 109.948C120.105 109.748 120.122 109.536 120.09 109.328C120.058 109.121 119.978 108.923 119.856 108.753C119.734 108.582 119.573 108.442 119.387 108.344C119.2 108.247 118.994 108.195 118.784 108.192L90.7597 107.872C90.4662 107.868 90.1796 107.962 89.9445 108.137C89.7095 108.313 89.539 108.562 89.4597 108.844Z" fill="#E0E0E0"/>
<path d="M91.3838 107.868C91.4398 107.868 89.9998 113.284 88.1638 119.936C86.3278 126.588 84.7998 131.964 84.7438 131.936C84.6878 131.908 86.1318 126.516 87.9438 119.868C89.7558 113.22 91.3278 107.852 91.3838 107.868Z" fill="#263238"/>
<path d="M102.863 119.545C102.788 119.774 102.781 120.02 102.842 120.253C102.903 120.487 103.03 120.698 103.207 120.861C103.385 121.024 103.606 121.133 103.844 121.173C104.082 121.214 104.326 121.186 104.548 121.091C104.77 120.997 104.96 120.841 105.096 120.641C105.231 120.441 105.307 120.207 105.312 119.966C105.318 119.725 105.254 119.487 105.129 119.281C105.003 119.075 104.82 118.91 104.603 118.805C104.274 118.675 103.907 118.68 103.582 118.818C103.256 118.957 102.998 119.218 102.863 119.545Z" fill="white"/>
<path d="M83.0948 131.948H63.2188C63.2188 131.497 63.3979 131.065 63.7167 130.746C64.0355 130.427 64.4679 130.248 64.9188 130.248H83.8347L83.0948 131.948Z" fill="#E0E0E0"/>
<path d="M37.5245 115.928C37.5297 115.991 37.5297 116.053 37.5245 116.116C37.5245 116.248 37.5245 116.432 37.5245 116.664C37.5245 116.896 37.5525 117.196 37.5845 117.548C37.6165 117.9 37.6845 118.292 37.7565 118.748C37.9753 119.826 38.3106 120.878 38.7565 121.884C39.3377 123.211 40.101 124.451 41.0245 125.568L40.9765 125.544L51.4485 127.144L51.3485 127.192L55.6005 120.024L56.8005 118.004L56.8405 118.148L51.0405 114.776L50.9885 114.744V114.68C51.5205 108.792 51.9765 103.728 52.3045 100.124C52.4725 98.336 52.6085 96.924 52.7045 95.92C52.7525 95.44 52.7925 95.068 52.8205 94.8C52.8205 94.68 52.8445 94.584 52.8525 94.512C52.8503 94.4801 52.8503 94.448 52.8525 94.416C52.8578 94.4478 52.8578 94.4802 52.8525 94.512C52.8525 94.588 52.8525 94.684 52.8525 94.804C52.8325 95.068 52.8045 95.444 52.7725 95.928C52.6925 96.92 52.5765 98.328 52.4325 100.136C52.1245 103.736 51.6925 108.808 51.1925 114.696L51.1405 114.604L56.9445 117.968L57.0325 118.02L56.9805 118.108L55.7805 120.132L51.5565 127.276L51.5205 127.336H51.4565L40.9885 125.704H40.9565V125.684C39.3207 123.684 38.2086 121.309 37.7205 118.772C37.6485 118.375 37.5978 117.974 37.5685 117.572C37.5396 117.277 37.5262 116.981 37.5285 116.684C37.5285 116.452 37.5285 116.284 37.5285 116.136C37.5208 116.067 37.5194 115.997 37.5245 115.928Z" fill="#263238"/>
<path d="M22.6445 123.148C22.6445 123.148 57.7765 127.596 59.0445 128.828C60.1485 129.908 61.5525 158.428 61.8645 158.308L29.0645 157.064L22.6445 123.148Z" fill="#455A64"/>
<path d="M51.6283 164.932C51.5683 164.932 50.8283 156.704 49.9923 146.532C49.1563 136.36 48.5083 128.132 48.5683 128.132C48.6283 128.132 49.3683 136.356 50.2003 146.532C51.0323 156.708 51.6843 164.928 51.6283 164.932Z" fill="#263238"/>
<path d="M15.7324 86.2803C15.7523 86.3251 15.7671 86.3721 15.7764 86.4203L15.8724 86.8203L16.2284 88.3803C16.5364 89.7523 16.9684 91.7123 17.5084 94.1323C18.5684 99.0043 20.0284 105.732 21.6444 113.128C22.0444 114.98 22.4444 116.792 22.8124 118.544C23.0004 119.42 23.1884 120.276 23.3684 121.12C23.4124 121.328 23.4564 121.54 23.5044 121.748C23.5379 121.951 23.5901 122.151 23.6604 122.344C23.8145 122.712 24.0822 123.02 24.4244 123.224C24.5925 123.322 24.7746 123.394 24.9644 123.436C25.1484 123.48 25.3644 123.496 25.5524 123.524L26.7284 123.68L28.9764 123.972L33.0124 124.508L38.8484 125.308L40.4484 125.532L40.8484 125.592C40.8962 125.597 40.9432 125.608 40.9884 125.624H40.8444L40.4444 125.58L38.8444 125.396L32.9964 124.672L28.9604 124.164L26.7084 123.88L25.5324 123.732C25.3324 123.704 25.1324 123.688 24.9284 123.644C24.719 123.596 24.5181 123.517 24.3324 123.408C23.952 123.186 23.6542 122.847 23.4844 122.44C23.4091 122.235 23.3515 122.023 23.3124 121.808C23.2684 121.6 23.2244 121.408 23.1764 121.18C22.9964 120.34 22.8084 119.48 22.6164 118.608C22.2404 116.856 21.8484 115.044 21.4444 113.192C19.8444 105.772 18.4124 99.0603 17.3684 94.1843C16.8564 91.7603 16.4444 89.7843 16.1684 88.4203C16.0284 87.7483 15.9244 87.2203 15.8484 86.8483C15.8164 86.6763 15.7884 86.5403 15.7684 86.4483C15.7484 86.3563 15.7324 86.2843 15.7324 86.2803Z" fill="#263238"/>
<path d="M59.5565 131.096C59.6165 131.096 60.2845 138.696 61.0565 148.048C61.8285 157.4 62.4045 165.012 62.3445 165.016C62.2845 165.02 61.6165 157.416 60.8485 148.064C60.0805 138.712 59.5005 131.1 59.5565 131.096Z" fill="#263238"/>
<path d="M181.632 22.0166H100.16V93.3566H181.632V22.0166Z" fill="white"/>
<path d="M181.627 54.748H100.355V93.356H181.627V54.748Z" fill="#EBEBEB"/>
<path d="M166.525 45.7681C166.525 45.8241 155.373 45.8721 141.625 45.8721C127.877 45.8721 116.721 45.8241 116.721 45.7681C116.721 45.7121 127.869 45.6641 141.625 45.6641C155.381 45.6641 166.525 45.7081 166.525 45.7681Z" fill="#263238"/>
<path d="M181.161 29.7368C181.161 29.7928 163.117 29.8408 140.861 29.8408C118.605 29.8408 100.557 29.7928 100.557 29.7368C100.557 29.6808 118.597 29.6328 140.861 29.6328C163.125 29.6328 181.161 29.6768 181.161 29.7368Z" fill="#263238"/>
<path d="M104.568 26.9642C105.251 26.9642 105.804 26.4108 105.804 25.7282C105.804 25.0456 105.251 24.4922 104.568 24.4922C103.885 24.4922 103.332 25.0456 103.332 25.7282C103.332 26.4108 103.885 26.9642 104.568 26.9642Z" fill="#263238"/>
<path d="M108.705 26.9642C109.387 26.9642 109.941 26.4108 109.941 25.7282C109.941 25.0456 109.387 24.4922 108.705 24.4922C108.022 24.4922 107.469 25.0456 107.469 25.7282C107.469 26.4108 108.022 26.9642 108.705 26.9642Z" fill="#263238"/>
<path d="M114.076 25.7282C114.076 25.9726 114.003 26.2116 113.867 26.4149C113.731 26.6181 113.538 26.7766 113.313 26.8701C113.087 26.9637 112.838 26.9881 112.598 26.9404C112.359 26.8927 112.138 26.775 111.966 26.6022C111.793 26.4293 111.675 26.2091 111.627 25.9693C111.58 25.7296 111.604 25.481 111.698 25.2552C111.791 25.0293 111.95 24.8363 112.153 24.7005C112.356 24.5647 112.595 24.4922 112.84 24.4922C113.002 24.4922 113.163 24.5242 113.313 24.5863C113.462 24.6484 113.599 24.7394 113.714 24.8542C113.828 24.969 113.919 25.1052 113.981 25.2552C114.044 25.4051 114.076 25.5659 114.076 25.7282Z" fill="#263238"/>
<path d="M115.635 47.8464C116.905 46.5764 116.905 44.5173 115.635 43.2474C114.365 41.9774 112.306 41.9774 111.036 43.2474C109.766 44.5173 109.766 46.5764 111.036 47.8464C112.306 49.1164 114.365 49.1164 115.635 47.8464Z" fill="#9B0000"/>
<path d="M113.883 43.916V47.064H113.155V44.5H112.527V43.916H113.883Z" fill="white"/>
<path d="M173.572 45.6564C173.535 45.2699 173.472 44.8864 173.384 44.5084C173.112 43.487 172.505 42.5867 171.66 41.9524C171.039 41.4852 170.311 41.1808 169.542 41.067C168.774 40.9531 167.989 41.0333 167.26 41.3004C166.839 41.4504 166.444 41.6635 166.088 41.9324C165.71 42.2068 165.379 42.5404 165.108 42.9204C164.523 43.7127 164.207 44.6716 164.207 45.6564C164.207 46.6411 164.523 47.6 165.108 48.3924C165.379 48.7723 165.71 49.1059 166.088 49.3804C166.444 49.6493 166.839 49.8624 167.26 50.0124C167.87 50.2346 168.521 50.3271 169.17 50.2841C169.818 50.241 170.451 50.0633 171.027 49.7622C171.603 49.4611 172.11 49.0434 172.516 48.5355C172.922 48.0276 173.217 47.4408 173.384 46.8124C173.472 46.4357 173.535 46.0535 173.572 45.6684C173.58 45.7695 173.58 45.8712 173.572 45.9724C173.573 46.0943 173.563 46.216 173.544 46.3364C173.527 46.5037 173.498 46.6695 173.456 46.8324C173.241 47.7214 172.775 48.5302 172.114 49.1626C171.454 49.7951 170.625 50.2247 169.728 50.4004C168.881 50.5611 168.007 50.492 167.196 50.2004C166.756 50.0457 166.342 49.8259 165.968 49.5484C165.573 49.2628 165.228 48.9157 164.944 48.5204C164.331 47.6935 164 46.6916 164 45.6624C164 44.6332 164.331 43.6312 164.944 42.8044C165.229 42.4111 165.574 42.0655 165.968 41.7804C166.342 41.5028 166.756 41.2831 167.196 41.1284C168.007 40.8367 168.881 40.7677 169.728 40.9284C170.627 41.103 171.458 41.5325 172.12 42.1658C172.782 42.7991 173.249 43.6095 173.464 44.5004C173.505 44.6619 173.535 44.8264 173.552 44.9924C173.571 45.114 173.581 45.2371 173.58 45.3604C173.585 45.4591 173.583 45.5581 173.572 45.6564Z" fill="#9B0000"/>
<path d="M166 45H116V46H166V45Z" fill="#9B0000"/>
<path d="M144.559 46.067C144.847 44.2942 143.644 42.6234 141.871 42.335C140.099 42.0466 138.428 43.2499 138.139 45.0226C137.851 46.7953 139.054 48.4662 140.827 48.7546C142.6 49.043 144.271 47.8397 144.559 46.067Z" fill="#9B0000"/>
<path d="M172.047 46.067C172.336 44.2942 171.132 42.6234 169.36 42.335C167.587 42.0466 165.916 43.2499 165.628 45.0226C165.339 46.7953 166.543 48.4662 168.315 48.7546C170.088 49.043 171.759 47.8397 172.047 46.067Z" fill="#9B0000"/>
<path d="M142.581 46.4717V47.0637H140.201V46.5917L141.401 45.4437C141.681 45.1797 141.729 45.0157 141.729 44.8637C141.729 44.6157 141.561 44.4637 141.225 44.4637C141.099 44.4593 140.973 44.4858 140.86 44.5409C140.746 44.596 140.648 44.6779 140.573 44.7797L140.045 44.4397C140.188 44.2461 140.377 44.0911 140.595 43.9885C140.813 43.8859 141.053 43.8389 141.293 43.8517C141.997 43.8517 142.465 44.2117 142.465 44.7837C142.46 44.9792 142.41 45.171 142.318 45.3438C142.226 45.5166 142.096 45.6658 141.937 45.7797L141.213 46.4637L142.581 46.4717Z" fill="white"/>
<path d="M169.504 46.192C169.504 46.724 169.104 47.212 168.2 47.212C167.775 47.2184 167.358 47.1002 167 46.872L167.284 46.316C167.547 46.5028 167.862 46.6021 168.184 46.6C168.548 46.6 168.772 46.452 168.772 46.2C168.772 45.948 168.6 45.8 168.184 45.8H167.852V45.316L168.5 44.584H167.16V44H169.364V44.492L168.652 45.292C168.882 45.3043 169.099 45.4045 169.258 45.572C169.416 45.7395 169.504 45.9614 169.504 46.192Z" fill="white"/>
<path d="M161.016 35.3122C161.016 35.3682 153.104 35.4162 143.348 35.4162C133.592 35.4162 125.676 35.3682 125.676 35.3122C125.676 35.2562 133.6 35.2002 143.348 35.2002C153.096 35.2002 161.016 35.2522 161.016 35.3122Z" fill="#263238"/>
<path d="M139.18 55.2164L141.624 51.9004L144.064 55.2164H139.18Z" fill="#EBEBEB"/>
<path d="M181.628 93.3565C181.628 92.6165 181.592 64.9565 181.54 22.0165L181.628 22.1045H100.164L100.268 22.0005C100.268 47.9205 100.268 72.3325 100.268 93.3405L100.176 93.2485L181.644 93.3405L100.176 93.4325H100.084V93.3405C100.084 72.3325 100.084 47.9205 100.084 22.0005V21.8965H100.192H181.656H181.744V22.0005C181.664 64.9405 181.628 92.6165 181.628 93.3565Z" fill="#263238"/>
<path d="M120.463 63.0885C120.463 63.1445 117.975 63.1925 114.911 63.1925C111.847 63.1925 109.359 63.1445 109.359 63.0885C109.359 63.0325 111.843 62.9805 114.911 62.9805C117.979 62.9805 120.463 63.0285 120.463 63.0885Z" fill="#9B0000"/>
<path d="M131.863 72.0484H110.879C110.125 72.0484 109.402 71.7487 108.868 71.2154C108.335 70.682 108.035 69.9586 108.035 69.2044C108.035 68.8309 108.109 68.4611 108.252 68.116C108.395 67.771 108.604 67.4574 108.868 67.1933C109.132 66.9293 109.446 66.7198 109.791 66.5768C110.136 66.4339 110.506 66.3604 110.879 66.3604H131.863C132.237 66.3598 132.607 66.433 132.953 66.5757C133.298 66.7184 133.612 66.9278 133.877 67.1919C134.141 67.4561 134.351 67.7698 134.494 68.1151C134.637 68.4604 134.711 68.8305 134.711 69.2044C134.711 69.5782 134.637 69.9483 134.494 70.2936C134.351 70.6389 134.141 70.9526 133.877 71.2168C133.612 71.4809 133.298 71.6903 132.953 71.833C132.607 71.9757 132.237 72.0489 131.863 72.0484Z" fill="#FAFAFA"/>
<path d="M159.295 63.0885C159.295 63.1445 156.939 63.1925 154.035 63.1925C151.131 63.1925 148.775 63.1445 148.775 63.0885C148.775 63.0325 151.127 62.9805 154.035 62.9805C156.943 62.9805 159.295 63.0285 159.295 63.0885Z" fill="#9B0000"/>
<path d="M120.172 78.5962C120.172 78.6522 117.816 78.7002 114.912 78.7002C112.008 78.7002 109.652 78.6522 109.652 78.5962C109.652 78.5402 112.004 78.4922 114.912 78.4922C117.82 78.4922 120.172 78.5362 120.172 78.5962Z" fill="#9B0000"/>
<path d="M169.977 72.0484H148.989C148.234 72.0484 147.511 71.7487 146.978 71.2154C146.444 70.682 146.145 69.9586 146.145 69.2044C146.145 68.8309 146.218 68.4611 146.361 68.116C146.504 67.771 146.713 67.4574 146.978 67.1933C147.242 66.9293 147.555 66.7198 147.9 66.5768C148.245 66.4339 148.615 66.3604 148.989 66.3604H169.977C170.35 66.3604 170.72 66.4339 171.065 66.5768C171.41 66.7198 171.723 66.9293 171.988 67.1933C172.252 67.4574 172.461 67.771 172.604 68.116C172.747 68.4611 172.821 68.8309 172.821 69.2044C172.821 69.9586 172.521 70.682 171.988 71.2154C171.454 71.7487 170.731 72.0484 169.977 72.0484Z" fill="#FAFAFA"/>
<path d="M170.751 87.7925H111.035C110.662 87.793 110.291 87.7198 109.946 87.5772C109.6 87.4345 109.286 87.2251 109.022 86.9609C108.757 86.6968 108.548 86.3831 108.404 86.0378C108.261 85.6925 108.187 85.3223 108.188 84.9485C108.187 84.5747 108.261 84.2045 108.404 83.8592C108.548 83.5139 108.757 83.2002 109.022 82.9361C109.286 82.6719 109.6 82.4625 109.946 82.3198C110.291 82.1771 110.662 82.104 111.035 82.1045H170.751C171.125 82.104 171.496 82.1771 171.841 82.3198C172.187 82.4625 172.501 82.6719 172.765 82.9361C173.03 83.2002 173.239 83.5139 173.383 83.8592C173.526 84.2045 173.599 84.5747 173.599 84.9485C173.599 85.3223 173.526 85.6925 173.383 86.0378C173.239 86.3831 173.03 86.6968 172.765 86.9609C172.501 87.2251 172.187 87.4345 171.841 87.5772C171.496 87.7198 171.125 87.793 170.751 87.7925Z" fill="#FAFAFA"/>
<path d="M185.34 27.0144C187.649 24.7056 187.649 20.9624 185.34 18.6536C183.031 16.3448 179.288 16.3448 176.979 18.6536C174.67 20.9623 174.67 24.7056 176.979 27.0144C179.288 29.3232 183.031 29.3232 185.34 27.0144Z" fill="#9B0000"/>
<path d="M183.595 21.1898L182.758 20.3525L179.002 24.1087L179.839 24.9459L183.595 21.1898Z" fill="white"/>
<path d="M179.841 20.3464L179.004 21.1836L182.76 24.9397L183.597 24.1025L179.841 20.3464Z" fill="white"/>
</svg>
