<svg width="27" height="27" viewBox="0 0 27 27" fill="none" xmlns="http://www.w3.org/2000/svg">
<path d="M27 25.4118V6.88235C27 6.46113 26.8327 6.05715 26.5348 5.7593C26.237 5.46145 25.833 5.29412 25.4118 5.29412C24.9905 5.29412 24.5866 5.46145 24.2887 5.7593C23.9909 6.05715 23.8235 6.46113 23.8235 6.88235V23.8235H6.88235C6.46113 23.8235 6.05715 23.9909 5.7593 24.2887C5.46145 24.5866 5.29412 24.9905 5.29412 25.4118C5.29412 25.833 5.46145 26.237 5.7593 26.5348C6.05715 26.8327 6.46113 27 6.88235 27H25.4118C25.833 27 26.237 26.8327 26.5348 26.5348C26.8327 26.237 27 25.833 27 25.4118ZM21.7059 20.1176V1.58823C21.7059 1.16701 21.5386 0.763035 21.2407 0.465183C20.9428 0.167332 20.5389 -1.90735e-06 20.1176 -1.90735e-06H1.58824C1.16701 -1.90735e-06 0.763035 0.167332 0.465183 0.465183C0.167332 0.763035 0 1.16701 0 1.58823V20.1176C0 20.5389 0.167332 20.9428 0.465183 21.2407C0.763035 21.5386 1.16701 21.7059 1.58824 21.7059H20.1176C20.5389 21.7059 20.9428 21.5386 21.2407 21.2407C21.5386 20.9428 21.7059 20.5389 21.7059 20.1176ZM18.5294 18.5294H3.17647V3.17647H18.5294V18.5294Z" fill="currentColor"/>
</svg>
