<svg width="32" height="33" viewBox="0 0 32 33" fill="none" xmlns="http://www.w3.org/2000/svg">
<path d="M11.7965 4.37505C8.52044 5.50194 5.68706 7.92907 4.09329 10.963C3.56203 12.0032 3.11931 13.1301 2.94223 14.3436C2.32243 17.2042 2.76514 20.3248 4.09329 22.9253C4.97872 24.659 6.21832 26.1326 7.81209 27.3462C9.22878 28.4731 10.9111 29.3399 12.7705 29.7733C15.0726 30.3801 17.4633 30.3801 19.6769 29.86C21.7133 29.4266 23.6613 28.473 25.2551 26.9994C26.9374 25.5258 28.0884 23.6188 28.7082 21.4517C29.4166 19.1979 29.5051 16.7708 29.0624 14.4303C24.8123 14.4303 20.5623 14.4303 16.3122 14.4303C16.3122 16.164 16.3122 17.8977 16.3122 19.6313C18.7914 19.6313 21.2706 19.6313 23.6613 19.6313C23.3957 21.2783 22.3331 22.8386 20.9165 23.7055C20.031 24.3122 18.9685 24.659 17.906 24.8323C16.8435 25.0057 15.6924 25.0057 14.6299 24.8323C13.5674 24.659 12.5049 24.1389 11.6194 23.5321C10.2028 22.5786 9.05169 21.105 8.52044 19.458C7.90064 17.811 7.90064 15.9906 8.52044 14.257C8.96315 13.1301 9.58295 12.0032 10.4684 11.1364C11.5309 10.0095 12.9476 9.22932 14.5414 8.96927C15.8695 8.70922 17.1976 8.70922 18.5258 9.14264C19.5883 9.48937 20.6508 10.0962 21.4477 10.7896C22.2446 10.0095 23.13 9.14264 23.9269 8.36249C24.3696 7.92907 24.8123 7.49566 25.2551 7.06224C24.0155 5.93535 22.5102 4.98183 20.9165 4.37505C17.9945 3.42153 14.7184 3.42153 11.7965 4.37505Z" fill="white"/>
<path d="M11.7965 4.37507C14.7184 3.42155 17.9945 3.42155 20.9164 4.46175C22.5102 5.06853 24.0154 5.93537 25.255 7.14894C24.8123 7.58235 24.3696 8.01577 23.9269 8.44919C23.13 9.22934 22.2446 10.0962 21.4477 10.8763C20.6508 10.0962 19.5883 9.48939 18.5258 9.22934C17.2862 8.88261 15.8695 8.79592 14.5413 9.05597C13.0361 9.40271 11.6194 10.1829 10.4684 11.2231C9.58292 12.0899 8.87458 13.2168 8.52041 14.3437C7.01518 13.2168 5.59849 12.0899 4.09326 10.963C5.68703 7.92909 8.52041 5.50195 11.7965 4.37507Z" fill="#EA4335"/>
<path d="M2.94223 14.3435C3.20786 13.2167 3.56203 12.0898 4.09329 10.9629C5.59852 12.0898 7.01521 13.2167 8.52044 14.3435C7.90064 15.9905 7.90064 17.8109 8.52044 19.5446C7.01521 20.6714 5.59852 21.7983 4.09329 22.9252C2.76514 20.238 2.32243 17.2041 2.94223 14.3435Z" fill="#FBBC05"/>
<path d="M16.2236 14.4302C20.4737 14.4302 24.7238 14.4302 28.9738 14.4302C29.4165 16.7706 29.328 19.1978 28.6197 21.4515C27.9999 23.5319 26.8488 25.439 25.1665 26.9993C23.7498 25.8724 22.3331 24.8322 20.8279 23.7053C22.2446 22.7518 23.2185 21.2782 23.5727 19.6312C21.0935 19.6312 18.6143 19.6312 16.2236 19.6312C16.2236 17.8975 16.2236 16.1638 16.2236 14.4302Z" fill="#4285F4"/>
<path d="M4.09326 22.9253C5.59849 21.7984 7.01518 20.6716 8.52041 19.5447C9.05167 21.1917 10.2027 22.6653 11.6194 23.6188C12.5048 24.2256 13.5674 24.659 14.6299 24.9191C15.6924 25.0924 16.7549 25.0924 17.906 24.9191C18.9685 24.7457 20.031 24.3123 20.9164 23.7922C22.3331 24.9191 23.7498 25.9593 25.255 27.0861C23.6613 28.4731 21.8019 29.4266 19.6768 29.9467C17.3747 30.4668 14.984 30.4668 12.7705 29.86C10.9996 29.4266 9.3173 28.5598 7.81207 27.4329C6.30684 26.1326 4.97869 24.5723 4.09326 22.9253Z" fill="#34A853"/>
</svg>
