<svg width="24" height="24" viewBox="0 0 24 24" fill="none" xmlns="http://www.w3.org/2000/svg">
<g clip-path="url(#clip0_861_57370)">
<path d="M17.3631 11.045C18.7671 9.65198 21.0431 9.65198 22.4471 11.045C23.8511 12.439 23.8511 14.699 22.4471 16.092L17.0001 21.5L11.5531 16.092C10.1491 14.699 10.1491 12.439 11.5531 11.045C12.9571 9.65198 15.2331 9.65198 16.6371 11.045L17.0001 11.405L17.3631 11.045ZM19.2431 4.75698C20.1831 5.69998 20.7461 6.87498 20.9321 8.09498C19.5991 7.84698 18.1931 8.08498 17.0001 8.80798C14.8501 7.50498 12.0061 7.77798 10.1441 9.62598C8.01314 11.741 7.95414 15.141 9.96614 17.327L10.1441 17.512L12.5651 19.916L11.0001 21.485L2.52015 12.993C0.417145 10.637 0.496145 7.01898 2.75715 4.75698C5.02215 2.49298 8.64515 2.41698 11.0011 4.52898C13.3501 2.41998 16.9801 2.48998 19.2431 4.75698Z" fill="#F53642"/>
</g>
<defs>
<clipPath id="clip0_861_57370">
<rect width="24" height="24" fill="white"/>
</clipPath>
</defs>
</svg>
