<svg width="19" height="18" viewBox="0 0 19 18" fill="none" xmlns="http://www.w3.org/2000/svg">
<path d="M7.12513 6.50033C7.32105 5.94338 7.70776 5.47375 8.21676 5.1746C8.72576 4.87546 9.32421 4.76611 9.90611 4.86592C10.488 4.96573 11.0158 5.26826 11.396 5.71993C11.7762 6.1716 11.9843 6.74326 11.9835 7.33366C11.9835 9.00033 9.48346 9.83366 9.48346 9.83366M9.55013 13.167H9.55846M17.8835 9.00033C17.8835 13.6027 14.1525 17.3337 9.55013 17.3337C4.94776 17.3337 1.2168 13.6027 1.2168 9.00033C1.2168 4.39795 4.94776 0.666992 9.55013 0.666992C14.1525 0.666992 17.8835 4.39795 17.8835 9.00033Z" stroke="#98A2B3" stroke-width="1.03762" stroke-linecap="round" stroke-linejoin="round"/>
</svg>
