<svg width="134" height="133" viewBox="0 0 134 133" fill="none" xmlns="http://www.w3.org/2000/svg">
<path d="M47.2489 31.92C47.2489 31.92 56.4259 36.841 58.1549 48.013L57.4899 48.146C55.8939 37.24 46.9829 32.452 46.9829 32.452L47.2489 31.92Z" fill="black"/>
<path d="M58.8201 27.531C58.8201 27.531 60.0171 29.792 61.2141 33.383L60.5491 33.516C59.4851 30.058 58.2881 27.797 58.2881 27.797L58.8201 27.531ZM62.9431 40.565C62.9431 40.698 62.9431 40.964 63.0761 41.23C63.4751 43.757 63.6081 44.555 63.2091 47.614L62.5441 47.481C62.9431 44.555 62.8101 43.757 62.4111 41.23C62.4111 41.097 62.4111 40.964 62.2781 40.698L62.9431 40.565Z" fill="black"/>
<path d="M46.9829 17.955C46.5839 16.226 46.4509 14.763 46.5839 13.566C46.8499 12.502 47.2489 11.571 48.0469 10.906C48.7119 10.374 49.7759 9.97498 50.9729 9.97498C52.1699 10.108 53.6329 10.374 55.4949 11.172C55.6279 11.172 55.6279 11.305 55.7609 11.305C55.8939 11.305 55.8939 11.438 55.8939 11.438C55.8939 11.438 55.8939 11.305 56.0269 11.305C56.1599 11.305 56.2929 11.305 56.4259 11.305C57.0909 11.039 58.1549 10.773 59.3519 10.773C60.4159 10.773 61.6129 10.906 62.2779 11.704C63.2089 12.502 64.0069 13.699 64.2729 15.162C64.4059 16.492 63.8739 18.221 61.8789 19.95C61.7459 20.083 61.6129 20.216 61.4799 20.216C61.6129 20.349 61.6129 20.482 61.6129 20.615C61.8789 21.28 62.1449 22.477 62.0119 23.674C61.8789 25.004 61.3469 26.201 59.8839 27.132C58.0219 28.063 56.5589 28.196 55.2289 27.797C53.8989 27.398 52.8349 26.467 52.0369 25.403H51.9039C49.5099 27.265 47.2489 27.664 45.7859 26.999C45.1209 26.733 44.5889 26.334 44.1899 25.802C43.7909 25.27 43.5249 24.472 43.5249 23.807C43.5249 22.078 44.4559 20.083 46.7169 18.753C46.8499 18.62 46.8499 18.62 46.9829 18.487C47.1159 18.487 47.1159 18.487 47.1159 18.487C47.1159 18.487 47.1159 18.487 47.1159 18.354C47.1159 18.221 46.9829 18.221 46.9829 17.955ZM47.2489 13.699C47.1159 14.896 47.1159 16.226 47.5149 17.822C47.6479 17.955 47.6479 18.088 47.6479 18.221C47.7809 18.487 47.7809 18.487 47.7809 18.753C47.6479 18.886 47.5149 18.886 47.2489 19.152C47.2489 19.152 47.1159 19.152 46.9829 19.285C44.9879 20.482 44.0569 22.344 44.1899 23.807C44.1899 24.339 44.3229 25.004 44.7219 25.403C44.9879 25.935 45.5199 26.201 46.0519 26.467C47.3819 26.999 49.3769 26.733 51.6379 24.871C51.7709 24.738 51.7709 24.738 51.7709 24.738C52.1699 24.605 52.1699 24.605 52.4359 25.004C53.2339 26.068 54.2979 26.866 55.3619 27.265C56.5589 27.664 57.8889 27.531 59.6179 26.467C60.8149 25.802 61.3469 24.738 61.4799 23.674C61.6129 22.477 61.3469 21.413 61.0809 20.748C61.0809 20.615 60.9479 20.615 60.9479 20.482C60.8149 20.349 60.8149 20.216 60.9479 20.083C60.9479 19.95 60.9479 19.817 61.2139 19.684C61.2139 19.684 61.3469 19.551 61.4799 19.418C63.2089 17.822 63.7409 16.359 63.6079 15.162C63.4749 13.965 62.6769 12.901 61.8789 12.103C61.3469 11.571 60.2829 11.305 59.3519 11.438C58.2879 11.438 57.2239 11.704 56.5589 11.837C56.4259 11.837 56.2929 11.97 56.2929 11.97C56.0269 11.97 56.0269 11.97 55.8939 11.97C55.7609 11.97 55.6279 11.97 55.4949 11.837C55.3619 11.837 55.3619 11.837 55.2289 11.704C53.4999 11.039 52.1699 10.64 50.9729 10.64C49.9089 10.64 48.9779 10.906 48.4459 11.438C47.7809 11.97 47.3819 12.768 47.2489 13.699Z" fill="black"/>
<path d="M45.6528 19.95C45.7858 20.083 45.7858 20.216 45.6528 20.349C45.5198 20.482 45.2538 20.482 45.1208 20.349C44.4558 19.551 43.5248 19.152 42.4608 19.019C41.9288 19.019 41.3968 19.019 40.8648 19.152C40.3328 19.285 39.8008 19.551 39.4018 19.95C38.7368 20.615 38.2048 21.546 38.0718 22.876C38.0718 23.009 37.9388 23.142 37.8058 23.142C37.6728 23.142 37.6728 23.009 37.6728 23.009C37.4068 22.876 33.9488 21.413 31.6878 25.137C30.6238 26.733 31.0228 28.063 31.8208 28.994C32.6188 29.925 33.6828 30.59 34.2148 30.723C34.6138 30.989 34.3478 31.255 34.2148 31.787C33.8158 32.452 33.4168 33.649 33.4168 34.979C33.2838 35.91 34.2148 36.841 35.4118 37.506C35.9438 37.772 36.4758 37.905 37.0078 37.905C37.5398 38.038 38.0718 37.905 38.6038 37.772C39.8008 37.24 40.7318 36.043 40.9978 33.649C40.9978 33.516 41.1308 33.383 41.3968 33.383C42.9928 34.048 44.3228 34.048 45.3868 33.649C45.9188 33.383 46.4508 32.851 46.8498 32.319C47.2488 31.787 47.3818 31.122 47.5148 30.457C47.6478 29.393 47.2488 28.063 46.3178 27.132C46.1848 26.999 46.1848 26.866 46.3178 26.733C46.4508 26.6 46.5838 26.6 46.7168 26.733C47.7808 27.797 48.1798 29.26 48.0468 30.59C48.0468 31.388 47.7808 32.053 47.3818 32.718C46.9828 33.383 46.3178 33.915 45.6528 34.181C44.5888 34.713 43.1258 34.713 41.5298 34.048C41.1308 36.442 40.0668 37.772 38.8698 38.304C38.3378 38.57 37.6728 38.703 37.0078 38.57C36.3428 38.57 35.6778 38.304 35.1458 38.038C33.8158 37.373 32.7518 36.043 32.7518 34.979C32.7518 33.516 33.2838 32.319 33.5498 31.521C33.6828 31.388 34.2148 31.388 33.9488 31.388C33.4168 31.122 32.2198 30.457 31.2888 29.393C30.3578 28.329 29.9588 26.733 31.1558 24.738C33.2838 21.147 36.4758 21.945 37.5398 22.344C37.8058 21.147 38.2048 20.216 39.0028 19.551C39.4018 19.019 40.0668 18.753 40.5988 18.62C41.2638 18.354 41.9288 18.354 42.5938 18.354C43.6578 18.487 44.8548 19.019 45.6528 19.95Z" fill="black"/>
<path d="M52.8352 37.107C52.8352 37.107 52.7022 37.24 52.7022 37.373L52.9682 37.24L52.8352 37.107ZM52.7022 37.373L52.9682 37.24L52.7022 37.373ZM52.7022 37.373C52.7022 37.107 52.5692 37.506 52.5692 37.506C52.3032 37.506 51.7712 37.639 51.3722 37.639C49.1112 38.038 45.2542 38.836 43.9242 40.432C45.1212 41.363 50.9732 45.353 56.2932 42.427L56.6922 42.959C50.3082 46.55 43.2592 40.698 43.2592 40.698L42.9932 40.565L43.1262 40.299C44.4562 38.437 48.8452 37.373 51.2392 37.107C51.7712 36.974 52.1702 36.974 52.4362 36.974C52.9682 36.974 53.2342 36.974 53.2342 37.24C53.2342 37.373 53.2342 37.506 53.1012 37.506L52.9682 37.24L52.7022 37.373Z" fill="black"/>
<path d="M57.2242 46.1511C57.4902 46.0181 61.4802 42.6931 63.4752 38.5701C64.4062 36.5751 64.9382 34.4471 64.1402 32.4521C62.8102 32.7181 56.2932 34.7131 55.6282 40.8311H55.0962C55.7612 33.5161 64.2732 31.7871 64.2732 31.7871L64.5392 31.6541L64.6722 31.9201C65.6032 34.1811 65.0712 36.5751 64.0072 38.8361C62.0122 43.0921 57.7562 46.5501 57.4902 46.6831L57.2242 46.1511Z" fill="black"/>
<path d="M80.2331 34.314C80.2331 34.314 75.7111 35.112 73.7161 48.013L73.1841 47.88C75.0461 34.58 80.1001 33.782 80.1001 33.782L80.2331 34.314Z" fill="black"/>
<path d="M72.6519 23.275C72.6519 23.275 65.6029 34.846 67.4649 47.747L66.7999 47.88C64.9379 34.713 72.1199 22.876 72.1199 22.876L72.6519 23.275Z" fill="black"/>
<path d="M85.4202 11.438C85.9522 9.57599 86.0852 7.84699 85.8192 6.51699C85.6862 5.31999 85.1542 4.38899 84.4892 3.85699C83.6912 3.19199 82.6272 2.79299 81.4302 2.92599C79.9672 2.92599 78.3712 3.32499 76.3762 4.12299C76.2432 4.25599 76.1102 4.25599 75.9772 4.38899C75.8442 4.38899 75.7112 4.52199 75.5782 4.52199C75.4452 4.52199 75.3122 4.38899 75.1792 4.38899C75.0462 4.38899 74.9132 4.25599 74.7802 4.25599C73.9822 4.12299 72.7852 3.85699 71.4552 3.72399C70.2582 3.72399 69.0612 3.85699 68.3962 4.65499C67.4652 5.45299 66.5342 6.78299 66.4012 8.24599C66.2682 9.70899 66.8002 11.438 68.9282 13.433C69.0612 13.566 69.1942 13.699 69.3272 13.699C69.4602 13.832 69.5932 13.965 69.5932 14.098C69.5932 14.231 69.5932 14.364 69.4602 14.497C69.4602 14.63 69.4602 14.763 69.3272 14.896C69.0612 15.694 68.7952 17.024 68.9282 18.354C69.0612 19.551 69.5932 20.881 71.1892 21.812C73.1842 22.876 74.7802 23.009 76.1102 22.61C77.5732 22.211 78.6372 21.147 79.7012 19.817C79.9672 19.551 79.9672 19.551 80.3662 19.684H80.4992L80.6322 19.817C83.2922 21.945 85.6862 22.344 87.2822 21.679C87.9472 21.413 88.4792 21.014 88.8782 20.482C89.2772 19.95 89.4102 19.152 89.5432 18.487C89.5432 16.625 88.6122 14.63 86.0852 13.034C85.9522 12.901 85.8192 12.901 85.8192 12.901C85.4202 12.768 85.4202 12.635 85.2872 12.502C85.2872 12.236 85.2872 12.103 85.2872 11.837C85.4202 11.704 85.4202 11.571 85.4202 11.438ZM86.4842 6.51699C86.6172 7.84699 86.4842 9.57599 86.0852 11.571C85.9522 11.837 85.9522 11.97 85.9522 12.103C85.9522 12.236 85.8192 12.236 85.8192 12.236C85.8192 12.236 85.9522 12.236 86.0852 12.369C86.2182 12.369 86.2182 12.502 86.3512 12.502C89.1442 14.231 90.2082 16.492 90.0752 18.487C90.0752 19.285 89.8092 20.083 89.4102 20.748C88.8782 21.413 88.3462 21.945 87.4152 22.344C85.6862 23.009 83.1592 22.61 80.2332 20.349C80.2332 20.349 80.2332 20.216 80.1002 20.216C79.0362 21.679 77.8392 22.743 76.3762 23.275C74.7802 23.674 73.0512 23.541 70.9232 22.344C69.1942 21.28 68.5292 19.817 68.2632 18.354C68.1302 16.891 68.5292 15.561 68.7952 14.763C68.7952 14.497 68.9282 14.364 68.9282 14.231H69.0612C68.9282 14.231 68.9282 14.231 68.9282 14.231C68.7952 14.098 68.6622 13.965 68.5292 13.832C66.1352 11.837 65.6032 9.84199 65.7362 8.24599C66.0022 6.51699 66.9332 5.18699 67.9972 4.12299C68.7952 3.32499 70.1252 3.05899 71.5882 3.19199C72.9182 3.19199 74.1152 3.45799 74.9132 3.72399C75.1792 3.72399 75.3122 3.72399 75.3122 3.85699C75.4452 3.85699 75.5782 3.85699 75.5782 3.85699C75.5782 3.85699 75.5782 3.85699 75.7112 3.72399C75.8442 3.72399 75.9772 3.72399 76.1102 3.59099C78.2382 2.65999 79.9672 2.26099 81.4302 2.26099C82.8932 2.26099 83.9572 2.65999 84.8882 3.32499C85.6862 3.98999 86.2182 5.05399 86.4842 6.51699Z" fill="black"/>
<path d="M89.144 21.014C89.011 21.147 88.878 21.147 88.745 21.014C88.612 20.881 88.612 20.615 88.745 20.615C88.878 20.615 93.134 17.423 97.789 21.546C99.917 23.408 99.917 25.27 99.252 26.866C98.72 28.462 97.39 29.659 96.991 30.058C96.725 30.191 97.257 30.191 97.39 30.324C98.055 31.122 99.119 32.319 99.651 33.915C100.183 35.245 99.385 37.107 98.055 38.437C97.523 38.969 96.858 39.368 96.06 39.767C95.395 40.033 94.597 40.166 93.799 40.033C92.203 39.9 90.474 38.836 89.144 36.176C87.282 37.639 85.42 38.038 83.957 37.639C83.026 37.506 82.228 37.107 81.563 36.442C80.898 35.91 80.366 35.112 79.967 34.314C79.302 32.851 79.435 31.122 80.366 29.526C80.366 29.526 80.366 29.526 80.499 29.526C80.632 29.393 81.297 28.728 80.765 28.196C79.834 27.398 79.169 26.6 78.77 25.669C77.972 24.206 77.706 22.61 77.706 22.211C77.573 21.945 77.706 21.812 77.972 21.812C78.105 21.812 78.238 21.945 78.238 22.078C78.238 22.61 78.504 23.94 79.302 25.27C79.701 26.201 80.366 26.999 81.164 27.664C82.095 28.728 81.164 29.792 80.898 29.925C79.967 31.255 79.967 32.851 80.632 34.181C80.898 34.846 81.297 35.511 81.962 36.043C82.494 36.575 83.292 36.841 84.09 37.107C85.553 37.373 87.282 36.974 89.011 35.378H89.144C89.277 35.245 89.41 35.378 89.543 35.511C90.74 38.171 92.336 39.368 93.932 39.501C94.597 39.501 95.262 39.368 95.927 39.102C96.459 38.836 97.124 38.437 97.656 37.905C98.853 36.841 99.518 35.245 99.119 34.181C98.587 32.718 97.523 31.521 96.991 30.723C96.459 30.191 96.193 29.925 96.459 29.659C96.991 29.26 98.188 28.063 98.72 26.733C99.252 25.27 99.252 23.674 97.39 21.945C93.134 18.221 89.144 21.014 89.144 21.014Z" fill="black"/>
<path d="M66.667 43.225L66.8 43.092C68.928 41.496 76.243 36.176 74.381 30.989C73.45 31.255 70.391 32.319 68.13 34.181L67.731 33.649C70.524 31.388 74.514 30.191 74.514 30.191H74.78V30.457C77.307 36.176 69.327 42.028 67.199 43.624L66.933 43.757L66.667 43.225Z" fill="black"/>
<path fill-rule="evenodd" clip-rule="evenodd" d="M55.8941 17.689C55.7611 17.423 55.4951 17.423 55.3621 17.29C53.7661 16.625 51.7711 17.29 52.0371 19.019C52.3031 20.349 51.6381 20.482 51.3721 19.285C50.9731 17.822 52.0371 16.492 54.0321 16.359C54.8301 16.359 55.7611 16.625 56.5591 17.29C57.4901 18.221 57.0911 18.62 55.8941 17.689Z" fill="black"/>
<path fill-rule="evenodd" clip-rule="evenodd" d="M78.2381 12.635C78.3711 12.502 78.3711 12.236 78.3711 11.97C78.2381 10.374 76.6421 8.911 75.3121 9.842C74.1151 10.773 73.8491 10.241 74.7801 9.443C75.8441 8.379 77.5731 8.778 78.5041 10.507C78.9031 11.305 79.1691 12.236 78.9031 13.167C78.5041 14.497 77.9721 14.231 78.2381 12.635Z" fill="black"/>
<path fill-rule="evenodd" clip-rule="evenodd" d="M91.1389 28.861C91.2719 28.595 91.2719 28.329 91.2719 28.196C91.1389 26.467 89.5429 25.004 88.2129 25.935C87.0159 26.866 86.7499 26.334 87.6809 25.536C88.8779 24.472 90.4739 24.871 91.4049 26.6C91.8039 27.398 92.0699 28.329 91.8039 29.26C91.4049 30.59 90.8729 30.457 91.1389 28.861Z" fill="black"/>
<path fill-rule="evenodd" clip-rule="evenodd" d="M40.1998 26.866C40.0668 26.866 39.8008 26.866 39.5348 26.866C37.9388 27.132 36.6088 28.861 37.8058 30.191C38.8698 31.122 38.3378 31.521 37.4068 30.723C36.2098 29.659 36.3428 28.063 38.0718 26.866C38.7368 26.334 39.6678 26.068 40.5988 26.201C41.9288 26.467 41.7958 26.999 40.1998 26.866Z" fill="black"/>
<path d="M51.1059 123.025C51.3719 125.153 53.4999 126.616 56.5589 127.547C58.2879 128.079 60.4159 128.345 62.5439 128.478C64.8049 128.611 66.9329 128.478 69.0609 128.212C73.8489 127.547 77.9719 125.818 78.7699 123.158C79.3019 121.695 79.1689 112.917 79.0359 101.878C78.5039 81.396 77.3069 53.333 77.1739 49.077C77.1739 49.077 77.1739 48.944 77.1739 48.811C77.0409 48.811 77.0409 48.811 76.9079 48.811C73.0509 48.412 69.1939 48.279 65.2039 48.146C61.3469 48.146 57.3569 48.412 53.4999 48.811C53.2339 48.811 53.1009 48.811 52.9679 48.811C52.8349 48.811 52.8349 48.811 52.8349 48.811C52.8349 48.811 52.8349 48.944 52.7019 49.21V49.343C52.3029 53.067 51.7709 69.559 51.3719 86.184C50.9729 103.474 50.8399 120.631 51.1059 123.025ZM56.4259 128.079C53.1009 127.148 50.8399 125.419 50.5739 123.158C50.1749 120.764 50.3079 103.474 50.7069 86.184C51.1059 69.559 51.6379 52.934 52.1699 49.343V49.21C52.1699 48.678 52.1699 48.545 52.4359 48.412C52.5689 48.279 52.7019 48.279 52.9679 48.146C53.1009 48.146 53.2339 48.146 53.3669 48.146C57.3569 47.747 61.3469 47.614 65.2039 47.614C69.1939 47.614 73.0509 47.88 76.9079 48.279C77.0409 48.279 77.1739 48.279 77.1739 48.279C77.4399 48.279 77.5729 48.279 77.7059 48.412C77.7059 48.545 77.7059 48.678 77.7059 48.811C77.7059 48.944 77.7059 48.944 77.7059 49.077C77.9719 53.333 79.1689 81.396 79.5679 101.745C79.8339 112.917 79.8339 121.828 79.4349 123.291C78.5039 126.35 74.2479 128.212 69.1939 128.877C67.0659 129.143 64.8049 129.276 62.5439 129.143C60.2829 129.01 58.1549 128.611 56.4259 128.079Z" fill="black"/>
</svg>
