<svg width="71" height="103" viewBox="0 0 71 103" fill="none" xmlns="http://www.w3.org/2000/svg">
<path d="M17.6781 30.087C17.6781 30.087 26.8551 35.008 28.4511 46.047L27.9191 46.18C26.1901 35.407 17.4121 30.619 17.2791 30.619L17.6781 30.087Z" fill="black"/>
<path d="M29.249 25.698C29.249 25.698 30.446 27.959 31.51 31.55L30.978 31.816C29.781 28.225 28.717 25.964 28.717 25.964L29.249 25.698ZM33.372 38.732C33.372 38.865 33.372 39.131 33.372 39.397C33.904 41.924 34.037 42.722 33.505 45.781L32.973 45.648C33.372 42.722 33.239 41.924 32.84 39.397C32.84 39.264 32.707 39.131 32.707 38.865L33.372 38.732Z" fill="black"/>
<path d="M17.412 16.1219C16.88 14.5259 16.88 13.0629 17.013 11.8659C17.279 10.6689 17.678 9.73792 18.476 9.07292C19.141 8.54092 20.072 8.14192 21.402 8.27492C22.599 8.27492 24.062 8.54092 25.791 9.33892C25.924 9.47192 26.057 9.47192 26.19 9.47192C26.19 9.60492 26.323 9.60492 26.323 9.60492C26.323 9.60492 26.323 9.60492 26.456 9.47192C26.456 9.47192 26.589 9.47192 26.722 9.47192C27.387 9.20592 28.584 8.93992 29.648 8.93992C30.845 8.93992 32.042 9.07292 32.707 9.87092C33.638 10.6689 34.436 11.8659 34.569 13.3289C34.835 14.6589 34.303 16.3879 32.308 18.1169C32.175 18.2499 32.042 18.3829 31.909 18.3829C31.909 18.5159 32.042 18.6489 32.042 18.7819C32.308 19.4469 32.574 20.6439 32.441 21.8409C32.308 23.1709 31.776 24.3679 30.313 25.2989C28.451 26.2299 26.855 26.4959 25.658 25.9639C24.328 25.5649 23.264 24.6339 22.333 23.5699C19.806 25.5649 17.678 25.8309 16.215 25.2989C15.55 25.0329 14.885 24.5009 14.619 23.9689C14.22 23.4369 13.954 22.7719 13.954 21.9739C13.821 20.2449 14.752 18.3829 17.146 16.9199C17.146 16.7869 17.279 16.7869 17.412 16.7869C17.545 16.6539 17.545 16.6539 17.545 16.6539C17.545 16.6539 17.545 16.6539 17.412 16.5209C17.412 16.5209 17.412 16.3879 17.412 16.1219ZM17.678 11.8659C17.412 13.0629 17.545 14.3929 17.944 15.9889C17.944 16.1219 18.077 16.2549 18.077 16.3879C18.077 16.6539 18.21 16.7869 18.077 16.9199C18.077 17.0529 17.944 17.1859 17.678 17.3189C17.678 17.3189 17.545 17.3189 17.412 17.4519C15.284 18.6489 14.486 20.5109 14.486 21.9739C14.619 22.6389 14.752 23.1709 15.018 23.5699C15.417 24.1019 15.816 24.5009 16.348 24.6339C17.678 25.1659 19.673 24.8999 21.934 23.0379H22.067C22.2 22.9049 22.2 22.9049 22.2 22.9049C22.599 22.7719 22.599 22.7719 22.865 23.1709C23.663 24.2349 24.594 25.0329 25.791 25.4319C26.988 25.8309 28.318 25.6979 29.914 24.7669C31.244 23.9689 31.643 22.9049 31.776 21.8409C31.909 20.6439 31.643 19.5799 31.51 19.0479C31.377 18.7819 31.377 18.7819 31.377 18.6489C31.244 18.5159 31.244 18.3829 31.244 18.2499C31.377 18.1169 31.377 17.9839 31.51 17.8509C31.643 17.8509 31.776 17.7179 31.909 17.5849C33.638 15.9889 34.17 14.6589 34.037 13.3289C33.904 12.1319 33.106 11.0679 32.308 10.2699C31.643 9.73792 30.712 9.60492 29.648 9.60492C28.584 9.60492 27.52 9.87092 26.988 10.0039C26.855 10.0039 26.722 10.1369 26.589 10.1369C26.456 10.1369 26.323 10.1369 26.19 10.1369C26.057 10.1369 26.057 10.1369 25.924 10.0039C25.791 10.0039 25.658 10.0039 25.525 9.87092C23.929 9.20592 22.466 8.80692 21.269 8.80692C20.205 8.80692 19.407 9.07292 18.875 9.60492C18.21 10.1369 17.811 10.9349 17.678 11.8659Z" fill="black"/>
<path d="M15.949 18.117C16.082 18.25 16.082 18.383 15.949 18.516C15.816 18.649 15.683 18.649 15.55 18.516C14.885 17.851 13.821 17.319 12.89 17.186C12.225 17.186 11.693 17.186 11.161 17.319C10.629 17.452 10.23 17.718 9.69805 18.117C9.16605 18.782 8.63405 19.713 8.50105 21.043C8.50105 21.176 8.36805 21.309 8.10205 21.309C8.10205 21.309 8.10205 21.309 7.96905 21.176C7.83605 21.176 4.24505 19.58 1.98405 23.304C1.05305 25.033 1.45205 26.23 2.11705 27.161C2.91505 28.092 4.11205 28.757 4.64405 28.89C4.91005 29.156 4.77705 29.422 4.51105 29.954C4.24505 30.752 3.71305 31.816 3.71305 33.146C3.71305 34.077 4.64405 35.141 5.84105 35.673C6.24005 35.939 6.90505 36.072 7.43705 36.205C7.96905 36.205 8.50105 36.205 9.03305 35.939C10.097 35.407 11.028 34.21 11.427 31.816C11.427 31.683 11.56 31.55 11.693 31.55C11.826 31.55 11.826 31.55 11.826 31.55C13.422 32.348 14.752 32.215 15.683 31.816C16.348 31.55 16.88 31.151 17.146 30.619C17.545 29.954 17.811 29.422 17.811 28.757C17.944 27.56 17.678 26.23 16.747 25.299C16.614 25.166 16.614 25.033 16.747 24.9C16.88 24.767 17.0131 24.767 17.146 24.9C18.21 25.964 18.609 27.427 18.476 28.757C18.3431 29.555 18.21 30.22 17.678 30.885C17.279 31.55 16.747 32.082 15.949 32.348C14.885 32.88 13.555 32.88 11.959 32.348C11.56 34.742 10.496 35.939 9.29905 36.471C8.63405 36.737 7.96905 36.87 7.30405 36.737C6.77205 36.737 6.10705 36.471 5.57505 36.205C4.11205 35.54 3.04805 34.343 3.18105 33.146C3.18105 31.683 3.71305 30.486 3.97905 29.821C4.11205 29.555 4.51105 29.555 4.37805 29.555C3.84605 29.289 2.51605 28.624 1.71805 27.56C0.787047 26.496 0.388047 24.9 1.45205 22.905C3.71305 19.447 6.77205 20.112 7.96905 20.511C8.10205 19.314 8.63405 18.383 9.29905 17.718C9.83105 17.186 10.363 16.92 11.028 16.787C11.693 16.521 12.225 16.521 12.89 16.654C14.087 16.787 15.151 17.319 15.949 18.117Z" fill="black"/>
<path d="M23.1311 35.274C23.1311 35.274 23.1311 35.407 23.1311 35.54L23.3971 35.407L23.1311 35.274ZM23.1311 35.54L23.3971 35.407L23.1311 35.54ZM23.1311 35.54H22.9981C22.9981 35.274 22.9981 35.673 22.8651 35.673C22.5991 35.806 22.2001 35.806 21.6681 35.806C19.5401 36.205 15.5501 37.003 14.2201 38.599C15.5501 39.53 21.4021 43.52 26.7221 40.594L26.9881 41.126C20.6041 44.717 13.6881 38.998 13.5551 38.865L13.4221 38.732L13.5551 38.466C14.8851 36.604 19.1411 35.54 21.6681 35.274C22.2001 35.141 22.5991 35.141 22.8651 35.141C23.3971 35.141 23.6631 35.141 23.6631 35.407C23.6631 35.54 23.6631 35.673 23.5301 35.673L23.3971 35.407L23.1311 35.54Z" fill="black"/>
<path d="M27.5201 44.3179C27.9191 44.1849 31.9091 40.8599 33.9041 36.7369C34.8351 34.7419 35.2341 32.6139 34.5691 30.6189C33.2391 30.8849 26.7221 32.8799 26.0571 38.9979H25.3921C26.1901 31.6829 34.7021 29.9539 34.7021 29.9539L34.9681 29.8209V30.0869C36.0321 32.3479 35.5001 34.8749 34.4361 37.0029C32.3081 41.2589 28.1851 44.7169 27.9191 44.8499L27.5201 44.3179Z" fill="black"/>
<path d="M50.662 32.481C50.662 32.481 46.007 33.279 44.145 46.18L43.48 46.047C45.475 32.747 50.529 31.949 50.529 31.949L50.662 32.481Z" fill="black"/>
<path d="M43.081 21.442C43.081 21.442 35.899 32.614 37.761 45.515L37.096 45.648C35.234 32.481 42.549 21.176 42.549 21.043L43.081 21.442Z" fill="black"/>
<path d="M55.8491 9.60498C56.2481 7.74298 56.3811 6.01398 56.2481 4.68398C55.9821 3.48698 55.5831 2.55598 54.7851 2.02398C54.1201 1.35898 53.0561 1.09298 51.8591 1.09298C50.3961 1.09298 48.6671 1.49198 46.8051 2.28998C46.6721 2.42298 46.5391 2.42298 46.4061 2.55598C46.2731 2.55598 46.1401 2.68898 46.0071 2.68898C45.8741 2.68898 45.7411 2.68898 45.6081 2.55598C45.4751 2.55598 45.3421 2.55598 45.2091 2.42298C44.4111 2.28998 43.2141 2.02398 41.8841 1.89098C40.6871 1.89098 39.4901 2.02398 38.8251 2.82198C37.8941 3.75298 36.9631 4.94998 36.6971 6.41298C36.5641 7.87598 37.2291 9.73798 39.3571 11.6C39.4901 11.733 39.6231 11.866 39.6231 11.866C39.8891 11.999 39.8891 12.132 40.0221 12.265C40.0221 12.398 40.0221 12.531 39.8891 12.664C39.8891 12.797 39.7561 12.93 39.7561 13.063C39.4901 13.861 39.2241 15.191 39.3571 16.521C39.4901 17.718 40.0221 19.048 41.6181 19.979C43.4801 21.043 45.2091 21.176 46.5391 20.777C47.8691 20.378 49.0661 19.314 49.9971 18.117C50.3961 17.718 50.3961 17.718 50.7951 17.851C50.7951 17.851 50.7951 17.851 50.9281 17.851V17.984C53.7211 20.112 55.9821 20.511 57.5781 19.846C58.3761 19.58 58.9081 19.181 59.3071 18.649C59.5731 18.117 59.8391 17.319 59.8391 16.654C59.9721 14.925 58.9081 12.797 56.3811 11.201C56.2481 11.201 56.2481 11.068 56.1151 11.068C55.8491 10.935 55.7161 10.802 55.7161 10.669C55.5831 10.403 55.5831 10.27 55.7161 10.004C55.7161 10.004 55.8491 9.73798 55.8491 9.60498ZM56.7801 4.68398C57.0461 6.01398 56.9131 7.74298 56.3811 9.73798C56.3811 10.004 56.3811 10.137 56.3811 10.27C56.2481 10.403 56.2481 10.403 56.2481 10.403C56.2481 10.403 56.2481 10.403 56.5141 10.536C56.5141 10.536 56.6471 10.669 56.7801 10.669C59.4401 12.398 60.6371 14.659 60.5041 16.654C60.5041 17.585 60.2381 18.383 59.7061 19.048C59.3071 19.58 58.6421 20.112 57.8441 20.511C56.1151 21.176 53.5881 20.777 50.6621 18.516H50.5291C49.4651 19.846 48.2681 20.91 46.6721 21.442C45.2091 21.841 43.3471 21.708 41.2191 20.511C39.4901 19.447 38.8251 17.984 38.6921 16.521C38.5591 15.058 38.9581 13.728 39.2241 12.93C39.2241 12.664 39.2241 12.531 39.3571 12.531C39.3571 12.398 39.3571 12.531 39.3571 12.398C39.2241 12.265 39.0911 12.265 38.8251 11.999C36.5641 10.004 35.8991 8.00898 36.1651 6.41298C36.2981 4.68398 37.3621 3.35398 38.2931 2.28998C39.2241 1.49198 40.5541 1.22598 41.8841 1.35898C43.2141 1.35898 44.5441 1.62498 45.3421 1.89098C45.4751 1.89098 45.6081 1.89098 45.7411 2.02398C45.8741 2.02398 45.8741 2.02398 46.0071 2.02398C46.0071 2.02398 46.0071 2.02398 46.1401 1.89098C46.2731 1.89098 46.4061 1.89098 46.5391 1.75798C48.5341 0.826979 50.2631 0.427979 51.7261 0.427979C53.1891 0.427979 54.3861 0.826979 55.1841 1.49198C56.1151 2.28998 56.6471 3.35398 56.7801 4.68398Z" fill="black"/>
<path d="M59.573 19.314C59.44 19.314 59.174 19.314 59.174 19.181C59.041 19.048 59.041 18.782 59.174 18.782C59.174 18.782 63.563 15.59 68.218 19.713C70.213 21.575 70.346 23.437 69.681 25.033C69.016 26.629 67.819 27.826 67.287 28.358C67.154 28.491 67.553 28.358 67.819 28.624C68.484 29.289 69.548 30.486 70.08 32.082C70.479 33.412 69.814 35.274 68.484 36.604C67.819 37.136 67.287 37.535 66.489 37.934C65.824 38.2 65.026 38.333 64.228 38.333C62.499 38.067 60.903 37.003 59.573 34.343C57.711 35.806 55.849 36.205 54.253 35.806C53.455 35.673 52.657 35.274 51.992 34.609C51.327 34.077 50.795 33.412 50.396 32.614C49.731 31.018 49.731 29.289 50.795 27.693C50.928 27.56 51.593 26.895 51.194 26.363C50.263 25.698 49.598 24.767 49.066 23.836C48.401 22.373 48.002 20.777 48.002 20.378C48.002 20.112 48.135 19.979 48.268 19.979C48.534 19.979 48.667 20.112 48.667 20.378C48.667 20.777 48.933 22.107 49.598 23.57C50.13 24.368 50.662 25.166 51.593 25.831C51.593 25.831 51.593 25.831 51.593 25.964C52.524 26.895 51.46 27.959 51.327 28.092C50.396 29.422 50.396 31.018 50.928 32.348C51.327 33.013 51.726 33.678 52.391 34.21C52.923 34.742 53.588 35.141 54.386 35.274C55.849 35.54 57.711 35.141 59.44 33.545C59.44 33.545 59.44 33.545 59.573 33.545C59.706 33.412 59.839 33.545 59.972 33.678C61.169 36.471 62.765 37.535 64.228 37.668C64.893 37.668 65.691 37.535 66.223 37.269C66.888 37.003 67.553 36.604 67.952 36.205C69.149 35.008 69.814 33.412 69.415 32.348C69.016 30.885 67.952 29.688 67.287 29.023C66.888 28.491 66.622 28.092 66.888 27.826C67.42 27.427 68.484 26.23 69.149 24.9C69.681 23.437 69.548 21.841 67.819 20.245C67.819 20.112 67.819 20.112 67.819 20.112C63.563 16.388 59.573 19.314 59.573 19.314Z" fill="black"/>
<path d="M36.9631 41.392L37.2291 41.259C39.2241 39.796 46.6721 34.343 44.8101 29.156C43.8791 29.422 40.8201 30.486 38.5591 32.348L38.1601 31.816C40.9531 29.555 44.8101 28.491 44.8101 28.491L45.0761 28.358L45.2091 28.624C47.6031 34.343 39.7561 40.195 37.4951 41.791L37.3621 41.924L36.9631 41.392Z" fill="black"/>
<path fill-rule="evenodd" clip-rule="evenodd" d="M26.323 15.856C26.057 15.723 25.924 15.59 25.658 15.457C24.195 14.792 22.067 15.457 22.333 17.186C22.599 18.649 22.067 18.649 21.668 17.452C21.269 15.989 22.466 14.659 24.461 14.526C25.259 14.526 26.19 14.792 26.988 15.59C27.919 16.388 27.52 16.787 26.323 15.856Z" fill="black"/>
<path fill-rule="evenodd" clip-rule="evenodd" d="M48.6671 10.935C48.6671 10.669 48.6671 10.403 48.6671 10.27C48.6671 8.54099 47.0711 7.07799 45.7411 8.00899C44.5441 8.93999 44.1451 8.40799 45.0761 7.60999C46.2731 6.54599 47.8691 6.94499 48.9331 8.67399C49.3321 9.47199 49.4651 10.403 49.1991 11.334C48.9331 12.664 48.2681 12.398 48.6671 10.935Z" fill="black"/>
<path fill-rule="evenodd" clip-rule="evenodd" d="M61.5681 27.028C61.5681 26.762 61.7011 26.496 61.5681 26.363C61.5681 24.634 59.9721 23.171 58.6421 24.235C57.4451 25.033 57.1791 24.501 58.1101 23.703C59.1741 22.639 60.9031 23.038 61.8341 24.767C62.2331 25.565 62.3661 26.496 62.1001 27.427C61.8341 28.757 61.3021 28.624 61.5681 27.028Z" fill="black"/>
<path fill-rule="evenodd" clip-rule="evenodd" d="M10.629 25.033C10.363 25.033 10.23 25.033 9.96404 25.033C8.36804 25.299 7.03804 27.161 8.23504 28.358C9.16604 29.289 8.76704 29.688 7.83604 28.89C6.63904 27.959 6.77204 26.23 8.36804 25.033C9.16604 24.501 9.96404 24.235 11.028 24.368C12.358 24.634 12.225 25.166 10.629 25.033Z" fill="black"/>
<path d="M22.4661 98.316C22.7321 99.646 24.8601 100.71 27.7861 101.375C29.6481 101.774 31.6431 102.04 33.9041 102.04C36.0321 102.173 38.2931 102.173 40.4211 101.907C45.2091 101.508 49.3321 100.311 50.1301 98.316C50.5291 97.252 50.5291 91.134 50.2631 83.42C49.8641 69.189 48.6671 49.505 48.4011 46.579C48.4011 46.446 48.4011 46.446 48.4011 46.446C48.4011 46.313 48.2681 46.313 48.1351 46.313C44.2781 46.047 40.4211 45.914 36.5641 45.914C32.5741 45.914 28.7171 46.047 24.7271 46.313C24.5941 46.313 24.4611 46.313 24.3281 46.313C24.1951 46.313 24.0621 46.313 24.0621 46.313C24.0621 46.313 24.0621 46.446 24.0621 46.712C23.5301 49.239 22.9981 60.943 22.5991 72.514C22.2001 84.617 22.0671 96.587 22.4661 98.316ZM27.6531 101.774C24.4611 101.109 22.0671 99.912 21.8011 98.316C21.4021 96.587 21.6681 84.617 22.0671 72.514C22.3331 60.81 22.8651 49.239 23.3971 46.712V46.579C23.5301 46.313 23.5301 46.18 23.6631 46.047C23.7961 45.914 24.0621 45.914 24.3281 45.914C24.3281 45.914 24.4611 45.914 24.5941 45.914C28.5841 45.648 32.5741 45.515 36.5641 45.515C40.4211 45.515 44.4111 45.648 48.2681 45.914C48.2681 45.914 48.4011 45.914 48.5341 45.914C48.6671 45.914 48.8001 45.914 48.9331 46.047C49.0661 46.18 49.0661 46.18 49.0661 46.313C49.0661 46.446 49.0661 46.446 49.0661 46.579C49.1991 49.505 50.3961 69.189 50.9281 83.42C51.1941 91.134 51.1941 97.385 50.6621 98.449C49.7311 100.577 45.4751 101.907 40.4211 102.306C38.2931 102.572 36.0321 102.572 33.7711 102.572C31.6431 102.439 29.5151 102.173 27.6531 101.774ZM48.4011 46.313C48.5341 46.313 48.5341 46.313 48.5341 46.313C48.4011 46.313 48.4011 46.313 48.4011 46.313Z" fill="black"/>
</svg>
