<svg width="10" height="12" viewBox="0 0 10 12" fill="none" xmlns="http://www.w3.org/2000/svg">
<path d="M2.5 5.5V3.5C2.5 2.83696 2.76339 2.20107 3.23223 1.73223C3.70107 1.26339 4.33696 1 5 1C5.66304 1 6.29893 1.26339 6.76777 1.73223C7.23661 2.20107 7.5 2.83696 7.5 3.5V5.5M1.5 5.5H8.5C9.05229 5.5 9.5 5.94772 9.5 6.5V10C9.5 10.5523 9.05229 11 8.5 11H1.5C0.947715 11 0.5 10.5523 0.5 10V6.5C0.5 5.94772 0.947715 5.5 1.5 5.5Z" stroke="#020246" stroke-width="0.778215" stroke-linecap="round" stroke-linejoin="round"/>
</svg>
