<svg width="244" height="53" viewBox="0 0 244 53" fill="none" xmlns="http://www.w3.org/2000/svg">
<g clip-path="url(#clip0_2814_10058)">
<path fill-rule="evenodd" clip-rule="evenodd" d="M53 53V-3.05176e-05H0V53H53Z" fill="#B225DA"/>
<path d="M51.1422 51.1475V1.6271H1.62178V51.1475H51.1422ZM51.6669 1.36471V51.6723H1.12085V1.12617H51.6669V1.36471Z" fill="white"/>
<path fill-rule="evenodd" clip-rule="evenodd" d="M33.1566 26.3875C32.441 27.6995 31.7016 28.8922 30.986 29.9894C30.2465 31.0629 29.4832 32.0647 28.7437 32.9473C29.841 33.5914 30.8667 34.0446 31.8208 34.3547C32.7511 34.6409 33.6814 34.784 34.5879 34.784C36.3292 34.784 37.7127 34.3547 38.7384 33.4721C39.788 32.5895 40.3128 31.4207 40.3128 29.9179C40.3128 28.749 39.9073 27.6995 39.1201 26.8169C38.3568 25.9343 37.5219 25.4811 36.6393 25.4811C36.4246 25.4811 35.9475 25.6242 35.1842 25.8866C34.4209 26.1728 33.753 26.3398 33.1566 26.3875ZM7.58543 27.5802C7.56157 27.4609 7.53772 27.3417 7.53772 27.3178C7.4423 26.793 7.46616 26.2205 7.58543 25.7196C7.80011 24.9563 8.11021 24.2407 8.49187 23.5728C8.63499 23.3104 8.80197 23.048 8.94509 22.8095C8.96895 22.8095 8.96895 22.7856 8.96895 22.7856C9.04051 22.6663 9.11207 22.5471 9.18363 22.4517C9.18363 22.4517 9.18363 22.4517 9.18363 22.4278C9.20748 22.4278 9.20748 22.4278 9.20748 22.4278C9.51758 21.9507 9.87539 21.4736 10.2332 21.0204C9.80383 21.4021 9.39831 21.8315 9.01665 22.2847C9.01665 22.3085 9.01665 22.3085 9.01665 22.3085C8.87353 22.4755 8.73041 22.6663 8.58729 22.8333V22.8572C8.56343 22.8572 8.56343 22.8572 8.56343 22.8572C8.46802 23.0003 8.34875 23.1434 8.25333 23.2865C7.46616 24.2884 7.06064 25.4811 6.67898 26.6738C6.65513 26.7215 6.63128 26.7453 6.60742 26.7692C6.51201 26.8407 6.36889 26.793 6.32118 26.6738C5.98723 25.6481 5.91566 24.5269 6.13035 23.4535C6.1542 23.4535 6.1542 23.4535 6.1542 23.4535C6.29733 22.7379 6.58357 22.07 7.01294 21.4736C7.03679 21.4736 7.03679 21.4736 7.03679 21.4498C7.0845 21.3782 7.13221 21.3067 7.20377 21.2351C7.20377 21.2351 7.22762 21.2113 7.25148 21.1874C7.49001 20.9012 7.72855 20.6388 7.99094 20.4002C7.99094 20.4002 7.99094 20.4002 8.0148 20.4002C8.77812 19.6608 9.63685 19.0644 10.4717 18.3965C11.1635 17.8717 11.8552 17.2515 12.3085 16.5121C12.3323 16.4882 12.3562 16.4644 12.38 16.4405C12.4993 16.3689 12.6663 16.4644 12.6663 16.6313C12.5232 18.2534 12.9287 19.8277 12.6663 21.4498C12.4039 22.9526 11.7598 24.3838 10.6626 25.4334C10.1378 25.9343 9.54144 26.316 8.94509 26.7215C8.65885 26.9362 8.3726 27.1508 8.11021 27.4132C8.0625 27.4609 7.99094 27.5086 7.94323 27.5802C6.60742 31.0867 7.34689 33.7345 10.3048 36.2153C12.3323 37.9089 14.7177 38.7438 17.4609 38.7438C19.2499 38.7438 20.9197 38.3621 22.4702 37.5749C24.0207 36.8116 25.4996 35.5951 26.9547 33.9492C24.6647 31.9454 22.9234 29.7509 21.7546 27.3894C20.5619 25.004 19.9655 22.5471 19.9655 19.9709C19.9655 17.5616 20.5857 15.701 21.8023 14.3414C23.0427 13.0056 24.7601 12.3377 26.9547 12.3377C28.2666 12.3377 30.5089 12.8386 33.7291 13.8404C34.6117 14.1028 35.3035 14.3175 35.7806 14.4606C36.8778 14.7707 37.832 15.0093 38.643 15.1524C39.454 15.2955 40.2412 15.3671 40.9807 15.3671H41.6247C42.4119 14.7946 43.1514 14.3652 43.8431 14.0551C44.5587 13.745 45.1312 13.6019 45.6083 13.6019C45.9423 13.6019 46.2046 13.6735 46.4193 13.8643C46.6579 14.0313 46.7533 14.246 46.7533 14.5084C46.7533 15.0093 46.3716 15.4386 45.5844 15.7487C44.7973 16.0588 43.7 16.202 42.3165 16.202H42.1018C40.766 16.5121 39.5017 17.2992 38.3091 18.5396C37.0925 19.78 35.876 21.5929 34.6117 23.9306C35.0888 24.026 35.5182 24.1214 35.876 24.2407C36.2338 24.3361 36.5677 24.4315 36.8778 24.5269C38.4999 24.0737 40.0265 23.3342 41.4578 22.2847C41.8156 22.0223 42.0302 21.903 42.1018 21.903C42.1495 21.903 42.1972 21.9269 42.2211 21.9746C42.2688 22.0223 42.2688 22.07 42.2688 22.1416C42.2688 22.4278 41.8394 22.8333 40.9568 23.4058C40.0742 23.9544 39.0008 24.4554 37.7127 24.9086C38.7384 25.4811 39.5256 26.1967 40.0742 27.0793C40.6229 27.938 40.9091 28.916 40.9091 29.9894C40.9091 31.7069 40.1697 33.2335 38.7146 34.6171C37.2356 35.9767 35.542 36.6446 33.6337 36.6446C32.775 36.6446 31.8447 36.4777 30.8667 36.1199C29.8648 35.7382 28.7437 35.1657 27.4795 34.3785C25.4996 36.4777 23.5674 38.0043 21.6353 38.9823C19.7031 39.9603 17.6756 40.4612 15.5526 40.4612C13.0002 40.4612 10.8772 39.5786 9.18363 37.7896C7.53772 36.0721 6.67898 33.9015 6.63128 31.3014C6.60742 30.2995 7.22762 28.5344 7.58543 27.5802ZM28.0997 32.5179C28.9107 31.4207 29.6501 30.3711 30.2703 29.3692C30.8905 28.3912 31.4153 27.4132 31.8447 26.5068C30.7951 26.4591 30.0557 26.3398 29.6501 26.149C29.2208 25.9343 29.0061 25.6242 29.0061 25.171C29.0061 24.6939 29.2685 24.3122 29.8171 24.0499C30.3658 23.7875 31.1529 23.6443 32.1548 23.6443C32.2025 23.6443 32.3695 23.6682 32.608 23.7159C32.8704 23.7398 33.1089 23.7636 33.3475 23.7636C34.6356 21.5452 35.8044 19.8993 36.854 18.802C37.9035 17.7286 39.0485 16.9176 40.2889 16.4405C39.6687 16.4644 39.1439 16.5121 38.7146 16.5121C38.2852 16.5359 37.9274 16.5359 37.665 16.5359C36.0907 16.5359 33.9438 16.2735 31.2245 15.7249C28.5052 15.1763 26.5969 14.9139 25.4757 14.9139C23.806 14.9139 22.5656 15.3432 21.7307 16.1781C20.9197 17.0369 20.4903 18.3011 20.4903 19.9709C20.4903 22.0938 21.1821 24.2645 22.5417 26.5545C23.9014 28.8206 25.762 30.8243 28.0997 32.5179Z" fill="#FEFEFE"/>
<path d="M59.3955 39.1675V13H72.7536V14.5266H61.1607V24.1635H71.7756V25.6663H61.1607V39.1675H59.3955Z" stroke="#B225DA" stroke-width="1.2207" stroke-linecap="round" stroke-linejoin="round"/>
<path d="M59.3955 39.1675V13H72.7536V14.5266H61.1607V24.1635H71.7756V25.6663H61.1607V39.1675H59.3955Z" fill="#B225DA"/>
<path d="M76.2368 38.8023V17H77.6919V37.4665H87.7343V38.8023H76.2368Z" stroke="#B225DA" stroke-width="1.2207" stroke-linecap="round" stroke-linejoin="round"/>
<path d="M76.2368 38.8023V17H77.6919V37.4665H87.7343V38.8023H76.2368Z" fill="#B225DA"/>
<path d="M93.0772 35.2977C91.0496 33.1031 90.0239 30.4315 90.0239 27.2589C90.0239 24.0864 91.0496 21.4148 93.0772 19.2441C95.1048 17.0972 97.6571 16 100.734 16C103.835 16 106.411 17.0972 108.439 19.2441C110.467 21.4148 111.492 24.0864 111.492 27.2589C111.492 30.4315 110.467 33.1031 108.439 35.2977C106.411 37.4683 103.835 38.5656 100.734 38.5656C97.6571 38.5656 95.1048 37.4683 93.0772 35.2977ZM94.1506 20.1982C92.457 22.1065 91.6221 24.4681 91.6221 27.2589C91.6221 30.0737 92.457 32.4352 94.1745 34.3435C95.8681 36.2518 98.0626 37.206 100.758 37.206C103.454 37.206 105.648 36.2518 107.342 34.3435C109.059 32.4352 109.894 30.0737 109.894 27.2589C109.894 24.4681 109.059 22.1065 107.342 20.1982C105.648 18.2899 103.454 17.3358 100.734 17.3358C98.0388 17.3358 95.8442 18.2899 94.1506 20.1982Z" stroke="#B225DA" stroke-width="1.2207" stroke-linecap="round" stroke-linejoin="round"/>
<path d="M93.0772 35.2977C91.0496 33.1031 90.0239 30.4315 90.0239 27.2589C90.0239 24.0864 91.0496 21.4148 93.0772 19.2441C95.1048 17.0972 97.6571 16 100.734 16C103.835 16 106.411 17.0972 108.439 19.2441C110.467 21.4148 111.492 24.0864 111.492 27.2589C111.492 30.4315 110.467 33.1031 108.439 35.2977C106.411 37.4683 103.835 38.5656 100.734 38.5656C97.6571 38.5656 95.1048 37.4683 93.0772 35.2977ZM94.1506 20.1982C92.457 22.1065 91.6221 24.4681 91.6221 27.2589C91.6221 30.0737 92.457 32.4352 94.1745 34.3435C95.8681 36.2518 98.0626 37.206 100.758 37.206C103.454 37.206 105.648 36.2518 107.342 34.3435C109.059 32.4352 109.894 30.0737 109.894 27.2589C109.894 24.4681 109.059 22.1065 107.342 20.1982C105.648 18.2899 103.454 17.3358 100.734 17.3358C98.0388 17.3358 95.8442 18.2899 94.1506 20.1982Z" fill="#B225DA"/>
<path d="M116.812 38.9454V17.2147C118.744 17.0715 120.366 17 121.654 17C123.73 17 125.447 17.5486 126.783 18.622C128.119 19.6716 128.81 21.1982 128.81 23.1542C128.81 24.4662 128.405 25.7066 127.642 26.8277C126.878 27.9727 125.996 28.8791 125.042 29.547C125.805 30.5966 126.735 31.837 127.832 33.2682C128.954 34.6995 129.669 35.6059 129.979 35.9637C131.244 37.2995 132.627 38.039 134.201 38.2298L134.178 39.2078C132.937 39.184 131.935 38.9931 131.148 38.6353C130.385 38.2775 129.645 37.7289 128.93 37.0133C128.238 36.2738 126.497 33.9838 123.706 30.1672C121.702 30.1672 119.889 30.0957 118.267 29.9764V38.9454H116.812ZM122.823 28.9507C123.706 28.9507 124.66 28.3544 125.686 27.1855C126.711 25.9928 127.212 24.6332 127.212 23.0588C127.212 21.5083 126.687 20.3395 125.638 19.5285C124.588 18.7174 123.205 18.3119 121.463 18.3119C120.557 18.3119 119.484 18.3596 118.267 18.455V28.7837C119.889 28.903 121.416 28.9507 122.823 28.9507Z" stroke="#B225DA" stroke-width="1.2207" stroke-linecap="round" stroke-linejoin="round"/>
<path d="M116.812 38.9454V17.2147C118.744 17.0715 120.366 17 121.654 17C123.73 17 125.447 17.5486 126.783 18.622C128.119 19.6716 128.81 21.1982 128.81 23.1542C128.81 24.4662 128.405 25.7066 127.642 26.8277C126.878 27.9727 125.996 28.8791 125.042 29.547C125.805 30.5966 126.735 31.837 127.832 33.2682C128.954 34.6995 129.669 35.6059 129.979 35.9637C131.244 37.2995 132.627 38.039 134.201 38.2298L134.178 39.2078C132.937 39.184 131.935 38.9931 131.148 38.6353C130.385 38.2775 129.645 37.7289 128.93 37.0133C128.238 36.2738 126.497 33.9838 123.706 30.1672C121.702 30.1672 119.889 30.0957 118.267 29.9764V38.9454H116.812ZM122.823 28.9507C123.706 28.9507 124.66 28.3544 125.686 27.1855C126.711 25.9928 127.212 24.6332 127.212 23.0588C127.212 21.5083 126.687 20.3395 125.638 19.5285C124.588 18.7174 123.205 18.3119 121.463 18.3119C120.557 18.3119 119.484 18.3596 118.267 18.455V28.7837C119.889 28.903 121.416 28.9507 122.823 28.9507Z" fill="#B225DA"/>
<path d="M142.359 31.4076L139.234 38.9693H137.66L146.867 17H147.702L156.933 38.9693H155.288L152.139 31.4076H142.359ZM147.201 19.4569C147.177 19.4569 147.13 19.6 147.082 19.8147C146.796 20.6973 146.509 21.4368 146.247 22.0331L142.884 30.1672H151.614L148.251 22.0808C147.559 20.5303 147.201 19.6477 147.201 19.4569Z" stroke="#B225DA" stroke-width="1.2208" stroke-linecap="round" stroke-linejoin="round"/>
<path d="M142.359 31.4076L139.234 38.9693H137.66L146.867 17H147.702L156.933 38.9693H155.288L152.139 31.4076H142.359ZM147.201 19.4569C147.177 19.4569 147.13 19.6 147.082 19.8147C146.796 20.6973 146.509 21.4368 146.247 22.0331L142.884 30.1672H151.614L148.251 22.0808C147.559 20.5303 147.201 19.6477 147.201 19.4569Z" fill="#B225DA"/>
<path d="M160.345 38.8023V17H161.8V37.4665H171.842V38.8023H160.345Z" stroke="#B225DA" stroke-width="1.2208" stroke-linecap="round" stroke-linejoin="round"/>
<path d="M160.345 38.8023V17H161.8V37.4665H171.842V38.8023H160.345Z" fill="#B225DA"/>
<path d="M195.482 39.1675V26.0718H177.496V39.1675H175.755V13H177.496V24.4975H195.482V13H197.247V39.1675H195.482Z" stroke="#B225DA" stroke-width="1.2208" stroke-linecap="round" stroke-linejoin="round"/>
<path d="M195.482 39.1675V26.0718H177.496V39.1675H175.755V13H177.496V24.4975H195.482V13H197.247V39.1675H195.482Z" fill="#B225DA"/>
<path d="M217.714 36.7032C216.306 38.3491 214.159 39.184 211.297 39.184C208.435 39.184 206.288 38.3491 204.88 36.6793C203.473 35.0096 202.757 32.7196 202.757 29.8333V17H204.212V29.8333C204.212 35.2004 206.574 37.8959 211.297 37.8959C215.996 37.8959 218.358 35.2004 218.358 29.8333V17H219.813V29.8333C219.813 32.7434 219.121 35.0334 217.714 36.7032Z" stroke="#B225DA" stroke-width="1.2208" stroke-linecap="round" stroke-linejoin="round"/>
<path d="M217.714 36.7032C216.306 38.3491 214.159 39.184 211.297 39.184C208.435 39.184 206.288 38.3491 204.88 36.6793C203.473 35.0096 202.757 32.7196 202.757 29.8333V17H204.212V29.8333C204.212 35.2004 206.574 37.8959 211.297 37.8959C215.996 37.8959 218.358 35.2004 218.358 29.8333V17H219.813V29.8333C219.813 32.7434 219.121 35.0334 217.714 36.7032Z" fill="#B225DA"/>
<path d="M225.036 17.1908C226.634 17.0715 228.256 17 229.902 17C231.572 17 233.003 17.4293 234.22 18.2404C235.413 19.0514 236.033 20.2202 236.033 21.7707C236.033 22.9396 235.699 24.013 235.079 25.0148C234.435 26.0167 233.647 26.7562 232.765 27.2571C234.196 27.7103 235.413 28.4975 236.391 29.5947C237.369 30.692 237.869 31.9086 237.869 33.2682C237.869 35.2004 237.249 36.6555 236.033 37.6335C234.84 38.6353 233.17 39.1363 231.071 39.1363C228.972 39.1363 226.944 39.0647 225.036 38.8977V17.1908ZM231.238 37.8243C232.717 37.8243 233.934 37.4188 234.888 36.5839C235.866 35.7729 236.343 34.7233 236.343 33.4352C236.343 32.1471 235.866 31.0498 234.935 30.0957C234.029 29.1654 232.741 28.5213 231.143 28.1874C230.403 28.0204 229.521 27.9488 228.543 27.9488C227.541 27.9488 226.873 27.9488 226.515 27.9488V37.6812C227.398 37.7766 228.972 37.8243 231.238 37.8243ZM234.554 21.723C234.554 20.6257 234.101 19.767 233.17 19.1468C232.24 18.5266 231.214 18.2404 230.069 18.2404C228.9 18.2404 227.732 18.2642 226.515 18.3596V26.6846C226.777 26.6846 227.278 26.6846 227.994 26.6846C228.733 26.6846 229.807 26.7562 231.238 26.8754C232.145 26.3745 232.932 25.6827 233.576 24.7524C234.244 23.846 234.554 22.8441 234.554 21.723Z" stroke="#B225DA" stroke-width="1.2208" stroke-linecap="round" stroke-linejoin="round"/>
<path d="M225.036 17.1908C226.634 17.0715 228.256 17 229.902 17C231.572 17 233.003 17.4293 234.22 18.2404C235.413 19.0514 236.033 20.2202 236.033 21.7707C236.033 22.9396 235.699 24.013 235.079 25.0148C234.435 26.0167 233.647 26.7562 232.765 27.2571C234.196 27.7103 235.413 28.4975 236.391 29.5948C237.369 30.692 237.869 31.9086 237.869 33.2682C237.869 35.2004 237.249 36.6555 236.033 37.6335C234.84 38.6353 233.17 39.1362 231.071 39.1362C228.972 39.1362 226.944 39.0647 225.036 38.8977V17.1908ZM231.238 37.8243C232.717 37.8243 233.934 37.4188 234.888 36.5839C235.866 35.7729 236.343 34.7233 236.343 33.4352C236.343 32.1471 235.866 31.0498 234.935 30.0957C234.029 29.1654 232.741 28.5213 231.143 28.1874C230.403 28.0204 229.521 27.9488 228.543 27.9488C227.541 27.9488 226.873 27.9488 226.515 27.9488V37.6812C227.398 37.7766 228.972 37.8243 231.238 37.8243ZM234.554 21.723C234.554 20.6257 234.101 19.767 233.17 19.1468C232.24 18.5266 231.214 18.2404 230.069 18.2404C228.9 18.2404 227.732 18.2642 226.515 18.3596V26.6846C226.777 26.6846 227.278 26.6846 227.994 26.6846C228.733 26.6846 229.807 26.7562 231.238 26.8754C232.145 26.3745 232.932 25.6827 233.576 24.7524C234.244 23.846 234.554 22.8441 234.554 21.723Z" fill="#B225DA"/>
</g>
<defs>
<clipPath id="clip0_2814_10058">
<rect width="244" height="53" fill="white"/>
</clipPath>
</defs>
</svg>
