<svg width="16" height="19" viewBox="0 0 16 19" fill="none" xmlns="http://www.w3.org/2000/svg">
<path d="M2.69666 13.4698L8 18.7731L13.3033 13.4698C14.3522 12.4209 15.0665 11.0845 15.3559 9.62965C15.6453 8.17479 15.4967 6.6668 14.9291 5.29636C14.3614 3.92592 13.4001 2.75458 12.1668 1.93048C10.9334 1.10637 9.48335 0.666504 8 0.666504C6.51664 0.666504 5.0666 1.10637 3.83323 1.93048C2.59986 2.75458 1.63857 3.92592 1.07091 5.29636C0.503247 6.6668 0.354716 8.17479 0.644098 9.62965C0.93348 11.0845 1.64778 12.4209 2.69666 13.4698ZM8 11.4998C7.11594 11.4998 6.26809 11.1486 5.64297 10.5235C5.01785 9.89834 4.66666 9.0505 4.66666 8.16644C4.66666 7.28238 5.01785 6.43454 5.64297 5.80942C6.26809 5.1843 7.11594 4.83311 8 4.83311C8.88405 4.83311 9.7319 5.1843 10.357 5.80942C10.9821 6.43454 11.3333 7.28238 11.3333 8.16644C11.3333 9.0505 10.9821 9.89834 10.357 10.5235C9.7319 11.1486 8.88405 11.4998 8 11.4998ZM8 9.83311C8.44202 9.83311 8.86595 9.65751 9.17851 9.34495C9.49107 9.03239 9.66666 8.60847 9.66666 8.16644C9.66666 7.72441 9.49107 7.30049 9.17851 6.98793C8.86595 6.67537 8.44202 6.49977 8 6.49977C7.55797 6.49977 7.13405 6.67537 6.82148 6.98793C6.50892 7.30049 6.33333 7.72441 6.33333 8.16644C6.33333 8.60847 6.50892 9.03239 6.82148 9.34495C7.13405 9.65751 7.55797 9.83311 8 9.83311Z" fill="#4B5563"/>
</svg>
