<svg width="20" height="20" viewBox="0 0 20 20" fill="none" xmlns="http://www.w3.org/2000/svg">
<g clip-path="url(#clip0_214_35113)">
<path d="M4.69666 14.47L10 19.7734L15.3033 14.47C16.3522 13.4211 17.0665 12.0847 17.3559 10.6299C17.6453 9.17504 17.4967 7.66704 16.9291 6.2966C16.3614 4.92616 15.4001 3.75483 14.1668 2.93072C12.9334 2.10661 11.4834 1.66675 10 1.66675C8.51664 1.66675 7.0666 2.10661 5.83323 2.93072C4.59986 3.75483 3.63857 4.92616 3.07091 6.2966C2.50325 7.66704 2.35472 9.17504 2.6441 10.6299C2.93348 12.0847 3.64778 13.4211 4.69666 14.47ZM10 12.5C9.11594 12.5 8.26809 12.1488 7.64297 11.5237C7.01785 10.8986 6.66666 10.0507 6.66666 9.16668C6.66666 8.28263 7.01785 7.43478 7.64297 6.80966C8.26809 6.18454 9.11594 5.83335 10 5.83335C10.8841 5.83335 11.7319 6.18454 12.357 6.80966C12.9821 7.43478 13.3333 8.28263 13.3333 9.16668C13.3333 10.0507 12.9821 10.8986 12.357 11.5237C11.7319 12.1488 10.8841 12.5 10 12.5ZM10 10.8334C10.442 10.8334 10.8659 10.6578 11.1785 10.3452C11.4911 10.0326 11.6667 9.60871 11.6667 9.16668C11.6667 8.72466 11.4911 8.30073 11.1785 7.98817C10.8659 7.67561 10.442 7.50002 10 7.50002C9.55797 7.50002 9.13405 7.67561 8.82148 7.98817C8.50892 8.30073 8.33333 8.72466 8.33333 9.16668C8.33333 9.60871 8.50892 10.0326 8.82148 10.3452C9.13405 10.6578 9.55797 10.8334 10 10.8334Z" fill="#4B5563"/>
</g>
<defs>
<clipPath id="clip0_214_35113">
<rect width="20" height="20" fill="white" transform="matrix(-1 0 0 1 20 0)"/>
</clipPath>
</defs>
</svg>
