<svg width="42" height="32" viewBox="0 0 42 32" fill="none" xmlns="http://www.w3.org/2000/svg">
<g clip-path="url(#clip0_1186_55308)">
<path d="M41.1734 30.8948V30.9788H41.2517C41.2664 30.9791 41.2809 30.9754 41.2937 30.9681C41.2988 30.9645 41.303 30.9597 41.3057 30.9541C41.3085 30.9485 41.3098 30.9423 41.3095 30.936C41.3098 30.9299 41.3084 30.9238 41.3057 30.9183C41.3029 30.9128 41.2988 30.9082 41.2937 30.9047C41.2811 30.8971 41.2665 30.8934 41.2517 30.894H41.1734V30.8948ZM41.2526 30.8354C41.2862 30.8334 41.3194 30.843 41.3467 30.8627C41.3576 30.8717 41.3663 30.8831 41.372 30.896C41.3777 30.9089 41.3803 30.9229 41.3796 30.9371C41.3801 30.9492 41.378 30.9613 41.3735 30.9726C41.3689 30.9838 41.362 30.994 41.3532 31.0024C41.3321 31.0206 41.3058 31.0316 41.278 31.0337L41.383 31.1534H41.3021L41.2055 31.0345H41.1743V31.1534H41.1066V30.8356H41.2536L41.2526 30.8354ZM41.2316 31.263C41.267 31.2633 41.3022 31.2562 41.3347 31.242C41.366 31.2285 41.3945 31.2092 41.4187 31.1851C41.4429 31.161 41.4622 31.1325 41.4756 31.1011C41.5032 31.0345 41.5032 30.9597 41.4756 30.8932C41.462 30.8619 41.4427 30.8334 41.4187 30.8092C41.3945 30.7851 41.366 30.7658 41.3347 30.7523C41.302 30.7388 41.2669 30.7321 41.2316 30.7325C41.1956 30.7322 41.16 30.7389 41.1266 30.7523C41.0945 30.7655 41.0654 30.7848 41.0407 30.8092C41.0035 30.8473 40.9784 30.8955 40.9685 30.9477C40.9585 31 40.9641 31.0541 40.9846 31.1032C40.9974 31.1347 41.0165 31.1633 41.0407 31.1872C41.0654 31.2115 41.0946 31.2308 41.1266 31.2441C41.1598 31.2582 41.1955 31.2654 41.2316 31.2651V31.263ZM41.2316 30.6561C41.3239 30.656 41.4125 30.6922 41.4783 30.7569C41.5101 30.7879 41.5353 30.825 41.5527 30.8659C41.5706 30.9078 41.5799 30.953 41.5799 30.9987C41.5799 31.0443 41.5706 31.0895 41.5527 31.1315C41.5349 31.1722 41.5097 31.2091 41.4783 31.2405C41.4461 31.2714 41.4086 31.2963 41.3677 31.314C41.3246 31.3323 41.2783 31.3416 41.2316 31.3413C41.1843 31.3416 41.1374 31.3324 41.0938 31.314C41.0524 31.2967 41.0145 31.2718 40.9823 31.2405C40.9509 31.208 40.9261 31.1698 40.909 31.1279C40.8911 31.086 40.8818 31.0408 40.8818 30.9951C40.8818 30.9495 40.8911 30.9043 40.909 30.8623C40.9264 30.8214 40.9516 30.7844 40.9834 30.7533C41.0152 30.7215 41.0531 30.6965 41.0949 30.6798C41.1385 30.6615 41.1853 30.6522 41.2326 30.6525L41.2316 30.6561ZM9.07638 29.429C9.07638 28.8232 9.47328 28.3255 10.122 28.3255C10.7419 28.3255 11.1602 28.8018 11.1602 29.429C11.1602 30.0563 10.7419 30.5326 10.122 30.5326C9.47328 30.5326 9.07638 30.0349 9.07638 29.429ZM11.8669 29.429V27.7049H11.1174V28.1249C10.8797 27.8146 10.5191 27.6199 10.0287 27.6199C9.06273 27.6199 8.30463 28.3776 8.30463 29.4299C8.30463 30.4822 9.06231 31.2399 10.0287 31.2399C10.5189 31.2399 10.8797 31.045 11.1174 30.7348V31.1534H11.866V29.429H11.8669ZM37.1912 29.429C37.1912 28.8232 37.5881 28.3255 38.237 28.3255C38.8575 28.3255 39.2752 28.8018 39.2752 29.429C39.2752 30.0563 38.8575 30.5326 38.237 30.5326C37.5883 30.5326 37.1912 30.0349 37.1912 29.429ZM39.9825 29.429V26.321H39.2324V28.1249C38.9947 27.8146 38.6341 27.6199 38.1437 27.6199C37.1777 27.6199 36.4196 28.3776 36.4196 29.4299C36.4196 30.4822 37.1773 31.2399 38.1437 31.2399C38.6341 31.2399 38.9947 31.045 39.2324 30.7348V31.1534H39.9825V29.429ZM21.169 28.29C21.652 28.29 21.9622 28.5928 22.0414 29.126H20.253C20.333 28.6283 20.6352 28.29 21.1692 28.29H21.169ZM21.1841 27.618C20.174 27.618 19.4674 28.353 19.4674 29.428C19.4674 30.524 20.2024 31.238 21.2343 31.238C21.7535 31.238 22.2289 31.1084 22.6472 30.755L22.2799 30.1995C21.991 30.4305 21.623 30.5601 21.2772 30.5601C20.7942 30.5601 20.3544 30.3365 20.2463 29.7159H22.8056C22.8129 29.6227 22.8205 29.5286 22.8205 29.4278C22.8129 28.3532 22.1485 27.6178 21.1837 27.6178L21.1841 27.618ZM30.2326 29.4278C30.2326 28.8219 30.6295 28.3242 31.2782 28.3242C31.8981 28.3242 32.3165 28.8005 32.3165 29.4278C32.3165 30.0551 31.8981 30.5313 31.2782 30.5313C30.6295 30.5313 30.2324 30.0336 30.2324 29.4278H30.2326ZM33.0229 29.4278V27.7049H32.2738V28.1249C32.0353 27.8146 31.6755 27.6199 31.1852 27.6199C30.2192 27.6199 29.4611 28.3776 29.4611 29.4299C29.4611 30.4822 30.2188 31.2399 31.1852 31.2399C31.6755 31.2399 32.0353 31.045 32.2738 30.7348V31.1534H33.0231V29.429L33.0229 29.4278ZM26.0001 29.4278C26.0001 30.4734 26.7279 31.2378 27.8388 31.2378C28.358 31.2378 28.7038 31.1223 29.0778 30.8268L28.7179 30.221C28.4365 30.4232 28.141 30.5313 27.8149 30.5313C27.2166 30.524 26.7766 30.0914 26.7766 29.4278C26.7766 28.7642 27.2166 28.3318 27.8149 28.3242C28.1402 28.3242 28.4356 28.4324 28.7179 28.6346L29.0778 28.0288C28.7032 27.7333 28.3573 27.6178 27.8388 27.6178C26.7279 27.6178 26.0001 28.382 26.0001 29.4278ZM35.6622 27.6178C35.2298 27.6178 34.9482 27.82 34.7535 28.1228V27.7049H34.0107V31.1515H34.7611V29.2195C34.7611 28.6491 35.0061 28.3322 35.4961 28.3322C35.6565 28.3299 35.8158 28.3594 35.9648 28.4189L36.1958 27.7125C36.0299 27.6472 35.8136 27.6184 35.6618 27.6184L35.6622 27.6178ZM15.5723 27.979C15.2117 27.7413 14.7149 27.6184 14.1668 27.6184C13.2936 27.6184 12.7314 28.037 12.7314 28.7218C12.7314 29.2837 13.15 29.6304 13.9207 29.7386L14.2747 29.789C14.6857 29.8467 14.8797 29.9549 14.8797 30.1496C14.8797 30.416 14.6067 30.5681 14.0941 30.5681C13.575 30.5681 13.2004 30.4022 12.9477 30.2075L12.5956 30.7919C13.0065 31.0948 13.5257 31.2392 14.0878 31.2392C15.0832 31.2392 15.6601 30.7705 15.6601 30.1143C15.6601 29.5084 15.2061 29.1915 14.456 29.0834L14.1027 29.0321C13.7783 28.9901 13.5183 28.9248 13.5183 28.6938C13.5183 28.4418 13.7634 28.2902 14.1746 28.2902C14.6145 28.2902 15.0404 28.4561 15.2491 28.5857L15.5736 27.9798L15.5723 27.979ZM25.243 27.6191C24.8106 27.6191 24.529 27.8213 24.3352 28.1241V27.7049H23.5924V31.1515H24.3419V29.2195C24.3419 28.6491 24.587 28.3322 25.0769 28.3322C25.2373 28.3299 25.3967 28.3594 25.5456 28.4189L25.7766 27.7125C25.6107 27.6472 25.3944 27.6184 25.2426 27.6184L25.243 27.6191ZM18.8473 27.7049H17.6217V26.6594H16.864V27.7049H16.1649V28.39H16.864V29.9622C16.864 30.7619 17.1744 31.2382 18.061 31.2382C18.3863 31.2382 18.761 31.1374 18.9987 30.9717L18.7822 30.3299C18.5585 30.4595 18.3134 30.5248 18.1186 30.5248C17.7439 30.5248 17.6217 30.2938 17.6217 29.948V28.3906H18.8473V27.7049ZM7.64187 31.1523V28.9893C7.64187 28.1747 7.12275 27.6266 6.2859 27.6193C5.84595 27.6119 5.39214 27.7488 5.07441 28.2325C4.83669 27.8503 4.46205 27.6193 3.93537 27.6193C3.56724 27.6193 3.20751 27.7274 2.9259 28.131V27.7049H2.17578V31.1515H2.93178V29.2405C2.93178 28.6422 3.26358 28.3242 3.77598 28.3242C4.27368 28.3242 4.52547 28.6487 4.52547 29.2329V31.151H5.28315V29.24C5.28315 28.6418 5.62902 28.3238 6.12651 28.3238C6.63828 28.3238 6.88251 28.6483 6.88251 29.2325V31.1506L7.64187 31.1523Z" fill="#231F20"/>
<path d="M41.5997 20.6876V20.1836H41.4685L41.3167 20.5295L41.1657 20.1836H41.034V20.6876H41.1272V20.3079L41.2692 20.6355H41.3658L41.5078 20.3071V20.6876H41.6002H41.5997ZM40.7671 20.6876V20.2699H40.9351V20.1849H40.5059V20.2699H40.6739V20.6876H40.7663H40.7671Z" fill="#F79410"/>
<path d="M26.6823 22.849H15.3242V2.43701H26.6825L26.6823 22.849Z" fill="#FF5F00"/>
<path d="M16.044 12.6434C16.044 8.50288 17.9827 4.81444 21.0017 2.43745C18.7165 0.635538 15.89 -0.342421 12.9799 -0.338121C5.81112 -0.338121 0 5.47384 0 12.6434C0 19.8131 5.81112 25.625 12.9799 25.625C15.8901 25.6294 18.7166 24.6514 21.0019 22.8495C17.9831 20.4729 16.044 16.7842 16.044 12.6434Z" fill="#EB001B"/>
<path d="M42.0049 12.6434C42.0049 19.8131 36.1938 25.625 29.025 25.625C26.1145 25.6293 23.2876 24.6514 21.002 22.8495C24.0218 20.4725 25.9605 16.7842 25.9605 12.6434C25.9605 8.50267 24.0218 4.81444 21.002 2.43745C23.2876 0.635592 26.1143 -0.342345 29.0248 -0.338121C36.1936 -0.338121 42.0047 5.47384 42.0047 12.6434" fill="#F79E1B"/>
</g>
<defs>
<clipPath id="clip0_1186_55308">
<rect width="42" height="32" fill="white"/>
</clipPath>
</defs>
</svg>
