<svg viewBox="0 0 48 48" xmlns="http://www.w3.org/2000/svg"><g fill="none" stroke="#000" stroke-linecap="round" stroke-linejoin="round"><path d="m23.8924 17.0288h-10.2585l5.184-9.0173h10.2585z"/><path d="m23.2951 26.0461h5.7813l-5.184-9.0173h-10.2585l2.8314 4.9251"/><path d="m29.0764 26.0461 5.1841-9.0173-5.1841-9.0173"/><path d="m15.7585 30.9712h-10.2585l5.184-9.0173h10.2586z"/><path d="m15.7585 30.9712h-10.2585l5.184 9.0173h10.2586z"/><path d="m24 27.2722-3.0574-5.3183"/><path d="m20.9426 39.9885 3.0574-5.3182"/><path d="m31.429 21.9539h5.887l-5.1841 9.0173h-10.2585l2.8315-4.9251"/><path d="m32.1319 30.9712h-10.2585l5.184 9.0173h10.2586z"/><path d="m37.316 39.9885 5.184-9.0173-5.184-9.0173"/></g></svg>