<svg width="16" height="20" viewBox="0 0 16 20" fill="none" xmlns="http://www.w3.org/2000/svg">
<path d="M15.5545 7.48797C15.6755 8.05097 15.6605 8.73397 15.5145 9.53897C14.9325 12.517 13.0375 14.005 9.83148 14.005H9.38948C9.22148 14.005 9.07548 14.061 8.94548 14.171C8.81948 14.281 8.73748 14.424 8.70648 14.598L8.66548 14.787L8.11248 18.266L8.09148 18.417C8.05848 18.592 7.97648 18.733 7.84448 18.843C7.71448 18.954 7.56648 19.009 7.39748 19.009H4.87448C4.73248 19.009 4.62248 18.96 4.54348 18.859C4.46348 18.757 4.43348 18.638 4.45348 18.496C4.51448 18.123 4.60148 17.558 4.72048 16.807C4.83748 16.057 4.92648 15.493 4.98748 15.118C5.04848 14.743 5.13748 14.18 5.25948 13.433C5.38048 12.685 5.47148 12.123 5.53048 11.748C5.56348 11.5 5.70948 11.377 5.96348 11.377H7.27948C8.17248 11.39 8.96148 11.32 9.65448 11.166C10.8265 10.904 11.7885 10.422 12.5405 9.71697C13.2255 9.07997 13.7435 8.25497 14.1005 7.24397C14.2625 6.77397 14.3775 6.32697 14.4525 5.90597C14.4585 5.86497 14.4665 5.83997 14.4775 5.83197C14.4855 5.82097 14.4995 5.81797 14.5125 5.82097C14.5245 5.82497 14.5445 5.83697 14.5745 5.85597C15.0985 6.25397 15.4285 6.79697 15.5545 7.48797ZM13.8265 4.65197C13.8265 5.36897 13.6725 6.15997 13.3615 7.02597C12.8245 8.58797 11.8145 9.64397 10.3245 10.194C9.56648 10.463 8.72248 10.602 7.78948 10.619C7.78948 10.625 7.48848 10.626 6.88548 10.626L5.98248 10.619C5.31048 10.619 4.91548 10.939 4.79548 11.583C4.78248 11.636 4.49748 13.413 3.94048 16.912C3.93248 16.978 3.89248 17.014 3.81948 17.014H0.854476C0.706476 17.014 0.583476 16.959 0.485476 16.849C0.387476 16.737 0.350476 16.608 0.370476 16.459L2.70248 1.66397C2.73448 1.46897 2.82748 1.30997 2.97848 1.18097C3.12948 1.05397 3.30348 0.990967 3.49748 0.990967H9.51148C9.73948 0.990967 10.0665 1.03497 10.4905 1.12197C10.9185 1.20597 11.2915 1.31597 11.6135 1.44297C12.3315 1.71697 12.8795 2.13097 13.2585 2.67997C13.6375 3.23197 13.8265 3.88697 13.8265 4.65197Z" fill="#1C6DD0"/>
</svg>
