<svg width="22" height="29" viewBox="0 0 22 29" fill="none" xmlns="http://www.w3.org/2000/svg">
<path d="M19.4571 0.732422H1.84066C1.24907 0.732422 0.745117 1.4114 0.745117 2.23797V4.92434C0.745117 5.75092 1.24907 6.42989 1.84066 6.42989H19.4571C20.0706 6.42989 20.5526 5.75092 20.5745 4.92434V2.26749C20.5745 1.41139 20.0706 0.732422 19.4571 0.732422V0.732422ZM19.4571 15.6403H1.84066C1.55582 15.6403 1.27098 15.7879 1.07378 16.0831C0.854672 16.3783 0.745117 16.7326 0.745117 17.1459V19.8322C0.745117 20.6588 1.24907 21.3378 1.84066 21.3378H19.4571C20.0706 21.3378 20.5526 20.6883 20.5745 19.8322V17.1459C20.5526 16.2898 20.0706 15.6403 19.4571 15.6403V15.6403ZM11.7663 23.0795H1.84066C1.55582 23.0795 1.27098 23.2271 1.07378 23.5223C0.876583 23.8175 0.745117 24.1718 0.745117 24.585V27.2714C0.745117 28.098 1.24907 28.777 1.84066 28.777H11.7444C12.3579 28.777 12.84 28.098 12.84 27.3009V24.6146C12.8619 23.7289 12.3798 23.05 11.7663 23.0795V23.0795ZM20.5745 8.1716H1.84066C1.55582 8.1716 1.27098 8.31921 1.07378 8.61441C0.876583 8.90962 0.745117 9.26387 0.745117 9.67716V12.3635C0.745117 13.1901 1.24907 13.8691 1.84066 13.8691H20.5526C21.1661 13.8691 21.6482 13.1901 21.6482 12.3635V9.67716C21.6701 8.85058 21.1661 8.20113 20.5745 8.1716V8.1716Z" fill="#00C3F7"/>
</svg>
