<svg width="20" height="20" viewBox="0 0 20 20" fill="none" xmlns="http://www.w3.org/2000/svg">
<path d="M19.0964 7.41256C19.0387 7.24274 18.9326 7.09353 18.7911 6.98335C18.6496 6.87316 18.479 6.80681 18.3002 6.79251L13.0711 6.377L10.8083 1.36798C10.7362 1.20665 10.619 1.06963 10.4708 0.973442C10.3225 0.877257 10.1496 0.826025 9.97296 0.825928C9.79626 0.825831 9.62332 0.876874 9.47499 0.972896C9.32666 1.06892 9.2093 1.20582 9.13706 1.36707L6.87424 6.377L1.64509 6.79251C1.4694 6.80642 1.30144 6.87066 1.1613 6.97754C1.02116 7.08442 0.914781 7.2294 0.854886 7.39516C0.794991 7.56091 0.784117 7.74041 0.823564 7.91218C0.863012 8.08395 0.951111 8.24072 1.07732 8.36373L4.94163 12.1308L3.57495 18.0488C3.53345 18.2279 3.54675 18.4154 3.61313 18.5869C3.6795 18.7584 3.79588 18.9059 3.94717 19.0105C4.09845 19.115 4.27766 19.1716 4.46153 19.173C4.64541 19.1744 4.82546 19.1205 4.97832 19.0183L9.97266 15.6888L14.967 19.0183C15.1232 19.1221 15.3075 19.1755 15.495 19.1713C15.6825 19.1672 15.8642 19.1058 16.0158 18.9953C16.1673 18.8848 16.2814 18.7306 16.3426 18.5533C16.4039 18.3761 16.4094 18.1843 16.3584 18.0039L14.6808 12.1336L18.8414 8.38941C19.1138 8.14359 19.2138 7.76019 19.0964 7.41256Z" fill="#EAC608"/>
</svg>
