<svg width="74" height="32" viewBox="0 0 74 32" fill="none" xmlns="http://www.w3.org/2000/svg">
<g clip-path="url(#clip0_1186_55307)">
<path d="M33.2411 26.0464H28.1136L31.3182 6.35191H36.4463L33.2411 26.0464ZM23.8001 6.35191L18.9117 19.8979L18.3333 16.9809L18.3338 16.982L16.6085 8.12518C16.6085 8.12518 16.3999 6.35191 14.1762 6.35191H6.09483L6 6.68539C6 6.68539 8.47129 7.19956 11.3635 8.93647L15.8183 26.0469H21.1607L29.3185 6.35191H23.8001ZM64.1304 26.0464H68.8386L64.7337 6.35139H60.6118C58.7085 6.35139 58.2449 7.81909 58.2449 7.81909L50.5976 26.0464H55.9427L57.0116 23.121H63.5299L64.1304 26.0464ZM58.4883 19.0798L61.1824 11.7096L62.698 19.0798H58.4883ZM50.9985 11.088L51.7303 6.85871C51.7303 6.85871 49.4723 6 47.1185 6C44.574 6 38.5314 7.11211 38.5314 12.5199C38.5314 17.6079 45.6234 17.6711 45.6234 20.3436C45.6234 23.0162 39.2621 22.5373 37.1627 20.852L36.4004 25.2741C36.4004 25.2741 38.69 26.3862 42.188 26.3862C45.6871 26.3862 50.9658 24.5745 50.9658 19.6435C50.9658 14.5228 43.8101 14.0461 43.8101 11.8197C43.8106 9.59288 48.8043 9.87894 50.9985 11.088Z" fill="#2566AF"/>
<path d="M17.9158 16.5141L16.1905 7.65729C16.1905 7.65729 15.9819 5.88403 13.7582 5.88403H5.67686L5.58203 6.21751C5.58203 6.21751 9.46624 7.02248 13.1919 10.0385C16.7542 12.9212 17.9158 16.5141 17.9158 16.5141Z" fill="#E6A540"/>
</g>
<defs>
<clipPath id="clip0_1186_55307">
<rect width="74" height="32" fill="white"/>
</clipPath>
</defs>
</svg>
