<svg width="20" height="20" viewBox="0 0 20 20" fill="none" xmlns="http://www.w3.org/2000/svg">
<g id="Group">
<path id="Vector" d="M1.67034 18.3334L2.797 14.1934C2.05462 12.9207 1.66458 11.4733 1.667 10C1.667 5.39752 5.39784 1.66669 10.0003 1.66669C14.6028 1.66669 18.3337 5.39752 18.3337 10C18.3337 14.6025 14.6028 18.3334 10.0003 18.3334C8.52765 18.3357 7.08088 17.946 5.80867 17.2042L1.67034 18.3334ZM6.99284 6.09002C6.88522 6.0967 6.78007 6.12505 6.68367 6.17335C6.59327 6.22455 6.51075 6.28854 6.43867 6.36335C6.33867 6.45752 6.282 6.53919 6.22117 6.61835C5.91318 7.01918 5.74751 7.5112 5.75034 8.01669C5.752 8.42502 5.85867 8.82252 6.02534 9.19419C6.36617 9.94585 6.927 10.7417 7.66784 11.4792C7.84617 11.6567 8.02034 11.835 8.20784 12.0009C9.12733 12.8104 10.223 13.3942 11.4078 13.7059L11.882 13.7784C12.0362 13.7867 12.1903 13.775 12.3453 13.7675C12.588 13.755 12.825 13.6893 13.0395 13.575C13.1778 13.5017 13.2428 13.465 13.3587 13.3917C13.3587 13.3917 13.3945 13.3684 13.4628 13.3167C13.5753 13.2334 13.6445 13.1742 13.7378 13.0767C13.807 13.005 13.867 12.9209 13.9128 12.825C13.9778 12.6892 14.0428 12.43 14.0695 12.2142C14.0895 12.0492 14.0837 11.9592 14.0812 11.9034C14.0778 11.8142 14.0037 11.7217 13.9228 11.6825L13.4378 11.465C13.4378 11.465 12.7128 11.1492 12.2703 10.9475C12.2237 10.9272 12.1737 10.9156 12.1228 10.9134C12.0658 10.9075 12.0082 10.9139 11.9539 10.9322C11.8995 10.9504 11.8498 10.9801 11.8078 11.0192V11.0175C11.8037 11.0175 11.7478 11.065 11.1453 11.795C11.1108 11.8415 11.0631 11.8766 11.0085 11.8959C10.9539 11.9152 10.8948 11.9178 10.8387 11.9034C10.7844 11.8888 10.7312 11.8705 10.6795 11.8484C10.5762 11.805 10.5403 11.7884 10.4695 11.7575L10.4653 11.7559C9.9886 11.5477 9.54719 11.2666 9.157 10.9225C9.052 10.8309 8.9545 10.7309 8.8545 10.6342C8.52665 10.3202 8.24093 9.96503 8.0045 9.57752L7.95534 9.49835C7.92002 9.44516 7.89147 9.38777 7.87034 9.32752C7.83867 9.20502 7.92117 9.10669 7.92117 9.10669C7.92117 9.10669 8.12367 8.88502 8.21784 8.76502C8.29625 8.66529 8.3694 8.56154 8.437 8.45419C8.53534 8.29585 8.56617 8.13335 8.5145 8.00752C8.28117 7.43752 8.0395 6.87002 7.79117 6.30669C7.742 6.19502 7.59617 6.11502 7.46367 6.09919C7.41867 6.09419 7.37367 6.08919 7.32867 6.08585C7.21676 6.08029 7.10462 6.08141 6.99284 6.08919V6.09002Z" fill="#4B5563"/>
</g>
</svg>
