<svg width="76" height="103" viewBox="0 0 76 103" fill="none" xmlns="http://www.w3.org/2000/svg">
<path d="M11.974 46.1159C11.043 45.8499 9.713 45.1849 8.383 44.6529C5.989 43.4559 3.329 42.2589 1.6 41.7269C3.728 47.4459 11.043 56.4899 19.422 64.3369C27.402 71.9179 36.313 78.3019 42.165 79.6319C45.091 80.1639 47.884 80.0309 50.411 79.0999C54.933 77.5039 58.79 73.7799 61.849 69.1249C64.908 64.4699 67.036 58.7509 68.233 53.1649C69.696 46.6479 69.696 40.3969 68.366 35.8749C67.568 36.2739 66.903 36.8059 65.972 37.4709C63.711 39.1999 60.12 41.9929 51.342 45.1849C44.559 47.7119 38.175 49.0419 31.658 49.3079C25.274 49.5739 18.89 48.5099 11.974 46.1159ZM8.649 44.1209C9.979 44.6529 11.176 45.1849 12.107 45.5839C19.023 47.9779 25.274 48.9089 31.658 48.7759C38.042 48.5099 44.426 47.0469 51.209 44.6529C59.854 41.4609 63.312 38.8009 65.706 37.0719C66.637 36.2739 67.435 35.6089 68.366 35.2099L68.632 35.0769L68.765 35.4759C70.361 39.9979 70.228 46.5149 68.898 53.1649C67.568 58.8839 65.44 64.7359 62.381 69.5239C59.189 74.3119 55.332 78.0359 50.677 79.6319C48.017 80.5629 45.091 80.8289 42.032 80.1639C36.047 78.8339 27.136 72.3169 19.023 64.7359C10.378 56.6229 2.797 47.1799 0.935002 41.3279L0.802002 40.9289L1.201 41.0619C2.93 41.4609 5.989 42.7909 8.649 44.1209Z" fill="black"/>
<path d="M44.426 80.1639L44.825 87.0799C44.958 88.5429 45.623 92.7989 46.421 96.5229C46.82 98.7839 47.352 100.646 47.751 101.577C50.012 101.843 53.736 101.045 57.46 99.7149C61.982 97.9859 66.504 95.7249 68.898 93.7299C66.903 88.8089 63.844 84.6859 60.785 80.5629C59.588 78.8339 58.258 77.1049 57.061 75.2429L57.593 74.9769C58.79 76.7059 59.987 78.4349 61.317 80.1639C64.376 84.4199 67.568 88.6759 69.563 93.7299L69.696 93.9959L69.43 94.1289C67.036 95.9909 62.381 98.5179 57.726 100.247C53.736 101.71 49.879 102.508 47.485 102.109H47.352L47.219 101.976C46.82 101.178 46.288 99.0499 45.756 96.5229C45.091 92.9319 44.426 88.5429 44.293 87.0799L43.761 80.1639H44.426Z" fill="black"/>
<path d="M23.0131 37.072C23.0131 37.072 31.3921 40.53 36.0471 48.51L35.5151 48.909C30.9931 41.062 22.7471 37.604 22.7471 37.604L23.0131 37.072Z" fill="black"/>
<path d="M33.6531 30.422C33.6531 30.422 35.2491 32.55 36.9781 35.875L36.5791 36.141C34.7171 32.816 33.1211 30.821 33.1211 30.821L33.6531 30.422ZM40.1701 42.658C40.4361 43.456 40.7021 44.387 40.9681 45.185C41.1011 46.116 41.3671 46.914 41.5001 47.845H40.8351C40.7021 47.047 40.5691 46.116 40.4361 45.318C40.1701 44.52 39.9041 43.722 39.6381 42.791L40.1701 42.658Z" fill="black"/>
<path d="M20.087 23.24C19.289 21.511 19.023 20.181 18.89 18.984C18.89 17.787 19.156 16.723 19.821 16.058C20.353 15.26 21.284 14.728 22.481 14.595C23.811 14.329 25.274 14.462 27.136 14.861C27.269 14.861 27.402 14.861 27.535 14.861C27.668 14.994 27.668 14.994 27.668 14.994C27.668 14.994 27.668 14.994 27.801 14.861C27.934 14.861 28.067 14.728 28.2 14.728C28.732 14.462 29.796 13.93 30.993 13.664C32.057 13.531 33.254 13.398 34.052 14.063C35.116 14.728 36.18 15.659 36.579 17.122C37.111 18.452 36.845 20.181 35.249 22.309C35.116 22.442 34.983 22.575 34.983 22.575C34.85 22.708 34.85 22.575 34.85 22.708C34.85 22.708 34.85 22.575 34.983 22.708C34.983 22.708 34.983 22.841 35.116 23.107C35.515 23.639 36.047 24.836 36.047 26.033C36.18 27.23 35.914 28.693 34.584 29.757C32.988 31.087 31.525 31.619 30.062 31.353C28.732 31.22 27.535 30.555 26.471 29.491C26.471 29.491 26.338 29.491 26.338 29.624C24.343 32.018 22.215 32.683 20.619 32.417C19.821 32.284 19.289 31.885 18.757 31.486C18.225 30.954 17.959 30.289 17.693 29.624C17.294 27.895 17.959 25.767 19.954 23.905C20.087 23.905 20.087 23.772 20.22 23.772C20.22 23.639 20.353 23.639 20.353 23.639C20.353 23.639 20.353 23.639 20.22 23.506C20.22 23.506 20.087 23.373 20.087 23.24ZM19.555 18.851C19.555 20.048 19.954 21.378 20.619 22.974C20.619 23.107 20.752 23.24 20.752 23.24C20.885 23.506 20.885 23.639 20.885 23.772C20.885 23.905 20.752 24.038 20.619 24.171C20.486 24.304 20.486 24.304 20.353 24.437C18.491 26.033 17.959 28.028 18.358 29.491C18.491 30.023 18.757 30.555 19.156 31.087C19.555 31.486 20.087 31.752 20.752 31.885C22.082 32.018 24.077 31.353 25.939 29.092H26.072C26.072 29.092 26.072 29.092 26.205 28.959C26.471 28.826 26.471 28.826 26.737 29.092C27.801 30.023 28.998 30.688 30.195 30.821C31.392 30.954 32.722 30.555 34.185 29.358C35.382 28.294 35.648 27.097 35.515 26.033C35.382 24.969 34.983 23.905 34.584 23.373C34.584 23.24 34.451 23.107 34.451 22.974C34.318 22.841 34.318 22.708 34.318 22.575C34.318 22.442 34.318 22.442 34.451 22.309C34.584 22.176 34.584 22.043 34.717 21.91C36.18 20.048 36.446 18.452 36.047 17.255C35.648 16.058 34.717 15.127 33.786 14.462C33.121 14.063 32.057 14.063 30.993 14.329C30.062 14.462 28.998 14.994 28.466 15.26C28.2 15.26 28.2 15.393 28.067 15.393C27.934 15.526 27.801 15.526 27.801 15.526C27.668 15.526 27.535 15.526 27.402 15.526C27.269 15.526 27.136 15.393 27.003 15.393C25.274 14.994 23.811 14.861 22.614 15.127C21.55 15.26 20.752 15.792 20.22 16.324C19.688 16.989 19.422 17.92 19.555 18.851Z" fill="black"/>
<path d="M19.0231 25.368C19.1561 25.501 19.2891 25.634 19.1561 25.767C19.0231 25.9 18.8901 25.9 18.7571 25.9C17.8261 25.235 16.7621 24.969 15.6981 25.102C15.1661 25.102 14.6341 25.235 14.1021 25.501C13.7031 25.767 13.1711 26.166 12.9051 26.565C12.3731 27.363 11.9741 28.294 12.1071 29.624C12.1071 29.757 11.9741 30.023 11.8411 30.023C11.8411 30.023 11.8411 30.023 11.7081 30.023C11.5751 29.89 7.71805 28.959 6.12205 33.082C5.45705 35.077 6.12205 36.274 7.05305 37.072C7.98405 37.87 9.31405 38.136 9.71305 38.269C10.1121 38.402 10.1121 38.801 9.97905 39.333C9.71305 40.131 9.44705 41.328 9.71305 42.658C9.84605 43.589 10.9101 44.387 12.2401 44.786C12.7721 44.919 13.4371 45.052 13.9691 44.919C14.5011 44.919 15.0331 44.653 15.5651 44.387C16.4961 43.722 17.2941 42.259 17.0281 39.865C17.0281 39.732 17.1611 39.599 17.2941 39.599C17.4271 39.599 17.4271 39.599 17.4271 39.599C19.1561 39.998 20.4861 39.732 21.4171 39.067C21.9491 38.668 22.3481 38.136 22.614 37.471C22.8801 36.939 23.0131 36.274 22.8801 35.476C22.8801 34.279 22.2151 33.215 21.1511 32.417C21.0181 32.284 21.0181 32.151 21.0181 32.018C21.1511 31.885 21.284 31.885 21.4171 31.885C22.7471 32.816 23.4121 34.146 23.5451 35.476C23.5451 36.274 23.4121 37.072 23.1461 37.737C22.8801 38.402 22.3481 39.067 21.6831 39.599C20.7521 40.264 19.4221 40.53 17.6931 40.131C17.6931 42.658 17.0281 44.121 15.8311 44.919C15.2991 45.318 14.6341 45.451 13.9691 45.451C13.3041 45.584 12.6391 45.451 12.1071 45.318C10.6441 44.919 9.31405 43.855 9.18105 42.658C8.91505 41.328 9.18105 39.998 9.31405 39.2C9.44705 38.934 9.84605 38.934 9.58005 38.934C9.04805 38.801 7.71805 38.402 6.65405 37.471C5.59005 36.54 4.79205 35.077 5.59005 32.949C7.05305 28.959 10.3781 29.092 11.5751 29.358C11.4421 28.028 11.8411 26.964 12.3731 26.299C12.7721 25.634 13.3041 25.235 13.8361 24.969C14.5011 24.703 15.0331 24.57 15.6981 24.437C16.8951 24.437 18.0921 24.703 19.0231 25.368Z" fill="black"/>
<path d="M29.264 41.594C28.333 41.727 25.806 42.658 23.811 43.855C22.614 44.52 21.683 45.318 21.151 46.116C22.481 46.781 29.264 49.707 33.919 45.717L34.318 46.116C28.732 50.904 20.619 46.515 20.619 46.515L20.353 46.382L20.486 46.116C20.885 45.052 22.082 44.121 23.545 43.323C25.54 42.126 28.2 41.195 29.131 40.929L29.264 41.594Z" fill="black"/>
<path d="M36.1801 48.51C37.3771 46.914 39.6381 43.589 40.4361 40.131C40.9681 38.136 40.9681 36.008 39.9041 34.279C38.5741 34.944 32.4561 38.269 32.9881 44.52H32.4561C31.7911 37.205 39.7711 33.614 39.9041 33.614L40.0371 33.481L40.1701 33.747C41.5001 35.609 41.5001 38.003 40.9681 40.264C40.1701 43.855 37.9091 47.313 36.7121 48.776L36.1801 48.51Z" fill="black"/>
<path d="M56.2629 33.082C56.2629 33.082 52.6719 35.21 52.1399 44.653H51.6079C52.1399 34.944 55.9969 32.683 55.9969 32.683L56.2629 33.082Z" fill="black"/>
<path d="M46.5539 23.5059C46.5539 23.5059 42.4309 35.4759 44.6919 47.0469L44.1599 47.1799C41.8989 35.4759 46.0219 23.3729 46.0219 23.3729L46.5539 23.5059Z" fill="black"/>
<path d="M57.0609 9.40796C57.1939 7.41296 56.9279 5.81696 56.5289 4.48696C56.1299 3.28996 55.4649 2.49196 54.5339 1.95996C53.7359 1.56096 52.6719 1.42796 51.4749 1.69396C50.0119 1.95996 48.4159 2.62496 46.6869 3.82196C46.4209 3.95496 46.4209 4.08796 46.2879 4.08796C46.1549 4.22096 46.0219 4.35396 45.8889 4.35396C45.7559 4.35396 45.7559 4.35396 45.4899 4.35396C45.3569 4.35396 45.2239 4.35396 45.0909 4.35396C44.2929 4.22096 42.9629 4.22096 41.7659 4.35396C40.5689 4.61996 39.3719 5.01896 38.8399 5.81696C38.0419 6.88096 37.3769 8.34396 37.5099 9.80696C37.6429 11.403 38.4409 12.999 40.9679 14.462C41.2339 14.595 41.3669 14.728 41.3669 14.728C41.6329 14.861 41.6329 14.861 41.7659 14.994C41.8989 15.127 41.7659 15.26 41.7659 15.526C41.7659 15.659 41.7659 15.792 41.7659 15.925C41.6329 16.723 41.4999 18.053 41.8989 19.383C42.2979 20.58 43.0959 21.777 44.8249 22.442C46.9529 23.107 48.6819 22.974 49.8789 22.309C51.2089 21.644 52.1399 20.314 52.9379 18.851C53.0709 18.452 53.2039 18.452 53.4699 18.585C53.6029 18.585 53.6029 18.585 53.7359 18.585C56.9279 20.314 59.3219 20.181 60.7849 19.25C61.4499 18.984 61.8489 18.319 62.1149 17.787C62.3809 17.122 62.5139 16.324 62.3809 15.659C62.1149 13.797 60.7849 11.935 57.9919 10.871C57.8589 10.871 57.7259 10.738 57.5929 10.738C57.3269 10.605 57.1939 10.605 57.0609 10.472C57.0609 10.339 57.0609 10.206 57.0609 9.93996C57.0609 9.80696 57.0609 9.67396 57.0609 9.40796ZM57.0609 4.35396C57.5929 5.68396 57.7259 7.41296 57.7259 9.40796C57.5929 9.67396 57.5929 9.80696 57.5929 9.93996C57.5929 10.073 57.5929 10.073 57.5929 10.206C57.5929 10.206 57.7259 10.206 57.8589 10.206C57.8589 10.206 57.9919 10.339 58.1249 10.339C61.1839 11.536 62.6469 13.531 63.0459 15.526C63.1789 16.457 63.0459 17.255 62.6469 17.92C62.3809 18.718 61.8489 19.383 61.0509 19.782C59.4549 20.846 56.9279 20.846 53.6029 19.25C53.4699 19.117 53.4699 19.117 53.3369 19.117H53.4699C52.6719 20.713 51.6079 22.043 50.1449 22.841C48.8149 23.639 46.9529 23.772 44.6919 22.974C42.6969 22.309 41.7659 20.979 41.3669 19.516C40.9679 18.186 40.9679 16.723 41.1009 15.792C41.1009 15.659 41.2339 15.526 41.2339 15.393C41.2339 15.26 41.2339 15.393 41.2339 15.26C41.2339 15.26 41.2339 15.26 41.1009 15.26C40.9679 15.26 40.8349 15.127 40.7019 14.994C38.0419 13.398 36.9779 11.669 36.8449 9.93996C36.7119 8.21096 37.5099 6.61496 38.3079 5.55096C38.9729 4.48696 40.3029 4.08796 41.6329 3.82196C42.9629 3.55596 44.2929 3.68896 45.0909 3.68896C45.3569 3.68896 45.4899 3.68896 45.6229 3.68896C45.7559 3.82196 45.7559 3.82196 45.7559 3.82196C45.7559 3.82196 45.8889 3.68896 46.0219 3.68896C46.0219 3.55596 46.1549 3.55596 46.2879 3.42296C48.1499 2.09296 49.8789 1.42796 51.3419 1.02896C52.6719 0.762957 53.8689 0.895957 54.9329 1.56096C55.8639 2.09296 56.6619 3.02396 57.0609 4.35396ZM53.3369 19.117C53.3369 19.117 53.3369 19.117 53.4699 19.117H53.3369Z" fill="black"/>
<path d="M62.514 18.319C62.381 18.452 62.248 18.452 62.115 18.319C61.982 18.186 61.982 17.92 62.115 17.92C62.115 17.92 65.839 13.93 71.159 17.122C73.553 18.585 73.952 20.447 73.686 22.176C73.42 23.772 72.356 25.235 71.957 25.767C71.824 25.9 72.223 25.767 72.489 26.033C73.287 26.565 74.617 27.629 75.415 29.092C76.08 30.289 75.681 32.284 74.617 33.88C74.218 34.412 73.686 35.077 73.021 35.476C72.356 35.875 71.558 36.274 70.76 36.274C69.164 36.407 67.169 35.609 65.44 33.215C63.844 35.077 62.115 35.875 60.519 35.742C59.588 35.742 58.657 35.476 57.859 35.077C57.194 34.545 56.529 34.013 55.997 33.215C55.066 31.885 54.8 30.023 55.465 28.427C55.465 28.294 55.465 28.294 55.465 28.294C55.598 28.161 56.13 27.363 55.598 26.831C54.534 26.432 53.736 25.634 53.071 24.703C52.007 23.506 51.475 22.043 51.342 21.511C51.342 21.378 51.342 21.245 51.608 21.245C51.741 21.112 51.874 21.245 51.874 21.378C52.007 21.91 52.539 23.107 53.47 24.437C54.135 25.102 54.933 25.9 55.864 26.432C56.928 27.23 56.13 28.427 55.997 28.693C55.332 30.156 55.598 31.619 56.529 32.949C56.928 33.614 57.46 34.146 58.125 34.545C58.923 34.944 59.721 35.21 60.519 35.21C61.982 35.21 63.711 34.545 65.174 32.55C65.307 32.417 65.573 32.417 65.573 32.55C67.435 35.077 69.164 35.875 70.76 35.742C71.425 35.609 72.09 35.343 72.622 34.944C73.287 34.545 73.686 34.146 74.085 33.481C75.149 32.151 75.548 30.422 74.883 29.358C74.085 28.028 72.888 27.097 72.09 26.432C71.558 26.033 71.292 25.767 71.558 25.501C71.824 24.969 72.888 23.639 73.154 22.043C73.42 20.58 73.021 18.851 70.893 17.654C65.972 14.728 62.514 18.319 62.514 18.319Z" fill="black"/>
<path d="M44.0269 45.584C44.6919 44.786 46.9529 42.259 48.6819 39.333C50.1449 36.54 51.2089 33.348 49.7459 30.821C48.9479 31.353 46.0219 32.949 44.1599 35.21L43.6279 34.811C46.0219 32.018 49.6129 30.156 49.7459 30.156H49.8789L50.0119 30.289C51.8739 33.082 50.8099 36.54 49.0809 39.599C47.4849 42.525 45.2239 45.185 44.4259 45.983L44.0269 45.584Z" fill="black"/>
<path fill-rule="evenodd" clip-rule="evenodd" d="M28.8651 21.1119C28.5991 20.9789 28.4661 20.9789 28.2001 20.8459C26.6041 20.5799 24.6091 21.6439 25.2741 23.2399C25.8061 24.5699 25.1411 24.7029 24.6091 23.6389C23.9441 22.1759 24.7421 20.7129 26.7371 20.3139C27.6681 20.0479 28.5991 20.1809 29.3971 20.7129C30.5941 21.5109 30.3281 21.9099 28.8651 21.1119Z" fill="black"/>
<path fill-rule="evenodd" clip-rule="evenodd" d="M15.166 33.4809C15.033 33.4809 14.767 33.6139 14.634 33.7469C13.038 34.4119 12.24 36.5399 13.703 37.3379C15.033 38.1359 14.634 38.6679 13.57 38.1359C12.107 37.3379 11.841 35.7419 13.038 34.1459C13.57 33.4809 14.368 32.9489 15.432 32.8159C16.762 32.5499 16.895 33.2149 15.166 33.4809Z" fill="black"/>
<path fill-rule="evenodd" clip-rule="evenodd" d="M50.1451 12.0679C50.1451 11.8019 50.1451 11.5359 50.1451 11.4029C49.7461 9.67392 47.7511 8.47692 46.6871 9.80692C45.6231 10.8709 45.2241 10.3389 46.0221 9.40792C46.9531 8.21092 48.6821 8.21092 50.0121 9.80692C50.5441 10.4719 50.9431 11.4029 50.8101 12.3339C50.6771 13.7969 50.1451 13.6639 50.1451 12.0679Z" fill="black"/>
<path fill-rule="evenodd" clip-rule="evenodd" d="M65.972 25.634C65.972 25.368 65.972 25.102 65.972 24.969C65.573 23.24 63.711 22.043 62.514 23.373C61.583 24.437 61.184 23.905 61.849 22.974C62.913 21.777 64.509 21.777 65.839 23.373C66.371 24.038 66.77 24.969 66.637 25.9C66.504 27.363 65.972 27.23 65.972 25.634Z" fill="black"/>
<path d="M51.0761 79.7649L49.0811 80.5629L47.6181 85.8829L49.4801 86.0159L51.0761 79.7649ZM48.8151 80.0309L51.3421 79.0999L51.7411 78.9669L51.6081 79.3659L49.8791 86.2819V86.5479H49.6131L47.2191 86.4149H46.9531V86.1489L48.6821 80.2969V80.1639L48.8151 80.0309Z" fill="black"/>
<path d="M51.475 79.1L53.603 78.036L53.736 77.903L53.869 78.169L56.529 83.755L56.662 84.021H56.396L54.135 84.553L53.869 84.686V84.42L51.342 79.366V79.1H51.475ZM53.603 78.568L51.874 79.366L54.135 84.021L55.997 83.622L53.603 78.568Z" fill="black"/>
</svg>
